<svg width="59" height="65" viewBox="0 0 59 65" fill="none" xmlns="http://www.w3.org/2000/svg">
<path d="M32.68 18.9571C35.099 16.8634 37.813 12.9301 37.8498 13.2992C39.35 12.3978 39.2612 11.854 39.5476 10.518C40.2119 6.47389 39.9499 7.64965 37.6403 5.45406C36.1915 2.7885 33.0049 3.02652 30.6314 2.5582C29.9032 2.1863 32.7575 1.75985 31.4343 1.34608C30.6623 1.10751 26.0588 2.03864 25.1747 1.68988C24.25 1.32515 27.2888 0.281071 26.3116 0.0303827C24.2002 -0.217551 22.4531 1.29209 20.4337 1.11743C17.3889 2.34773 13.2061 4.5615 11.5586 7.28491C11.3794 7.73009 10.7417 7.64634 10.6897 7.16866C10.458 5.81659 9.90144 4.32679 9.56631 2.88272C9.13915 1.0403 7.40994 -0.176779 5.56 0.0210163C3.17787 0.275561 0.572679 1.20779 0.613284 1.28823C-0.777016 3.27776 0.520705 5.41053 1.32197 7.45901C6.70505 19.5681 10.0157 33.0815 15.3803 45.022C16.8922 48.3752 18.2017 51.819 19.3017 55.3344C21.6692 62.9377 29.3445 68.7046 34.8196 62.1311C35.74 61.0236 36.4254 59.7344 36.9013 58.3663C43.3401 39.8722 51.618 20.7637 58.8369 3.02707C59.3919 1.66344 58.4672 0.131209 57.0189 0.0518703C56.1717 0.0039365 55.2681 0.025975 54.4939 0.0518703C53.9616 0.0704818 53.4441 0.235134 52.9962 0.528415C52.5483 0.821696 52.1866 1.23271 51.9493 1.71798C49.3035 7.09262 47.3941 13.6739 47.1905 19.3692C44.3281 22.6783 42.8122 36.5234 38.6722 35.2738C38.853 34.4231 40.5779 33.4556 39.494 32.7901C38.1335 32.4083 37.3063 34.951 35.6128 34.8198C32.823 34.5185 38.1573 32.7118 38.8931 31.3769C40.9201 26.908 35.9484 32.4237 34.4038 32.5339C16.7544 40.5735 6.37263 10.891 25.7627 8.12623C27.9553 7.1075 37.2337 6.72183 32.4635 11.4397C30.5063 15.583 31.0954 16.556 26.3457 16.8392C21.7439 17.4309 21.7157 25.3185 26.3349 25.7692C29.3553 26.4639 32.1641 23.8843 31.9302 21.4325C32.2994 20.1901 31.5935 19.5752 32.68 18.9571ZM35.1645 42.8407C33.0563 46.9895 29.8004 58.1972 26.7729 53.0694C15.8979 34.6507 24.8753 43.9195 34.8792 40.8892C36.5797 40.3741 35.407 42.3691 35.1645 42.8407Z" fill="white"/>
</svg>
