<svg width="235" height="54" viewBox="0 0 235 54" fill="none" xmlns="http://www.w3.org/2000/svg">
<path d="M22.261 29.2261L22.2161 15.3062L15.3284 26.8335L13.5884 26.8354L6.67629 15.5028L6.69097 29.2427L3.00097 29.2467L2.97854 8.2467L6.18854 8.24327L14.5134 22.1244L22.7185 8.22562L25.8985 8.22222L25.981 29.2221L22.261 29.2261ZM31.8652 8.21585L35.7052 8.21175L35.7212 23.1217L46.9852 8.1997L50.6152 8.19583L50.6377 29.1958L46.7977 29.1999L46.7818 14.3199L35.5177 29.212L31.8877 29.2158L31.8652 8.21585ZM74.2381 8.1706L74.2605 29.1706L70.4205 29.1747L70.4016 11.4747L62.1216 11.4835L61.9472 16.7337C61.8504 19.6738 61.6129 22.0641 61.2349 23.9045C60.8568 25.7249 60.2483 27.1156 59.4094 28.0764C58.5704 29.0173 57.4109 29.4886 55.9309 29.4902C55.4109 29.4907 54.7008 29.3915 53.8005 29.1924L54.0669 25.8022C54.327 25.8819 54.6271 25.9216 54.9671 25.9212C56.1871 25.9199 57.0463 25.199 57.5447 23.7584C58.0632 22.2979 58.3807 20.0075 58.4974 16.8874L58.7881 8.1871L74.2381 8.1706ZM89.8885 29.4539C87.7485 29.4562 85.818 28.9982 84.097 28.0801C82.376 27.1419 81.0247 25.8534 80.0429 24.2144C79.0611 22.5555 78.5692 20.706 78.567 18.666C78.5648 16.626 79.0528 14.7855 80.0311 13.1444C81.0093 11.4834 82.3579 10.1919 84.0769 9.27009C85.7959 8.32826 87.7254 7.8562 89.8654 7.85391C92.0054 7.85163 93.9359 8.31957 95.6569 9.25773C97.3779 10.1759 98.7293 11.4544 99.711 13.0934C100.693 14.7324 101.185 16.5818 101.187 18.6418C101.189 20.7018 100.701 22.5523 99.7229 24.1934C98.7446 25.8344 97.396 27.1259 95.677 28.0677C93.958 28.9896 92.0285 29.4516 89.8885 29.4539ZM89.8849 26.0339C91.2848 26.0324 92.5445 25.7211 93.6639 25.0999C94.7832 24.4587 95.6622 23.5777 96.301 22.457C96.9398 21.3164 97.2585 20.046 97.257 18.646C97.2555 17.246 96.9341 15.9864 96.2929 14.8671C95.6517 13.7277 94.7708 12.8487 93.6501 12.2299C92.5294 11.5911 91.2691 11.2724 89.8691 11.2739C88.4691 11.2754 87.2094 11.5968 86.0901 12.2379C84.9708 12.8591 84.0917 13.7401 83.4529 14.8808C82.8141 16.0014 82.4955 17.2618 82.497 18.6618C82.4985 20.0618 82.8198 21.3314 83.461 22.4708C84.1022 23.5901 84.9832 24.4691 86.1039 25.1079C87.2245 25.7267 88.4849 26.0354 89.8849 26.0339ZM115.17 29.4269C113.05 29.4292 111.13 28.9712 109.409 28.0531C107.708 27.1149 106.366 25.8263 105.385 24.1873C104.423 22.5484 103.941 20.6989 103.939 18.6389C103.937 16.5789 104.425 14.7284 105.403 13.0873C106.381 11.4463 107.72 10.1648 109.419 9.24303C111.138 8.3012 113.057 7.82915 115.177 7.82688C116.897 7.82505 118.468 8.12337 119.888 8.72185C121.309 9.32033 122.51 10.1891 123.491 11.328L120.973 13.7007C119.452 12.0623 117.581 11.2443 115.361 11.2467C113.921 11.2482 112.631 11.5696 111.492 12.2108C110.353 12.832 109.463 13.703 108.825 14.8237C108.186 15.9444 107.867 17.2147 107.869 18.6347C107.87 20.0547 108.192 21.3243 108.833 22.4437C109.474 23.563 110.365 24.442 111.506 25.0808C112.646 25.6996 113.937 26.0082 115.377 26.0067C117.597 26.0043 119.466 25.1723 120.984 23.5107L123.507 25.908C122.528 27.049 121.319 27.9203 119.879 28.5219C118.46 29.1234 116.89 29.4251 115.17 29.4269ZM142.878 25.8273L142.881 29.0973L127.131 29.1141L127.109 8.11414L142.439 8.09777L142.442 11.3678L131.012 11.38L131.018 16.84L141.158 16.8291L141.161 20.0391L131.021 20.05L131.028 25.84L142.878 25.8273ZM155.846 8.08345C157.666 8.08151 159.247 8.37982 160.587 8.97839C161.948 9.57694 162.989 10.4358 163.71 11.5551C164.431 12.6743 164.793 14.0039 164.794 15.5439C164.796 17.0639 164.437 18.3943 163.718 19.5351C163 20.6558 161.961 21.5169 160.601 22.1184C159.262 22.7198 157.682 23.0215 155.862 23.0234L151.122 23.0285L151.129 29.0885L147.229 29.0927L147.206 8.09268L155.846 8.08345ZM155.679 19.7236C157.379 19.7218 158.668 19.3604 159.548 18.6395C160.427 17.9186 160.866 16.8881 160.864 15.5481C160.863 14.2081 160.422 13.1786 159.541 12.4595C158.66 11.7404 157.37 11.3818 155.67 11.3836L151.11 11.3885L151.119 19.7285L155.679 19.7236ZM188.406 25.7487L188.415 33.5187L184.815 33.5225L184.81 29.0525L168.7 29.0697L168.705 33.5397L165.075 33.5436L165.096 25.7736L165.996 25.7726C167.316 25.7112 168.235 24.7402 168.753 22.8597C169.291 20.9591 169.618 18.2487 169.735 14.7286L169.968 8.06837L185.358 8.05194L185.376 25.7519L188.406 25.7487ZM173.155 15.085C173.058 17.8051 172.84 20.0753 172.502 21.8957C172.164 23.696 171.626 24.9866 170.886 25.7674L181.536 25.756L181.521 11.356L173.301 11.3648L173.155 15.085ZM192.09 8.04475L195.93 8.04065L195.946 22.9506L207.21 8.0286L210.84 8.02472L210.862 29.0247L207.022 29.0288L207.006 14.1488L195.742 29.0409L192.112 29.0447L192.09 8.04475ZM232.497 25.7316L232.5 29.0016L216.75 29.0184L216.728 8.01843L232.058 8.00206L232.061 11.2721L220.631 11.2843L220.637 16.7443L230.777 16.7334L230.78 19.9434L220.64 19.9543L220.647 25.7443L232.497 25.7316Z" fill="#152F3C"/>
<path d="M42.6015 41.3869L42.6099 49.2769L41.5449 49.278L41.5375 42.333L36.5875 42.3383L36.5949 49.2833L35.5299 49.2844L35.5215 41.3944L42.6015 41.3869ZM48.3439 41.3208C49.3739 41.3197 50.1642 41.5788 50.7147 42.0982C51.2653 42.6076 51.5411 43.3673 51.5421 44.3773L51.5474 49.2673L50.5274 49.2684L50.526 48.0384C50.2865 48.4487 49.9318 48.7691 49.4621 48.9996C49.0023 49.2301 48.4524 49.3456 47.8124 49.3463C46.9324 49.3473 46.2322 49.138 45.7118 48.7186C45.1913 48.2991 44.9307 47.7444 44.93 47.0544C44.9293 46.3844 45.1687 45.8442 45.6483 45.4336C46.1378 45.0231 46.9126 44.8173 47.9726 44.8162L50.4776 44.8135L50.4771 44.3335C50.4764 43.6535 50.2858 43.1387 49.9054 42.7891C49.5251 42.4295 48.9699 42.2501 48.2399 42.2509C47.7399 42.2514 47.26 42.3369 46.8001 42.5074C46.3403 42.6679 45.9456 42.8933 45.6159 43.1837L45.135 42.3892C45.5347 42.0488 46.0144 41.7882 46.5742 41.6076C47.134 41.417 47.7239 41.3214 48.3439 41.3208ZM47.9765 48.5062C48.5765 48.5055 49.0914 48.37 49.5211 48.0995C49.9508 47.819 50.2704 47.4187 50.4798 46.8985L50.4785 45.6085L48.0035 45.6111C46.6535 45.6126 45.979 46.0833 45.98 47.0233C45.9805 47.4833 46.1558 47.8481 46.5061 48.1177C46.8564 48.3773 47.3465 48.5068 47.9765 48.5062ZM59.9251 42.3134L56.9401 42.3166L56.9475 49.2616L55.8825 49.2627L55.8751 42.3177L52.8901 42.3209L52.8891 41.3759L59.924 41.3684L59.9251 42.3134ZM65.5288 41.3024C66.2688 41.3016 66.939 41.4709 67.5394 41.8103C68.1397 42.1396 68.6102 42.6091 68.9509 43.2188C69.2915 43.8284 69.4623 44.5232 69.4631 45.3032C69.4639 46.0932 69.2947 46.7934 68.9553 47.4037C68.616 48.0141 68.1465 48.4896 67.5469 48.8303C66.9572 49.1609 66.2874 49.3266 65.5374 49.3274C64.8974 49.3281 64.3173 49.1987 63.797 48.9393C63.2867 48.6698 62.8663 48.2803 62.5357 47.7706L62.5404 52.1656L61.4754 52.1667L61.4639 41.3667L62.4839 41.3657L62.4856 42.9257C62.805 42.4053 63.2246 42.0049 63.7443 41.7243C64.274 41.4437 64.8688 41.3031 65.5288 41.3024ZM65.4614 48.3825C66.0114 48.3819 66.5113 48.2564 66.961 48.0059C67.4107 47.7454 67.7603 47.38 68.0098 46.9098C68.2693 46.4395 68.3987 45.9043 68.3981 45.3043C68.3975 44.7043 68.2669 44.1745 68.0064 43.7148C67.7559 43.245 67.4055 42.8804 66.9552 42.6209C66.505 42.3614 66.0048 42.2319 65.4548 42.2325C64.8948 42.2331 64.39 42.3636 63.9402 42.6241C63.5005 42.8846 63.1509 43.2499 62.8914 43.7202C62.6419 44.1805 62.5175 44.7106 62.5181 45.3106C62.5187 45.9106 62.6443 46.4455 62.8948 46.9152C63.1553 47.3849 63.5057 47.7496 63.946 48.0091C64.3963 48.2586 64.9014 48.3831 65.4614 48.3825ZM75.0106 49.3173C74.2506 49.3181 73.5654 49.1488 72.955 48.8095C72.3447 48.4601 71.8642 47.9806 71.5135 47.371C71.1629 46.7614 70.9871 46.0716 70.9863 45.3016C70.9855 44.5316 71.1597 43.8414 71.5091 43.231C71.8584 42.6206 72.3379 42.1451 72.9476 41.8045C73.5572 41.4638 74.242 41.2931 75.002 41.2923C75.762 41.2915 76.4472 41.4607 77.0576 41.8001C77.6679 42.1394 78.1434 42.6139 78.4841 43.2236C78.8347 43.8332 79.0105 44.523 79.0113 45.293C79.0121 46.063 78.8379 46.7532 78.4885 47.3636C78.1492 47.9739 77.6747 48.4544 77.065 48.8051C76.4554 49.1457 75.7706 49.3165 75.0106 49.3173ZM75.0096 48.3723C75.5696 48.3717 76.0694 48.2462 76.5092 47.9957C76.9589 47.7352 77.3085 47.3698 77.558 46.8996C77.8075 46.4293 77.9319 45.8942 77.9313 45.2942C77.9307 44.6942 77.8051 44.1593 77.5546 43.6896C77.3041 43.2198 76.9537 42.8602 76.5034 42.6107C76.0632 42.3512 75.563 42.2217 75.003 42.2223C74.443 42.2229 73.9382 42.3534 73.4884 42.6139C73.0487 42.8644 72.6991 43.2247 72.4396 43.695C72.1901 44.1653 72.0657 44.7004 72.0663 45.3004C72.0669 45.9004 72.1925 46.4353 72.443 46.905C72.7035 47.3747 73.0539 47.7394 73.4942 47.9989C73.9445 48.2484 74.4496 48.3729 75.0096 48.3723ZM81.2832 41.3456L82.3482 41.3444L82.3519 44.8394L87.3169 44.8341L87.3132 41.3391L88.3782 41.338L88.3866 49.228L87.3216 49.2291L87.3179 45.7491L82.3529 45.7544L82.3566 49.2344L81.2916 49.2356L81.2832 41.3456ZM94.1202 41.2719C95.1502 41.2708 95.9405 41.5299 96.491 42.0493C97.0416 42.5588 97.3174 43.3185 97.3185 44.3285L97.3237 49.2185L96.3037 49.2195L96.3024 47.9895C96.0628 48.3998 95.7082 48.7202 95.2384 48.9507C94.7787 49.1812 94.2288 49.2968 93.5888 49.2974C92.7088 49.2984 92.0086 49.0891 91.4881 48.6697C90.9677 48.2502 90.7071 47.6955 90.7063 47.0055C90.7056 46.3355 90.945 45.7953 91.4246 45.3848C91.9142 44.9742 92.6889 44.7684 93.7489 44.7673L96.2539 44.7646L96.2534 44.2846C96.2527 43.6046 96.0622 43.0898 95.6818 42.7402C95.3014 42.3806 94.7462 42.2012 94.0162 42.202C93.5162 42.2025 93.0363 42.288 92.5765 42.4585C92.1167 42.619 91.7219 42.8444 91.3922 43.1348L90.9114 42.3403C91.311 41.9999 91.7907 41.7394 92.3505 41.5588C92.9103 41.3682 93.5002 41.2725 94.1202 41.2719ZM93.7529 48.4573C94.3529 48.4566 94.8677 48.3211 95.2975 48.0506C95.7272 47.7702 96.0467 47.3698 96.2562 46.8496L96.2548 45.5596L93.7798 45.5622C92.4298 45.5637 91.7553 46.0344 91.7563 46.9744C91.7568 47.4344 91.9322 47.7992 92.2825 48.0688C92.6327 48.3285 93.1229 48.4579 93.7529 48.4573ZM107.07 45.698L105.36 45.6999L105.364 49.2099L104.299 49.211L104.295 45.701L102.585 45.7028L100.174 49.2154L98.8988 49.2168L101.729 45.1487L99.1154 41.3265L100.27 41.3253L102.584 44.7878L104.294 44.786L104.29 41.321L105.355 41.3199L105.359 44.7849L107.069 44.783L109.39 41.3156L110.545 41.3143L107.939 45.1571L110.779 49.2041L109.504 49.2054L107.07 45.698ZM112.543 41.3122L113.608 41.3111L113.612 44.8061L118.577 44.8008L118.573 41.3058L119.638 41.3046L119.646 49.1946L118.581 49.1958L118.578 45.7158L113.613 45.7211L113.616 49.2011L112.551 49.2022L112.543 41.3122ZM125.38 41.2385C126.41 41.2374 127.2 41.4965 127.751 42.016C128.301 42.5254 128.577 43.2851 128.578 44.2951L128.583 49.1851L127.563 49.1862L127.562 47.9562C127.323 48.3664 126.968 48.6868 126.498 48.9173C126.038 49.1478 125.489 49.2634 124.849 49.2641C123.969 49.265 123.268 49.0557 122.748 48.6363C122.227 48.2169 121.967 47.6621 121.966 46.9721C121.965 46.3021 122.205 45.7619 122.684 45.3514C123.174 44.9408 123.949 44.735 125.009 44.7339L127.514 44.7312L127.513 44.2512C127.512 43.5712 127.322 43.0564 126.942 42.7068C126.561 42.3472 126.006 42.1678 125.276 42.1686C124.776 42.1691 124.296 42.2546 123.836 42.4251C123.376 42.5856 122.982 42.8111 122.652 43.1014L122.171 42.3069C122.571 41.9665 123.05 41.706 123.61 41.5254C124.17 41.3348 124.76 41.2392 125.38 41.2385ZM125.013 48.4239C125.613 48.4232 126.127 48.2877 126.557 48.0172C126.987 47.7368 127.306 47.3364 127.516 46.8162L127.515 45.5262L125.04 45.5289C123.69 45.5303 123.015 46.001 123.016 46.941C123.017 47.401 123.192 47.7658 123.542 48.0355C123.892 48.2951 124.383 48.4246 125.013 48.4239ZM137.47 41.2856L137.479 49.1756L136.504 49.1766L136.501 46.5666L134.026 46.5693L133.726 46.5696L131.899 49.1815L130.744 49.1828L132.706 46.4207C132.095 46.2513 131.625 45.9618 131.295 45.5522C130.964 45.1425 130.799 44.6227 130.798 43.9927C130.797 43.1127 131.096 42.4424 131.696 41.9817C132.295 41.5211 133.115 41.2902 134.155 41.2891L137.47 41.2856ZM131.878 44.0216C131.879 45.1916 132.625 45.7758 134.115 45.7742L136.5 45.7716L136.496 42.2316L134.186 42.2341C132.646 42.2357 131.877 42.8316 131.878 44.0216ZM147.741 49.2396C146.961 49.2404 146.261 49.0712 145.641 48.7319C145.03 48.3925 144.55 47.918 144.199 47.3084C143.848 46.6888 143.673 45.994 143.672 45.224C143.671 44.454 143.845 43.7638 144.195 43.1534C144.544 42.543 145.023 42.0675 145.633 41.7269C146.253 41.3862 146.953 41.2155 147.733 41.2146C148.413 41.2139 149.018 41.3482 149.548 41.6177C150.088 41.8771 150.514 42.2616 150.824 42.7713L150.03 43.3122C149.769 42.9224 149.439 42.6328 149.039 42.4432C148.639 42.2437 148.204 42.1441 147.734 42.1446C147.164 42.1452 146.649 42.2758 146.189 42.5363C145.739 42.7867 145.385 43.1471 145.125 43.6174C144.876 44.0877 144.751 44.6228 144.752 45.2228C144.752 45.8328 144.878 46.3727 145.129 46.8424C145.389 47.3021 145.744 47.6617 146.195 47.9213C146.655 48.1708 147.17 48.2952 147.74 48.2946C148.21 48.2941 148.645 48.1986 149.045 48.0082C149.445 47.8178 149.774 47.5274 150.034 47.1372L150.829 47.6763C150.52 48.1866 150.095 48.5771 149.556 48.8477C149.016 49.1083 148.411 49.2389 147.741 49.2396ZM159.071 41.2625L159.079 49.1525L158.014 49.1536L158.007 42.2086L154.227 42.2127L154.124 44.1628C154.046 45.8029 153.857 47.0631 153.558 47.9434C153.259 48.8237 152.725 49.2643 151.955 49.2651C151.745 49.2653 151.49 49.2256 151.189 49.1459L151.263 48.2309C151.444 48.2707 151.569 48.2905 151.639 48.2905C152.049 48.29 152.358 48.0997 152.568 47.7195C152.778 47.3392 152.917 46.8691 152.986 46.309C153.056 45.7489 153.115 45.0089 153.164 44.0888L153.296 41.2687L159.071 41.2625ZM168.804 41.2521L164.868 50.0913C164.549 50.8317 164.179 51.3571 163.76 51.6675C163.34 51.978 162.835 52.1335 162.245 52.1341C161.865 52.1345 161.51 52.0749 161.18 51.9553C160.85 51.8356 160.565 51.6559 160.324 51.4162L160.819 50.6206C161.219 51.0202 161.699 51.2197 162.259 51.2191C162.619 51.2187 162.924 51.1184 163.174 50.9181C163.434 50.7179 163.673 50.3776 163.893 49.8974L164.237 49.132L160.704 41.2608L161.814 41.2596L164.791 47.9614L167.754 41.2532L168.804 41.2521ZM176.928 45.6234L175.218 45.6253L175.222 49.1353L174.157 49.1364L174.153 45.6264L172.443 45.6282L170.032 49.1408L168.757 49.1422L171.588 45.0741L168.974 41.2519L170.129 41.2507L172.442 44.7132L174.152 44.7114L174.149 41.2464L175.214 41.2453L175.217 44.7103L176.927 44.7084L179.249 41.241L180.404 41.2397L177.798 45.0825L180.637 49.1295L179.362 49.1308L176.928 45.6234ZM186.153 41.4286C186.883 41.4278 187.533 41.5921 188.104 41.9215C188.684 42.2409 189.135 42.6954 189.455 43.2851C189.776 43.8647 189.937 44.5295 189.937 45.2795C189.938 46.0495 189.769 46.7347 189.43 47.3351C189.1 47.9254 188.636 48.3859 188.036 48.7166C187.436 49.0472 186.747 49.213 185.967 49.2138C184.657 49.2152 183.641 48.7563 182.92 47.837C182.199 46.9178 181.838 45.6482 181.836 44.0282C181.834 42.3382 182.153 41.0429 182.792 40.1422C183.441 39.2415 184.45 38.6304 185.82 38.3089L189.359 37.4952L189.54 38.47L186.211 39.2385C185.081 39.4897 184.252 39.9356 183.722 40.5762C183.193 41.2067 182.904 42.1421 182.855 43.3821C183.175 42.7718 183.619 42.2963 184.189 41.9557C184.758 41.6051 185.413 41.4294 186.153 41.4286ZM185.996 48.3288C186.546 48.3282 187.036 48.2027 187.465 47.9522C187.905 47.6917 188.245 47.3314 188.484 46.8711C188.734 46.4108 188.858 45.8907 188.857 45.3107C188.857 44.7307 188.736 44.2208 188.496 43.7811C188.255 43.3413 187.915 43.0017 187.475 42.7622C187.044 42.5126 186.549 42.3882 185.989 42.3888C185.429 42.3894 184.929 42.5149 184.49 42.7654C184.06 43.0058 183.72 43.3462 183.471 43.7865C183.231 44.2267 183.112 44.7368 183.112 45.3168C183.113 45.8968 183.234 46.4167 183.474 46.8765C183.725 47.3362 184.07 47.6958 184.51 47.9553C184.951 48.2049 185.446 48.3293 185.996 48.3288ZM194.887 41.1643C195.917 41.1632 196.707 41.4223 197.258 41.9417C197.808 42.4511 198.084 43.2108 198.085 44.2208L198.09 49.1108L197.07 49.1119L197.069 47.8819C196.829 48.2922 196.475 48.6126 196.005 48.8431C195.545 49.0736 194.995 49.1892 194.355 49.1898C193.475 49.1908 192.775 48.9815 192.255 48.5621C191.734 48.1426 191.474 47.5879 191.473 46.8979C191.472 46.2279 191.712 45.6877 192.191 45.2771C192.681 44.8666 193.455 44.6608 194.515 44.6597L197.02 44.657L197.02 44.177C197.019 43.497 196.829 42.9822 196.448 42.6326C196.068 42.273 195.513 42.0936 194.783 42.0944C194.283 42.0949 193.803 42.1804 193.343 42.3509C192.883 42.5114 192.488 42.7368 192.159 43.0272L191.678 42.2327C192.078 41.8923 192.557 41.6317 193.117 41.4512C193.677 41.2606 194.267 41.1649 194.887 41.1643ZM194.519 48.3497C195.119 48.349 195.634 48.2135 196.064 47.943C196.494 47.6625 196.813 47.2622 197.023 46.742L197.021 45.452L194.546 45.4546C193.196 45.4561 192.522 45.9268 192.523 46.8668C192.523 47.3268 192.699 47.6916 193.049 47.9612C193.399 48.2209 193.889 48.3503 194.519 48.3497Z" fill="#152F3C"/>
</svg>
