<svg width="23" height="24" viewBox="0 0 23 24" fill="none" xmlns="http://www.w3.org/2000/svg">
<path d="M10.4533 17.5503C10.2778 17.7256 10.2778 18.0103 10.4533 18.186C10.6291 18.3614 10.9136 18.3614 11.0889 18.186C11.2647 18.0103 11.2647 17.7256 11.0889 17.5503C10.9136 17.3745 10.6291 17.3745 10.4533 17.5503V17.5503Z" fill="white"/>
<path d="M21.9834 16.7694L18.5697 13.8667C18.5539 13.8533 18.5372 13.841 18.5198 13.83C17.6242 13.2598 16.4743 13.3861 15.7235 14.1368L13.8622 15.9979C13.7333 16.127 13.541 16.1651 13.3724 16.0955C11.2707 15.2261 9.54415 13.9172 8.24074 12.2056C7.2468 10.9005 6.8885 9.86334 6.84125 9.7172C6.83563 9.68594 6.82667 9.65485 6.81403 9.62447C6.7443 9.45585 6.78241 9.26388 6.91168 9.13496L8.77275 7.27337C9.5236 6.52252 9.64971 5.37261 9.07959 4.47703C9.07502 4.46983 9.07028 4.4628 9.06536 4.45578L6.6001 1.02995C5.82448 -0.173349 4.13501 -0.355135 3.12105 0.65865L2.74835 1.03135C2.74817 1.03171 2.74782 1.03206 2.74747 1.03223L1.41683 2.36287C-0.169885 3.94976 -0.429478 6.33423 0.66633 9.25896C1.60494 11.7643 3.48392 14.5062 5.95709 16.9793C8.48874 19.511 11.3048 21.4247 13.8863 22.3681C16.4415 23.3016 19.1595 23.4167 21.0832 21.4927L22.3382 20.2379C23.3476 19.2284 23.1714 17.55 21.9834 16.7694V16.7694ZM18.0126 14.5731L21.4233 17.4734C21.4389 17.4867 21.4556 17.499 21.473 17.5101C22.2015 17.974 22.3118 18.9927 21.7022 19.6021L21.6091 19.6954L15.7918 15.3399L16.3593 14.7726C16.8028 14.3289 17.4786 14.2487 18.0126 14.5731V14.5731ZM5.84889 1.52402C5.85346 1.53122 5.8582 1.53842 5.86312 1.54527L8.32733 4.96987C8.6621 5.50575 8.58464 6.18986 8.13694 6.63756L7.58701 7.18766L3.65131 1.40002L3.75686 1.29446C4.36896 0.682361 5.38679 0.798107 5.84889 1.52402ZM14.1947 21.5234C11.7337 20.6242 9.03392 18.7845 6.5929 16.3435C4.20843 13.9592 2.40269 11.3311 1.50817 8.94352C0.836699 7.1513 0.386187 4.66514 2.05264 2.99886L3.00408 2.04725L6.93978 7.83489L6.27605 8.49898C5.89842 8.8759 5.77969 9.43372 5.96815 9.93043C6.11007 10.5128 6.76309 11.7218 7.42191 12.6126C8.39144 13.9236 10.1512 15.736 13.0286 16.9265C13.5343 17.1356 14.1109 17.0208 14.498 16.6338L15.1495 15.9822L20.9668 20.3377L20.4474 20.8569C18.661 22.6435 16.0612 22.2055 14.1947 21.5234Z" fill="white"/>
<path d="M9.60948 16.4767C9.13455 16.0603 8.31309 15.344 7.88049 14.8989C6.81964 13.8088 5.70662 12.4873 5.04481 11.5325C4.90342 11.3284 4.62328 11.2775 4.41919 11.419C4.2151 11.5604 4.16434 11.8406 4.30573 12.0446C5.14036 13.2488 6.36667 14.6325 7.2359 15.5258C7.69256 15.9958 8.52105 16.7184 9.01652 17.1527C9.20288 17.3161 9.48688 17.2982 9.65111 17.1111C9.8148 16.9246 9.79618 16.6404 9.60948 16.4767Z" fill="white"/>
</svg>
