<svg width="32" height="32" viewBox="0 0 32 32" fill="none" xmlns="http://www.w3.org/2000/svg">
<path d="M14.4027 24.3786C14.1654 24.6156 14.1654 25.0005 14.4027 25.238C14.6404 25.4752 15.0251 25.4752 15.2621 25.238C15.4998 25.0005 15.4998 24.6156 15.2621 24.3786C15.0251 24.1409 14.6404 24.1409 14.4027 24.3786Z" fill="white"/>
<path d="M29.9921 23.3228L25.3766 19.398C25.3552 19.38 25.3326 19.3633 25.3091 19.3484C24.0982 18.5775 22.5435 18.7483 21.5282 19.7633L19.0117 22.2796C18.8374 22.4541 18.5774 22.5056 18.3494 22.4116C15.5077 21.2361 13.1733 19.4664 11.411 17.1522C10.0671 15.3875 9.5827 13.9852 9.51881 13.7876C9.51122 13.7454 9.4991 13.7033 9.48201 13.6622C9.38773 13.4343 9.43926 13.1747 9.61404 13.0004L12.1303 10.4834C13.1456 9.46817 13.3161 7.91341 12.5452 6.70252C12.539 6.69278 12.5326 6.68328 12.526 6.67378L9.19276 2.0418C8.14406 0.414849 5.85977 0.169061 4.48882 1.53978L3.9849 2.0437C3.98466 2.04418 3.98418 2.04465 3.98371 2.04489L2.18459 3.84401C0.0392238 5.98961 -0.311767 9.21359 1.16985 13.1681C2.43892 16.5554 4.97945 20.2627 8.32336 23.6066C11.7463 27.0296 15.5538 29.6171 19.0442 30.8926C22.499 32.1548 26.174 32.3103 28.7751 29.709L30.4718 28.0125C31.8366 26.6475 31.5984 24.3781 29.9921 23.3228ZM24.6233 20.3531L29.2348 24.2746C29.256 24.2926 29.2785 24.3093 29.302 24.3242C30.2871 24.9514 30.4362 26.3288 29.6119 27.1528L29.4861 27.2789L21.6206 21.39L22.3879 20.6229C22.9875 20.0231 23.9013 19.9145 24.6233 20.3531ZM8.17707 2.70982C8.18325 2.71956 8.18966 2.7293 8.19631 2.73856L11.5281 7.36888C11.9807 8.09342 11.876 9.01839 11.2707 9.62372L10.5271 10.3675L5.20576 2.54216L5.34849 2.39944C6.17609 1.57184 7.55227 1.72833 8.17707 2.70982ZM19.4612 29.7506C16.1337 28.5347 12.4835 26.0474 9.18302 22.7469C5.95904 19.5232 3.51754 15.9698 2.30808 12.7415C1.4002 10.3183 0.791075 6.95685 3.04425 4.70391L4.33066 3.41727L9.65204 11.2426L8.75461 12.1405C8.24404 12.6501 8.08351 13.4043 8.33832 14.0759C8.5302 14.8634 9.41314 16.4979 10.3039 17.7024C11.6148 19.475 13.9941 21.9255 17.8846 23.5351C18.5683 23.8179 19.348 23.6626 19.8714 23.1395L20.7522 22.2584L28.6176 28.1474L27.9154 28.8493C25.5 31.265 21.9849 30.6727 19.4612 29.7506Z" fill="white"/>
<path d="M13.2619 22.927C12.6198 22.364 11.5091 21.3955 10.9242 20.7938C9.48982 19.3197 7.98493 17.533 7.09012 16.242C6.89895 15.9661 6.52017 15.8972 6.24423 16.0886C5.96828 16.2798 5.89965 16.6586 6.09082 16.9345C7.2193 18.5627 8.87737 20.4335 10.0526 21.6413C10.6701 22.2768 11.7903 23.2538 12.4602 23.8411C12.7121 24.0619 13.0961 24.0377 13.3182 23.7848C13.5395 23.5326 13.5143 23.1483 13.2619 22.927Z" fill="white"/>
</svg>
