<svg width="21" height="28" viewBox="0 0 21 28" fill="none" xmlns="http://www.w3.org/2000/svg">
<path d="M16.3713 15.4418C16.5791 15.5815 16.8608 15.5262 17.0005 15.3183C17.8683 14.027 18.327 12.5192 18.327 10.9579C18.327 6.64206 14.8158 3.13086 10.5 3.13086C6.18412 3.13086 2.67297 6.642 2.67297 10.9579C2.67297 15.2737 6.18412 18.7849 10.5 18.7849C12.3913 18.7849 14.2173 18.1009 15.6415 16.859C15.8302 16.6945 15.8498 16.4081 15.6853 16.2193C15.5207 16.0306 15.2343 16.0111 15.0456 16.1756C13.7865 17.2735 12.1722 17.8781 10.5 17.8781C6.68416 17.8781 3.57973 14.7737 3.57973 10.9579C3.57973 7.14199 6.68416 4.03762 10.5 4.03762C14.3158 4.03762 17.4202 7.14205 17.4202 10.9579C17.4202 12.3384 17.0148 13.6714 16.2479 14.8125C16.1083 15.0204 16.1635 15.3021 16.3713 15.4418V15.4418Z" fill="white"/>
<path d="M3.2844 18.5851C3.28809 18.589 3.29189 18.5928 3.2957 18.5965L6.55549 21.7555C7.44853 22.6209 8.17744 23.6267 8.72197 24.7447L9.61942 26.5875C9.78959 26.9369 10.1358 27.1533 10.5241 27.1533H10.5299C10.9204 27.1512 11.2669 26.9306 11.434 26.5776L12.2726 24.8065C12.822 23.6463 13.5679 22.605 14.4898 21.7117L17.7044 18.5965C17.7082 18.5928 17.712 18.589 17.7157 18.5851C18.739 17.6168 19.5449 16.4751 20.1113 15.1913C20.701 13.8547 21 12.4304 21 10.958C21 8.09839 19.8709 5.42521 17.8207 3.43089C15.7713 1.4373 13.0653 0.382921 10.203 0.462171C8.18252 0.517967 6.23251 1.15578 4.56377 2.30651C4.35764 2.44869 4.30577 2.731 4.44789 2.93713C4.59001 3.14327 4.87237 3.19507 5.07851 3.05302C6.60252 2.00203 8.38315 1.41959 10.2279 1.36857C12.8437 1.29578 15.316 2.25948 17.1884 4.08085C19.0616 5.90301 20.0932 8.34533 20.0932 10.958C20.0932 13.6284 19.0221 16.1083 17.0771 17.9409C17.0701 17.9475 17.0635 17.9542 17.057 17.9611L13.8587 21.0605C12.8585 22.0298 12.049 23.1596 11.453 24.4184L10.6144 26.1895C10.5966 26.2272 10.5664 26.2463 10.5248 26.2465C10.4842 26.2455 10.4529 26.2279 10.4346 26.1905L9.53715 24.3477C8.94637 23.1345 8.15543 22.0433 7.18647 21.1043L3.94295 17.9611C3.93648 17.9542 3.92977 17.9475 3.92288 17.9409C1.98079 16.111 0.909603 13.6348 0.906762 10.9685C0.904102 8.44665 1.88213 6.05916 3.66076 4.2457C3.83607 4.06695 3.83329 3.77987 3.65454 3.60457C3.47578 3.42926 3.18877 3.43204 3.0134 3.61079C1.06726 5.59502 -0.00289574 8.20835 5.88513e-06 10.9694C0.0015776 12.4396 0.301291 13.8617 0.890864 15.1962C1.45722 16.478 2.26248 17.6181 3.2844 18.5851V18.5851Z" fill="white"/>
</svg>
