<?xml version="1.0" encoding="utf-8"?>
<!-- Generator: Adobe Illustrator 24.0.2, SVG Export Plug-In . SVG Version: 6.00 Build 0)  -->
<svg version="1.1" id="Слой_1" xmlns="http://www.w3.org/2000/svg" xmlns:xlink="http://www.w3.org/1999/xlink" x="0px" y="0px"
	 viewBox="0 0 480 480" style="enable-background:new 0 0 480 480;" xml:space="preserve">
<style type="text/css">
	.st0{fill:#FFFFFF;stroke:#132F3C;stroke-width:4;}
</style>
<path class="st0" d="M315.7,337.1h-7.5c-2,0-3.9,0.8-5.3,2.2l-69.4,69.4l-69.4-69.4c-1.4-1.4-3.3-2.2-5.3-2.2l-8.2,0
	c-91,9.1-141.1,51.5-141.1,119.4c0,4.1,3.3,7.5,7.5,7.5s7.5-3.3,7.5-7.5c0-66.8,53.8-92.5,105.9-101.6l-8.1,16.2
	c-1.8,3.7-0.3,8.2,3.3,10l25.7,12.9v25.3c0,3.3,2.2,6.2,5.3,7.2l69.3,20.8v9.4c0,4.1,3.3,7.5,7.5,7.5c4.1,0,7.5-3.3,7.5-7.5v-9.4
	l69.3-20.8c3.2-0.9,5.3-3.9,5.3-7.2v-25.3l25.7-12.8c3.7-1.8,5.2-6.3,3.3-10l-8.1-16.1c52.4,9.2,105.9,35,105.9,101.5
	c0,4.1,3.3,7.5,7.5,7.5s7.5-3.3,7.5-7.5C457.6,388.6,407.5,346.2,315.7,337.1z M166.4,413.6v-24.3c0-2.8-1.6-5.5-4.1-6.7L139.1,371
	l9.4-18.7c1-0.1,2-0.3,3-0.4h4.4l70.3,70.3v9.3L166.4,413.6z M328.1,371.1l-23.2,11.6c-2.5,1.3-4.1,3.8-4.1,6.7v24.3l-59.7,17.9
	v-9.3l70.3-70.3h3.6c1.3,0.1,2.5,0.3,3.8,0.4L328.1,371.1z"/>
<path class="st0" d="M94.6,275.8c27.7,20.4,60.1,33.5,94.2,38v23.3c0,4.1,3.3,7.5,7.5,7.5c4.1,0,7.5-3.3,7.5-7.5v-22.9
	c9.3,4.7,19.5,7.4,29.9,7.9c10.4-0.5,20.6-3.2,29.9-7.9v22.9c0,4.1,3.3,7.5,7.5,7.5c4.1,0,7.5-3.3,7.5-7.5v-23.3
	c34.1-4.5,66.5-17.6,94.2-38c17.7-13.8,12.3-66.7-17.5-171.4c-0.7-2.4-1.2-4.3-1.6-5.8l14-35c1.4-3.5,0-7.4-3.2-9.3
	C308.6,22.5,271.8,16,233.6,16s-75,6.5-130.7,38.3c-3.2,1.8-4.6,5.8-3.2,9.3l14,35c-0.4,1.5-1,3.4-1.6,5.8
	C82.3,209.1,76.9,261.9,94.6,275.8z M151.5,225.1v-39.9c41.2-7,81-20.5,118-40.1c8.6,9.7,28.1,30.1,46.3,38.6v41.3
	c0,44.1-55.1,82.1-82.1,82.1S151.5,269.2,151.5,225.1z M121.6,202.7c0-8.2,6.7-14.9,14.9-14.9v29.9
	C128.3,217.6,121.6,210.9,121.6,202.7z M330.7,187.7c8.2,0,14.9,6.7,14.9,14.9c0,8.2-6.7,14.9-14.9,14.9V187.7z M233.6,30.9
	c34.5,0,67.9,5.7,117.6,33.2l-24.2,60.5c-29.8-15.5-76.5-19-93.3-19s-63.5,3.6-93.3,19L116,64.1C165.7,36.7,199.1,30.9,233.6,30.9z
	 M129.6,138.2c0.8,2.1,2.6,3.7,4.7,4.4c2.2,0.7,4.5,0.3,6.4-1c22.7-15.4,69-21.1,92.9-21.1s70.1,5.7,92.9,21.1
	c1.9,1.3,4.2,1.6,6.4,1s3.9-2.3,4.7-4.4l6.7-16.9c33.1,119.9,23.1,139.5,19.1,142.6c-21.3,15.6-45.7,26.6-71.5,32.2
	c19.4-15.9,35.6-38.2,38.3-63.7h0.5c16.5,0,29.9-13.4,29.9-29.9s-13.4-29.9-29.9-29.9c-13.7,0-40.4-25.8-54-42.1
	c-2.4-2.9-6.7-3.5-9.9-1.4c-0.4,0.3-44.8,29.2-131.5,43.7c-16.5,0.3-29.5,14-29.2,30.4c0.3,16.5,14,29.5,30.4,29.2h0.5
	c2.7,25.5,18.8,47.7,38.3,63.7c-25.8-5.6-50.2-16.6-71.6-32.2c-4-3.1-14-22.7,19.1-142.6L129.6,138.2z"/>
<path class="st0" d="M251.3,256.6c-10.6,7.7-24.9,7.7-35.5,0c-2.1-1.8-4.9-2.3-7.5-1.3c-2.6,1-4.4,3.2-4.8,5.9
	c-0.4,2.7,0.7,5.4,2.9,7c16,12.2,38.2,12.2,54.1,0c2.2-1.6,3.3-4.3,2.9-7c-0.4-2.7-2.2-5-4.8-5.9
	C256.3,254.3,253.4,254.8,251.3,256.6z"/>
<path class="st0" d="M293.3,202.7c0,8.2-6.7,14.9-14.9,14.9c-8.2,0-14.9-6.7-14.9-14.9c0-8.2,6.7-14.9,14.9-14.9
	C286.6,187.7,293.3,194.4,293.3,202.7z"/>
<path class="st0" d="M203.7,202.7c0,8.2-6.7,14.9-14.9,14.9s-14.9-6.7-14.9-14.9c0-8.2,6.7-14.9,14.9-14.9S203.7,194.4,203.7,202.7z
	"/>
<path class="st0" d="M218.7,75.7h7.5v7.5c0,4.1,3.3,7.5,7.5,7.5c4.1,0,7.5-3.3,7.5-7.5v-7.5h7.5c4.1,0,7.5-3.3,7.5-7.5
	c0-4.1-3.3-7.5-7.5-7.5h-7.5v-7.5c0-4.1-3.3-7.5-7.5-7.5c-4.1,0-7.5,3.3-7.5,7.5v7.5h-7.5c-4.1,0-7.5,3.3-7.5,7.5
	C211.2,72.4,214.5,75.7,218.7,75.7z"/>
</svg>
