<svg width="22" height="22" viewBox="0 0 22 22" fill="none" xmlns="http://www.w3.org/2000/svg">
<path d="M18.6824 14.7283L18.4644 14.3721C18.0383 13.6761 17.5226 13.038 16.9317 12.4752L16.2027 11.7811C16.1335 11.7151 16.1231 11.6104 16.178 11.532L17.1734 10.1137C17.3169 9.90919 17.4494 9.69379 17.5671 9.47354L18.4176 7.8821C18.5659 7.60478 18.558 7.27809 18.3964 7.00825C18.2349 6.73845 17.9507 6.5771 17.6362 6.57675L15.7952 6.57465C15.7948 6.57465 15.7945 6.57465 15.7941 6.57465C15.4084 6.57465 15.0591 6.80277 14.9041 7.15597L14.7092 7.60027C14.2117 8.73383 13.5326 9.7674 12.6901 10.6736V7.43003C12.6901 6.95814 12.3062 6.57422 11.8344 6.57422H9.22699C8.79885 6.57422 8.45058 6.92252 8.45058 7.35066C8.45058 7.51416 8.50099 7.67078 8.59629 7.80347L8.77874 8.05763C8.95762 8.30672 9.05215 8.6005 9.05215 8.90721V11.2773C8.73061 10.9039 8.33912 10.3968 8.00771 9.81372C7.5002 8.92083 7.13643 7.87965 6.96477 7.33846C6.81975 6.88136 6.4002 6.57422 5.92071 6.57422H4.05613C3.79299 6.57422 3.55099 6.69453 3.392 6.9043C3.23315 7.11412 3.18292 7.37975 3.25429 7.63314L3.60212 8.86763C3.81529 9.62436 4.10833 10.361 4.4731 11.0572C4.58318 11.2674 4.8428 11.3485 5.05309 11.2384C5.26333 11.1283 5.34442 10.8686 5.23429 10.6584C4.8972 10.0149 4.62637 9.33402 4.42931 8.63461L4.09093 7.43359H5.92076C6.02401 7.43359 6.11437 7.49977 6.14561 7.59829C6.3275 8.17162 6.71422 9.27708 7.26065 10.2383C7.70899 11.0271 8.25293 11.6841 8.63037 12.0965C8.83713 12.3224 9.15527 12.3967 9.44084 12.2857C9.72676 12.1746 9.91152 11.9047 9.91152 11.598V8.90721C9.91152 8.41955 9.76117 7.95244 9.47685 7.5564L9.38864 7.43359H11.8308V10.8795C11.8308 11.1316 11.9574 11.3634 12.1694 11.4997C12.3814 11.636 12.6449 11.6549 12.8742 11.5502L13.0514 11.4693C13.133 11.4321 13.2055 11.3801 13.267 11.3149C14.1995 10.3246 14.9495 9.19102 15.4961 7.94557L15.6911 7.50127C15.709 7.46036 15.7495 7.43398 15.7941 7.43398H15.7942L17.6352 7.43609C17.6415 7.43609 17.651 7.43613 17.6591 7.44962C17.6672 7.46316 17.6627 7.47149 17.6598 7.47704L16.8093 9.06843C16.7078 9.25822 16.5936 9.4438 16.47 9.62006L15.4746 11.0384C15.1733 11.4677 15.2304 12.0418 15.6102 12.4035L16.3391 13.0976C16.8759 13.6088 17.3444 14.1886 17.7315 14.8208L17.9496 15.177C17.9548 15.1855 17.9707 15.2116 17.9509 15.2471C17.931 15.2825 17.9004 15.2825 17.8904 15.2825H16.3011C16.0968 15.2825 15.8981 15.1986 15.7557 15.0522L14.1665 13.4181C13.7919 13.033 13.3167 12.7685 12.792 12.6534C12.5568 12.6017 12.314 12.6586 12.1263 12.8096C11.9385 12.9607 11.8308 13.1854 11.8308 13.4264V15.0319C11.8308 15.1701 11.7184 15.2826 11.5802 15.2826C10.3486 15.2826 9.1316 14.8705 8.15333 14.1223C7.75922 13.8209 7.38333 13.4884 7.0361 13.1343C6.86998 12.9649 6.59794 12.9621 6.42843 13.1282C6.25896 13.2944 6.2563 13.5665 6.42242 13.7359C6.79809 14.1191 7.20479 14.4787 7.63121 14.8049C8.7585 15.6671 10.1609 16.1419 11.5801 16.1419C12.1922 16.1419 12.6901 15.644 12.6901 15.0319V13.5128C13.0173 13.6002 13.3133 13.7735 13.5504 14.0173L15.1396 15.6514C15.4428 15.9631 15.8661 16.1419 16.3011 16.1419H17.8904C18.2261 16.1419 18.5366 15.96 18.7006 15.6671C18.8647 15.3743 18.8577 15.0145 18.6824 14.7283Z" fill="white"/>
<path d="M6.01807 11.9263L6.0133 11.9196C5.87498 11.7267 5.6066 11.6824 5.41371 11.8208C5.22087 11.9591 5.17661 12.2275 5.31488 12.4203C5.31506 12.4206 5.31763 12.4242 5.31781 12.4245L5.66886 12.1766L5.31965 12.427C5.40357 12.5441 5.53544 12.6064 5.66925 12.6064C5.75587 12.6064 5.8434 12.5802 5.91924 12.5258C6.11208 12.3875 6.15634 12.1191 6.01807 11.9263Z" fill="white"/>
<path d="M19.1641 0H2.83594C1.27218 0 0 1.27218 0 2.83594V19.1641C0 20.7278 1.27218 22 2.83594 22H19.1641C20.7278 22 22 20.7278 22 19.1641V2.83594C22 1.27218 20.7278 0 19.1641 0ZM21.1406 19.1641C21.1406 20.2539 20.2539 21.1406 19.1641 21.1406H2.83594C1.74608 21.1406 0.859375 20.2539 0.859375 19.1641V2.83594C0.859375 1.74608 1.74608 0.859375 2.83594 0.859375H19.1641C20.2539 0.859375 21.1406 1.74608 21.1406 2.83594V19.1641Z" fill="white"/>
</svg>
