<svg width="38" height="23" viewBox="0 0 38 23" fill="none" xmlns="http://www.w3.org/2000/svg">
<mask id="path-1-inside-1" fill="white">
<path d="M36.7444 19.3802L36.2262 18.5337C35.2135 16.8795 33.9878 15.3627 32.5834 14.0253L30.8508 12.3756C30.6862 12.2187 30.6615 11.9697 30.7921 11.7835L33.1577 8.41254C33.4989 7.92642 33.8137 7.41447 34.0935 6.89097L36.115 3.10852C36.4673 2.4494 36.4485 1.67293 36.0645 1.03158C35.6808 0.390326 35.0052 0.00684304 34.2578 0.00602603L29.8822 0.0010207C29.8813 0.0010207 29.8805 0.0010207 29.8796 0.0010207C28.9629 0.0010207 28.1327 0.543209 27.7643 1.38269L27.3009 2.43867C26.1185 5.13286 24.5045 7.58941 22.5022 9.74325V2.03405C22.5022 0.912498 21.5897 0 20.4682 0H14.2711C13.2535 0 12.4258 0.827836 12.4258 1.84542C12.4258 2.23401 12.5456 2.60626 12.7721 2.92163L13.2057 3.5257C13.6309 4.11773 13.8556 4.81597 13.8556 5.54494V11.1781C13.0914 10.2905 12.1609 9.08525 11.3732 7.6995C10.167 5.57732 9.30237 3.1027 8.89437 1.81642C8.5497 0.729998 7.55254 0 6.41291 0H1.98125C1.35583 0 0.780651 0.285954 0.402784 0.784534C0.0252233 1.28322 -0.0941624 1.91456 0.0754692 2.5168L0.902181 5.45088C1.40883 7.24943 2.10533 9.00028 2.97228 10.6549C3.23393 11.1544 3.85097 11.3473 4.35078 11.0856C4.85048 10.8238 5.04319 10.2066 4.78145 9.70699C3.98027 8.17765 3.33656 6.55936 2.86821 4.89705L2.06397 2.04252H6.41301C6.65842 2.04252 6.8732 2.1998 6.94744 2.43397C7.37974 3.79664 8.29888 6.42405 9.59762 8.70871C10.6632 10.5833 11.956 12.1451 12.8531 13.1251C13.3445 13.6619 14.1007 13.8387 14.7794 13.5748C15.4589 13.3108 15.8981 12.6692 15.8981 11.9403V5.54494C15.8981 4.38591 15.5407 3.2757 14.865 2.3344L14.6553 2.04252H20.4597V10.2325C20.4597 10.8317 20.7605 11.3827 21.2645 11.7066C21.7684 12.0307 22.3945 12.0755 22.9397 11.8266L23.3608 11.6344C23.5548 11.546 23.7271 11.4225 23.8732 11.2674C26.0896 8.91378 27.8721 6.21949 29.1713 3.25936L29.6348 2.20337C29.6774 2.10615 29.7735 2.04344 29.8796 2.04344H29.8799L34.2555 2.04845C34.2704 2.04845 34.293 2.04855 34.3122 2.08062C34.3315 2.11279 34.3207 2.1326 34.3138 2.14577L32.2923 5.92812C32.0512 6.37921 31.7798 6.82029 31.4859 7.23922L29.1203 10.6102C28.4042 11.6306 28.5397 12.9952 29.4424 13.8547L31.1748 15.5045C32.4508 16.7195 33.5643 18.0976 34.4843 19.6002L35.0025 20.4467C35.015 20.467 35.0529 20.529 35.0057 20.6133C34.9585 20.6975 34.8858 20.6975 34.862 20.6975H31.0845C30.5991 20.6975 30.1266 20.498 29.7883 20.15L26.011 16.2662C25.1209 15.3509 23.9913 14.7223 22.7442 14.4486C22.1853 14.3258 21.6083 14.4611 21.162 14.82C20.7157 15.179 20.4598 15.7132 20.4598 16.2859V20.1019C20.4598 20.4304 20.1926 20.6976 19.8641 20.6976C16.9369 20.6976 14.0444 19.7182 11.7193 17.9399C10.7826 17.2235 9.88919 16.4333 9.0639 15.5916C8.66908 15.189 8.02252 15.1824 7.61964 15.5773C7.21685 15.9722 7.21052 16.6189 7.60534 17.0216C8.49823 17.9323 9.46485 18.7871 10.4784 19.5623C13.1576 21.6115 16.4908 22.7401 19.864 22.7401C21.3186 22.7401 22.5022 21.5566 22.5022 20.1019V16.4913C23.2799 16.699 23.9832 17.1108 24.5467 17.6903L28.324 21.5742C29.0446 22.3151 30.0507 22.7401 31.0845 22.7401H34.862C35.6599 22.7401 36.3978 22.3077 36.7876 21.6116C37.1775 20.9157 37.161 20.0606 36.7444 19.3802Z"/>
</mask>
<path d="M36.7444 19.3802L36.2262 18.5337C35.2135 16.8795 33.9878 15.3627 32.5834 14.0253L30.8508 12.3756C30.6862 12.2187 30.6615 11.9697 30.7921 11.7835L33.1577 8.41254C33.4989 7.92642 33.8137 7.41447 34.0935 6.89097L36.115 3.10852C36.4673 2.4494 36.4485 1.67293 36.0645 1.03158C35.6808 0.390326 35.0052 0.00684304 34.2578 0.00602603L29.8822 0.0010207C29.8813 0.0010207 29.8805 0.0010207 29.8796 0.0010207C28.9629 0.0010207 28.1327 0.543209 27.7643 1.38269L27.3009 2.43867C26.1185 5.13286 24.5045 7.58941 22.5022 9.74325V2.03405C22.5022 0.912498 21.5897 0 20.4682 0H14.2711C13.2535 0 12.4258 0.827836 12.4258 1.84542C12.4258 2.23401 12.5456 2.60626 12.7721 2.92163L13.2057 3.5257C13.6309 4.11773 13.8556 4.81597 13.8556 5.54494V11.1781C13.0914 10.2905 12.1609 9.08525 11.3732 7.6995C10.167 5.57732 9.30237 3.1027 8.89437 1.81642C8.5497 0.729998 7.55254 0 6.41291 0H1.98125C1.35583 0 0.780651 0.285954 0.402784 0.784534C0.0252233 1.28322 -0.0941624 1.91456 0.0754692 2.5168L0.902181 5.45088C1.40883 7.24943 2.10533 9.00028 2.97228 10.6549C3.23393 11.1544 3.85097 11.3473 4.35078 11.0856C4.85048 10.8238 5.04319 10.2066 4.78145 9.70699C3.98027 8.17765 3.33656 6.55936 2.86821 4.89705L2.06397 2.04252H6.41301C6.65842 2.04252 6.8732 2.1998 6.94744 2.43397C7.37974 3.79664 8.29888 6.42405 9.59762 8.70871C10.6632 10.5833 11.956 12.1451 12.8531 13.1251C13.3445 13.6619 14.1007 13.8387 14.7794 13.5748C15.4589 13.3108 15.8981 12.6692 15.8981 11.9403V5.54494C15.8981 4.38591 15.5407 3.2757 14.865 2.3344L14.6553 2.04252H20.4597V10.2325C20.4597 10.8317 20.7605 11.3827 21.2645 11.7066C21.7684 12.0307 22.3945 12.0755 22.9397 11.8266L23.3608 11.6344C23.5548 11.546 23.7271 11.4225 23.8732 11.2674C26.0896 8.91378 27.8721 6.21949 29.1713 3.25936L29.6348 2.20337C29.6774 2.10615 29.7735 2.04344 29.8796 2.04344H29.8799L34.2555 2.04845C34.2704 2.04845 34.293 2.04855 34.3122 2.08062C34.3315 2.11279 34.3207 2.1326 34.3138 2.14577L32.2923 5.92812C32.0512 6.37921 31.7798 6.82029 31.4859 7.23922L29.1203 10.6102C28.4042 11.6306 28.5397 12.9952 29.4424 13.8547L31.1748 15.5045C32.4508 16.7195 33.5643 18.0976 34.4843 19.6002L35.0025 20.4467C35.015 20.467 35.0529 20.529 35.0057 20.6133C34.9585 20.6975 34.8858 20.6975 34.862 20.6975H31.0845C30.5991 20.6975 30.1266 20.498 29.7883 20.15L26.011 16.2662C25.1209 15.3509 23.9913 14.7223 22.7442 14.4486C22.1853 14.3258 21.6083 14.4611 21.162 14.82C20.7157 15.179 20.4598 15.7132 20.4598 16.2859V20.1019C20.4598 20.4304 20.1926 20.6976 19.8641 20.6976C16.9369 20.6976 14.0444 19.7182 11.7193 17.9399C10.7826 17.2235 9.88919 16.4333 9.0639 15.5916C8.66908 15.189 8.02252 15.1824 7.61964 15.5773C7.21685 15.9722 7.21052 16.6189 7.60534 17.0216C8.49823 17.9323 9.46485 18.7871 10.4784 19.5623C13.1576 21.6115 16.4908 22.7401 19.864 22.7401C21.3186 22.7401 22.5022 21.5566 22.5022 20.1019V16.4913C23.2799 16.699 23.9832 17.1108 24.5467 17.6903L28.324 21.5742C29.0446 22.3151 30.0507 22.7401 31.0845 22.7401H34.862C35.6599 22.7401 36.3978 22.3077 36.7876 21.6116C37.1775 20.9157 37.161 20.0606 36.7444 19.3802Z" fill="white"/>
<path d="M36.7444 19.3802L36.4885 19.5368L36.4885 19.5368L36.7444 19.3802ZM36.2262 18.5337L36.4821 18.377L36.4821 18.377L36.2262 18.5337ZM32.5834 14.0253L32.7903 13.8081L32.7902 13.808L32.5834 14.0253ZM30.8508 12.3756L30.6438 12.5927L30.6439 12.5928L30.8508 12.3756ZM30.7921 11.7835L30.5465 11.6112L30.5465 11.6112L30.7921 11.7835ZM33.1577 8.41254L32.9122 8.24019L32.9122 8.24021L33.1577 8.41254ZM34.0935 6.89097L34.3581 7.03239L34.3581 7.03237L34.0935 6.89097ZM36.115 3.10852L35.8504 2.96709L35.8504 2.96711L36.115 3.10852ZM36.0645 1.03158L35.8071 1.18564L35.8072 1.18568L36.0645 1.03158ZM34.2578 0.00602603L34.2575 0.306026H34.2575L34.2578 0.00602603ZM29.8822 0.0010207L29.8826 -0.298979H29.8822V0.0010207ZM27.7643 1.38269L28.039 1.50325L28.0391 1.50323L27.7643 1.38269ZM27.3009 2.43867L27.0262 2.31811V2.31811L27.3009 2.43867ZM22.5022 9.74325H22.2022V10.5066L22.7219 9.94751L22.5022 9.74325ZM12.7721 2.92163L13.0158 2.74668L13.0158 2.74661L12.7721 2.92163ZM13.2057 3.5257L12.962 3.70065L12.9621 3.70069L13.2057 3.5257ZM13.8556 11.1781L13.6282 11.3739L14.1556 11.9863V11.1781H13.8556ZM11.3732 7.6995L11.1124 7.84774L11.1124 7.84775L11.3732 7.6995ZM8.89437 1.81642L9.18033 1.72571L9.18033 1.7257L8.89437 1.81642ZM0.402784 0.784534L0.163692 0.60333L0.163603 0.603447L0.402784 0.784534ZM0.0754692 2.5168L-0.213295 2.59813L-0.213288 2.59816L0.0754692 2.5168ZM0.902181 5.45088L1.19094 5.36954L1.19094 5.36952L0.902181 5.45088ZM2.97228 10.6549L3.23803 10.5157L3.23801 10.5157L2.97228 10.6549ZM4.35078 11.0856L4.48996 11.3514L4.48998 11.3513L4.35078 11.0856ZM4.78145 9.70699L4.5157 9.84621L4.51571 9.84622L4.78145 9.70699ZM2.86821 4.89705L2.57945 4.97841L2.57945 4.97841L2.86821 4.89705ZM2.06397 2.04252V1.74252H1.66777L1.77521 2.12388L2.06397 2.04252ZM6.94744 2.43397L6.66147 2.52464L6.66149 2.52469L6.94744 2.43397ZM9.59762 8.70871L9.85843 8.56046L9.85842 8.56045L9.59762 8.70871ZM12.8531 13.1251L13.0744 12.9225L13.0744 12.9225L12.8531 13.1251ZM14.7794 13.5748L14.6708 13.2952L14.6707 13.2952L14.7794 13.5748ZM14.865 2.3344L15.1087 2.15945L15.1086 2.15938L14.865 2.3344ZM14.6553 2.04252V1.74252H14.0704L14.4117 2.21755L14.6553 2.04252ZM20.4597 2.04252H20.7597V1.74252H20.4597V2.04252ZM21.2645 11.7066L21.4268 11.4543L21.4267 11.4543L21.2645 11.7066ZM22.9397 11.8266L22.8151 11.5537L22.8151 11.5537L22.9397 11.8266ZM23.3608 11.6344L23.2363 11.3614L23.2362 11.3615L23.3608 11.6344ZM23.8732 11.2674L24.0916 11.4731L24.0916 11.4731L23.8732 11.2674ZM29.1713 3.25936L29.446 3.37993L29.446 3.37992L29.1713 3.25936ZM29.6348 2.20337L29.9095 2.32394L29.9096 2.32374L29.6348 2.20337ZM29.8799 2.04344L29.8802 1.74344H29.8799V2.04344ZM34.2555 2.04845L34.2551 2.34845H34.2555V2.04845ZM34.3122 2.08062L34.0548 2.23473L34.0549 2.23497L34.3122 2.08062ZM34.3138 2.14577L34.5784 2.28718L34.5792 2.28567L34.3138 2.14577ZM32.2923 5.92812L32.5569 6.06954L32.5569 6.06953L32.2923 5.92812ZM31.4859 7.23922L31.7315 7.41155L31.7315 7.41152L31.4859 7.23922ZM29.1203 10.6102L28.8747 10.4379L28.8747 10.4379L29.1203 10.6102ZM29.4424 13.8547L29.2355 14.072V14.072L29.4424 13.8547ZM31.1748 15.5045L30.968 15.7218L30.968 15.7218L31.1748 15.5045ZM34.4843 19.6002L34.7402 19.4435L34.7402 19.4435L34.4843 19.6002ZM35.0025 20.4467L34.7467 20.6033L34.7468 20.6035L35.0025 20.4467ZM29.7883 20.15L30.0034 19.9409L30.0033 19.9409L29.7883 20.15ZM26.011 16.2662L26.2261 16.057L26.011 16.2662ZM22.7442 14.4486L22.6798 14.7416L22.6799 14.7416L22.7442 14.4486ZM11.7193 17.9399L11.9015 17.7016H11.9015L11.7193 17.9399ZM9.0639 15.5916L9.27812 15.3816L9.27809 15.3816L9.0639 15.5916ZM7.61964 15.5773L7.40963 15.3631L7.40961 15.3631L7.61964 15.5773ZM7.60534 17.0216L7.81956 16.8116L7.81955 16.8116L7.60534 17.0216ZM10.4784 19.5623L10.6606 19.324L10.6606 19.324L10.4784 19.5623ZM22.5022 16.4913L22.5796 16.2015L22.2022 16.1007V16.4913H22.5022ZM24.5467 17.6903L24.3317 17.8995L24.3317 17.8995L24.5467 17.6903ZM28.324 21.5742L28.1089 21.7833L28.1089 21.7833L28.324 21.5742ZM36.7876 21.6116L36.5259 21.465L36.5258 21.4651L36.7876 21.6116ZM37.0003 19.2236L36.4821 18.377L35.9703 18.6903L36.4885 19.5368L37.0003 19.2236ZM36.4821 18.377C35.4558 16.7006 34.2136 15.1635 32.7903 13.8081L32.3765 14.2426C33.762 15.562 34.9713 17.0584 35.9703 18.6903L36.4821 18.377ZM32.7902 13.808L31.0577 12.1583L30.6439 12.5928L32.3765 14.2426L32.7902 13.808ZM31.0577 12.1584C31.0006 12.1039 30.9923 12.0205 31.0377 11.9558L30.5465 11.6112C30.3306 11.9189 30.3718 12.3335 30.6438 12.5927L31.0577 12.1584ZM31.0376 11.9559L33.4033 8.58487L32.9122 8.24021L30.5465 11.6112L31.0376 11.9559ZM33.4033 8.58489C33.7515 8.08883 34.0726 7.56654 34.3581 7.03239L33.8289 6.74954C33.5548 7.26239 33.2464 7.76402 32.9122 8.24019L33.4033 8.58489ZM34.3581 7.03237L36.3796 3.24992L35.8504 2.96711L33.8289 6.74956L34.3581 7.03237ZM36.3796 3.24995C36.7816 2.4979 36.7601 1.60925 36.3219 0.877469L35.8072 1.18568C36.137 1.73661 36.1531 2.40089 35.8504 2.96709L36.3796 3.24995ZM36.322 0.877511C35.8841 0.145838 35.1109 -0.293042 34.2582 -0.293974L34.2575 0.306026C34.8995 0.306728 35.4775 0.634815 35.8071 1.18564L36.322 0.877511ZM34.2582 -0.293974L29.8826 -0.298979L29.8819 0.301021L34.2575 0.306026L34.2582 -0.293974ZM29.8822 -0.298979C29.8822 -0.298979 29.8822 -0.298979 29.8822 -0.298979C29.8822 -0.298979 29.8822 -0.298979 29.8822 -0.298979C29.8822 -0.298979 29.8822 -0.298979 29.8822 -0.298979C29.8822 -0.298979 29.8822 -0.298979 29.8822 -0.298979C29.8822 -0.298979 29.8822 -0.298979 29.8822 -0.298979C29.8822 -0.298979 29.8822 -0.298979 29.8822 -0.298979C29.8822 -0.298979 29.8822 -0.298979 29.8822 -0.298979C29.8822 -0.298979 29.8822 -0.298979 29.8822 -0.298979C29.8822 -0.298979 29.8822 -0.298979 29.8822 -0.298979C29.8822 -0.298979 29.8822 -0.298979 29.8822 -0.298979C29.8822 -0.298979 29.8822 -0.298979 29.8822 -0.298979C29.8822 -0.298979 29.8822 -0.298979 29.8822 -0.298979C29.8822 -0.298979 29.8822 -0.298979 29.8822 -0.298979C29.8822 -0.298979 29.8822 -0.298979 29.8822 -0.298979C29.8822 -0.298979 29.8822 -0.298979 29.8821 -0.298979C29.8821 -0.298979 29.8821 -0.298979 29.8821 -0.298979C29.8821 -0.298979 29.8821 -0.298979 29.8821 -0.298979C29.8821 -0.298979 29.8821 -0.298979 29.8821 -0.298979C29.8821 -0.298979 29.8821 -0.298979 29.8821 -0.298979C29.8821 -0.298979 29.8821 -0.298979 29.8821 -0.298979C29.8821 -0.298979 29.8821 -0.298979 29.8821 -0.298979C29.8821 -0.298979 29.8821 -0.298979 29.8821 -0.298979C29.8821 -0.298979 29.8821 -0.298979 29.8821 -0.298979C29.8821 -0.298979 29.8821 -0.298979 29.8821 -0.298979C29.8821 -0.298979 29.8821 -0.298979 29.8821 -0.298979C29.8821 -0.298979 29.8821 -0.298979 29.8821 -0.298979C29.8821 -0.298979 29.8821 -0.298979 29.8821 -0.298979C29.8821 -0.298979 29.8821 -0.298979 29.8821 -0.298979C29.8821 -0.298979 29.8821 -0.298979 29.8821 -0.298979C29.8821 -0.298979 29.8821 -0.298979 29.8821 -0.298979C29.8821 -0.298979 29.8821 -0.298979 29.8821 -0.298979C29.8821 -0.298979 29.8821 -0.298979 29.8821 -0.298979C29.8821 -0.298979 29.8821 -0.298979 29.8821 -0.298979C29.882 -0.298979 29.882 -0.298979 29.882 -0.298979C29.882 -0.298979 29.882 -0.298979 29.882 -0.298979C29.882 -0.298979 29.882 -0.298979 29.882 -0.298979C29.882 -0.298979 29.882 -0.298979 29.882 -0.298979C29.882 -0.298979 29.882 -0.298979 29.882 -0.298979C29.882 -0.298979 29.882 -0.298979 29.882 -0.298979C29.882 -0.298979 29.882 -0.298979 29.882 -0.298979C29.882 -0.298979 29.882 -0.298979 29.882 -0.298979C29.882 -0.298979 29.882 -0.298979 29.882 -0.298979C29.882 -0.298979 29.882 -0.298979 29.882 -0.298979C29.882 -0.298979 29.882 -0.298979 29.882 -0.298979C29.882 -0.298979 29.882 -0.298979 29.882 -0.298979C29.882 -0.298979 29.882 -0.298979 29.882 -0.298979C29.882 -0.298979 29.882 -0.298979 29.882 -0.298979C29.882 -0.298979 29.882 -0.298979 29.882 -0.298979C29.882 -0.298979 29.882 -0.298979 29.882 -0.298979C29.882 -0.298979 29.882 -0.298979 29.882 -0.298979C29.882 -0.298979 29.882 -0.298979 29.882 -0.298979C29.882 -0.298979 29.882 -0.298979 29.882 -0.298979C29.882 -0.298979 29.8819 -0.298979 29.8819 -0.298979C29.8819 -0.298979 29.8819 -0.298979 29.8819 -0.298979C29.8819 -0.298979 29.8819 -0.298979 29.8819 -0.298979C29.8819 -0.298979 29.8819 -0.298979 29.8819 -0.298979C29.8819 -0.298979 29.8819 -0.298979 29.8819 -0.298979C29.8819 -0.298979 29.8819 -0.298979 29.8819 -0.298979C29.8819 -0.298979 29.8819 -0.298979 29.8819 -0.298979C29.8819 -0.298979 29.8819 -0.298979 29.8819 -0.298979C29.8819 -0.298979 29.8819 -0.298979 29.8819 -0.298979C29.8819 -0.298979 29.8819 -0.298979 29.8819 -0.298979C29.8819 -0.298979 29.8819 -0.298979 29.8819 -0.298979C29.8819 -0.298979 29.8819 -0.298979 29.8819 -0.298979C29.8819 -0.298979 29.8819 -0.298979 29.8819 -0.298979C29.8819 -0.298979 29.8819 -0.298979 29.8819 -0.298979C29.8819 -0.298979 29.8819 -0.298979 29.8819 -0.298979C29.8819 -0.298979 29.8819 -0.298979 29.8819 -0.298979C29.8819 -0.298979 29.8819 -0.298979 29.8819 -0.298979C29.8819 -0.298979 29.8819 -0.298979 29.8819 -0.298979C29.8819 -0.298979 29.8819 -0.298979 29.8819 -0.298979C29.8818 -0.298979 29.8818 -0.298979 29.8818 -0.298979C29.8818 -0.298979 29.8818 -0.298979 29.8818 -0.298979C29.8818 -0.298979 29.8818 -0.298979 29.8818 -0.298979C29.8818 -0.298979 29.8818 -0.298979 29.8818 -0.298979C29.8818 -0.298979 29.8818 -0.298979 29.8818 -0.298979C29.8818 -0.298979 29.8818 -0.298979 29.8818 -0.298979C29.8818 -0.298979 29.8818 -0.298979 29.8818 -0.298979C29.8818 -0.298979 29.8818 -0.298979 29.8818 -0.298979C29.8818 -0.298979 29.8818 -0.298979 29.8818 -0.298979C29.8818 -0.298979 29.8818 -0.298979 29.8818 -0.298979C29.8818 -0.298979 29.8818 -0.298979 29.8818 -0.298979C29.8818 -0.298979 29.8818 -0.298979 29.8818 -0.298979C29.8818 -0.298979 29.8818 -0.298979 29.8818 -0.298979C29.8818 -0.298979 29.8818 -0.298979 29.8818 -0.298979C29.8818 -0.298979 29.8818 -0.298979 29.8818 -0.298979C29.8818 -0.298979 29.8818 -0.298979 29.8818 -0.298979C29.8818 -0.298979 29.8818 -0.298979 29.8818 -0.298979C29.8818 -0.298979 29.8818 -0.298979 29.8818 -0.298979C29.8818 -0.298979 29.8818 -0.298979 29.8818 -0.298979C29.8818 -0.298979 29.8818 -0.298979 29.8817 -0.298979C29.8817 -0.298979 29.8817 -0.298979 29.8817 -0.298979C29.8817 -0.298979 29.8817 -0.298979 29.8817 -0.298979C29.8817 -0.298979 29.8817 -0.298979 29.8817 -0.298979C29.8817 -0.298979 29.8817 -0.298979 29.8817 -0.298979C29.8817 -0.298979 29.8817 -0.298979 29.8817 -0.298979C29.8817 -0.298979 29.8817 -0.298979 29.8817 -0.298979C29.8817 -0.298979 29.8817 -0.298979 29.8817 -0.298979C29.8817 -0.298979 29.8817 -0.298979 29.8817 -0.298979C29.8817 -0.298979 29.8817 -0.298979 29.8817 -0.298979C29.8817 -0.298979 29.8817 -0.298979 29.8817 -0.298979C29.8817 -0.298979 29.8817 -0.298979 29.8817 -0.298979C29.8817 -0.298979 29.8817 -0.298979 29.8817 -0.298979C29.8817 -0.298979 29.8817 -0.298979 29.8817 -0.298979C29.8817 -0.298979 29.8817 -0.298979 29.8817 -0.298979C29.8817 -0.298979 29.8817 -0.298979 29.8817 -0.298979C29.8817 -0.298979 29.8817 -0.298979 29.8817 -0.298979C29.8817 -0.298979 29.8817 -0.298979 29.8817 -0.298979C29.8817 -0.298979 29.8817 -0.298979 29.8817 -0.298979C29.8817 -0.298979 29.8817 -0.298979 29.8816 -0.298979C29.8816 -0.298979 29.8816 -0.298979 29.8816 -0.298979C29.8816 -0.298979 29.8816 -0.298979 29.8816 -0.298979C29.8816 -0.298979 29.8816 -0.298979 29.8816 -0.298979C29.8816 -0.298979 29.8816 -0.298979 29.8816 -0.298979C29.8816 -0.298979 29.8816 -0.298979 29.8816 -0.298979C29.8816 -0.298979 29.8816 -0.298979 29.8816 -0.298979C29.8816 -0.298979 29.8816 -0.298979 29.8816 -0.298979C29.8816 -0.298979 29.8816 -0.298979 29.8816 -0.298979C29.8816 -0.298979 29.8816 -0.298979 29.8816 -0.298979C29.8816 -0.298979 29.8816 -0.298979 29.8816 -0.298979C29.8816 -0.298979 29.8816 -0.298979 29.8816 -0.298979C29.8816 -0.298979 29.8816 -0.298979 29.8816 -0.298979C29.8816 -0.298979 29.8816 -0.298979 29.8816 -0.298979C29.8816 -0.298979 29.8816 -0.298979 29.8816 -0.298979C29.8816 -0.298979 29.8816 -0.298979 29.8816 -0.298979C29.8816 -0.298979 29.8816 -0.298979 29.8816 -0.298979C29.8816 -0.298979 29.8816 -0.298979 29.8816 -0.298979C29.8816 -0.298979 29.8816 -0.298979 29.8816 -0.298979C29.8816 -0.298979 29.8816 -0.298979 29.8815 -0.298979C29.8815 -0.298979 29.8815 -0.298979 29.8815 -0.298979C29.8815 -0.298979 29.8815 -0.298979 29.8815 -0.298979C29.8815 -0.298979 29.8815 -0.298979 29.8815 -0.298979C29.8815 -0.298979 29.8815 -0.298979 29.8815 -0.298979C29.8815 -0.298979 29.8815 -0.298979 29.8815 -0.298979C29.8815 -0.298979 29.8815 -0.298979 29.8815 -0.298979C29.8815 -0.298979 29.8815 -0.298979 29.8815 -0.298979C29.8815 -0.298979 29.8815 -0.298979 29.8815 -0.298979C29.8815 -0.298979 29.8815 -0.298979 29.8815 -0.298979C29.8815 -0.298979 29.8815 -0.298979 29.8815 -0.298979C29.8815 -0.298979 29.8815 -0.298979 29.8815 -0.298979C29.8815 -0.298979 29.8815 -0.298979 29.8815 -0.298979C29.8815 -0.298979 29.8815 -0.298979 29.8815 -0.298979C29.8815 -0.298979 29.8815 -0.298979 29.8815 -0.298979C29.8815 -0.298979 29.8815 -0.298979 29.8815 -0.298979C29.8815 -0.298979 29.8815 -0.298979 29.8815 -0.298979C29.8815 -0.298979 29.8815 -0.298979 29.8815 -0.298979C29.8815 -0.298979 29.8815 -0.298979 29.8815 -0.298979C29.8815 -0.298979 29.8815 -0.298979 29.8815 -0.298979C29.8815 -0.298979 29.8814 -0.298979 29.8814 -0.298979C29.8814 -0.298979 29.8814 -0.298979 29.8814 -0.298979C29.8814 -0.298979 29.8814 -0.298979 29.8814 -0.298979C29.8814 -0.298979 29.8814 -0.298979 29.8814 -0.298979C29.8814 -0.298979 29.8814 -0.298979 29.8814 -0.298979C29.8814 -0.298979 29.8814 -0.298979 29.8814 -0.298979C29.8814 -0.298979 29.8814 -0.298979 29.8814 -0.298979C29.8814 -0.298979 29.8814 -0.298979 29.8814 -0.298979C29.8814 -0.298979 29.8814 -0.298979 29.8814 -0.298979C29.8814 -0.298979 29.8814 -0.298979 29.8814 -0.298979C29.8814 -0.298979 29.8814 -0.298979 29.8814 -0.298979C29.8814 -0.298979 29.8814 -0.298979 29.8814 -0.298979C29.8814 -0.298979 29.8814 -0.298979 29.8814 -0.298979C29.8814 -0.298979 29.8814 -0.298979 29.8814 -0.298979C29.8814 -0.298979 29.8814 -0.298979 29.8814 -0.298979C29.8814 -0.298979 29.8814 -0.298979 29.8814 -0.298979C29.8814 -0.298979 29.8814 -0.298979 29.8814 -0.298979C29.8814 -0.298979 29.8814 -0.298979 29.8814 -0.298979C29.8814 -0.298979 29.8814 -0.298979 29.8814 -0.298979C29.8814 -0.298979 29.8814 -0.298979 29.8813 -0.298979C29.8813 -0.298979 29.8813 -0.298979 29.8813 -0.298979C29.8813 -0.298979 29.8813 -0.298979 29.8813 -0.298979C29.8813 -0.298979 29.8813 -0.298979 29.8813 -0.298979C29.8813 -0.298979 29.8813 -0.298979 29.8813 -0.298979C29.8813 -0.298979 29.8813 -0.298979 29.8813 -0.298979C29.8813 -0.298979 29.8813 -0.298979 29.8813 -0.298979C29.8813 -0.298979 29.8813 -0.298979 29.8813 -0.298979C29.8813 -0.298979 29.8813 -0.298979 29.8813 -0.298979C29.8813 -0.298979 29.8813 -0.298979 29.8813 -0.298979C29.8813 -0.298979 29.8813 -0.298979 29.8813 -0.298979C29.8813 -0.298979 29.8813 -0.298979 29.8813 -0.298979C29.8813 -0.298979 29.8813 -0.298979 29.8813 -0.298979C29.8813 -0.298979 29.8813 -0.298979 29.8813 -0.298979C29.8813 -0.298979 29.8813 -0.298979 29.8813 -0.298979C29.8813 -0.298979 29.8813 -0.298979 29.8813 -0.298979C29.8813 -0.298979 29.8813 -0.298979 29.8813 -0.298979C29.8813 -0.298979 29.8813 -0.298979 29.8813 -0.298979C29.8813 -0.298979 29.8813 -0.298979 29.8813 -0.298979C29.8813 -0.298979 29.8813 -0.298979 29.8813 -0.298979C29.8813 -0.298979 29.8813 -0.298979 29.8812 -0.298979C29.8812 -0.298979 29.8812 -0.298979 29.8812 -0.298979C29.8812 -0.298979 29.8812 -0.298979 29.8812 -0.298979C29.8812 -0.298979 29.8812 -0.298979 29.8812 -0.298979C29.8812 -0.298979 29.8812 -0.298979 29.8812 -0.298979C29.8812 -0.298979 29.8812 -0.298979 29.8812 -0.298979C29.8812 -0.298979 29.8812 -0.298979 29.8812 -0.298979C29.8812 -0.298979 29.8812 -0.298979 29.8812 -0.298979C29.8812 -0.298979 29.8812 -0.298979 29.8812 -0.298979C29.8812 -0.298979 29.8812 -0.298979 29.8812 -0.298979C29.8812 -0.298979 29.8812 -0.298979 29.8812 -0.298979C29.8812 -0.298979 29.8812 -0.298979 29.8812 -0.298979C29.8812 -0.298979 29.8812 -0.298979 29.8812 -0.298979C29.8812 -0.298979 29.8812 -0.298979 29.8812 -0.298979C29.8812 -0.298979 29.8812 -0.298979 29.8812 -0.298979C29.8812 -0.298979 29.8812 -0.298979 29.8812 -0.298979C29.8812 -0.298979 29.8812 -0.298979 29.8812 -0.298979C29.8812 -0.298979 29.8812 -0.298979 29.8812 -0.298979C29.8812 -0.298979 29.8812 -0.298979 29.8812 -0.298979C29.8812 -0.298979 29.8812 -0.298979 29.8812 -0.298979C29.8811 -0.298979 29.8811 -0.298979 29.8811 -0.298979C29.8811 -0.298979 29.8811 -0.298979 29.8811 -0.298979C29.8811 -0.298979 29.8811 -0.298979 29.8811 -0.298979C29.8811 -0.298979 29.8811 -0.298979 29.8811 -0.298979C29.8811 -0.298979 29.8811 -0.298979 29.8811 -0.298979C29.8811 -0.298979 29.8811 -0.298979 29.8811 -0.298979C29.8811 -0.298979 29.8811 -0.298979 29.8811 -0.298979C29.8811 -0.298979 29.8811 -0.298979 29.8811 -0.298979C29.8811 -0.298979 29.8811 -0.298979 29.8811 -0.298979C29.8811 -0.298979 29.8811 -0.298979 29.8811 -0.298979C29.8811 -0.298979 29.8811 -0.298979 29.8811 -0.298979C29.8811 -0.298979 29.8811 -0.298979 29.8811 -0.298979C29.8811 -0.298979 29.8811 -0.298979 29.8811 -0.298979C29.8811 -0.298979 29.8811 -0.298979 29.8811 -0.298979C29.8811 -0.298979 29.8811 -0.298979 29.8811 -0.298979C29.8811 -0.298979 29.8811 -0.298979 29.8811 -0.298979C29.8811 -0.298979 29.8811 -0.298979 29.8811 -0.298979C29.8811 -0.298979 29.8811 -0.298979 29.8811 -0.298979C29.8811 -0.298979 29.8811 -0.298979 29.8811 -0.298979C29.8811 -0.298979 29.8811 -0.298979 29.8811 -0.298979C29.881 -0.298979 29.881 -0.298979 29.881 -0.298979C29.881 -0.298979 29.881 -0.298979 29.881 -0.298979C29.881 -0.298979 29.881 -0.298979 29.881 -0.298979C29.881 -0.298979 29.881 -0.298979 29.881 -0.298979C29.881 -0.298979 29.881 -0.298979 29.881 -0.298979C29.881 -0.298979 29.881 -0.298979 29.881 -0.298979C29.881 -0.298979 29.881 -0.298979 29.881 -0.298979C29.881 -0.298979 29.881 -0.298979 29.881 -0.298979C29.881 -0.298979 29.881 -0.298979 29.881 -0.298979C29.881 -0.298979 29.881 -0.298979 29.881 -0.298979C29.881 -0.298979 29.881 -0.298979 29.881 -0.298979C29.881 -0.298979 29.881 -0.298979 29.881 -0.298979C29.881 -0.298979 29.881 -0.298979 29.881 -0.298979C29.881 -0.298979 29.881 -0.298979 29.881 -0.298979C29.881 -0.298979 29.881 -0.298979 29.881 -0.298979C29.881 -0.298979 29.881 -0.298979 29.881 -0.298979C29.881 -0.298979 29.881 -0.298979 29.881 -0.298979C29.881 -0.298979 29.881 -0.298979 29.881 -0.298979C29.881 -0.298979 29.881 -0.298979 29.881 -0.298979C29.881 -0.298979 29.881 -0.298979 29.8809 -0.298979C29.8809 -0.298979 29.8809 -0.298979 29.8809 -0.298979C29.8809 -0.298979 29.8809 -0.298979 29.8809 -0.298979C29.8809 -0.298979 29.8809 -0.298979 29.8809 -0.298979C29.8809 -0.298979 29.8809 -0.298979 29.8809 -0.298979C29.8809 -0.298979 29.8809 -0.298979 29.8809 -0.298979C29.8809 -0.298979 29.8809 -0.298979 29.8809 -0.298979C29.8809 -0.298979 29.8809 -0.298979 29.8809 -0.298979C29.8809 -0.298979 29.8809 -0.298979 29.8809 -0.298979C29.8809 -0.298979 29.8809 -0.298979 29.8809 -0.298979C29.8809 -0.298979 29.8809 -0.298979 29.8809 -0.298979C29.8809 -0.298979 29.8809 -0.298979 29.8809 -0.298979C29.8809 -0.298979 29.8809 -0.298979 29.8809 -0.298979C29.8809 -0.298979 29.8809 -0.298979 29.8809 -0.298979C29.8809 -0.298979 29.8809 -0.298979 29.8809 -0.298979C29.8809 -0.298979 29.8809 -0.298979 29.8809 -0.298979C29.8809 -0.298979 29.8809 -0.298979 29.8809 -0.298979C29.8809 -0.298979 29.8809 -0.298979 29.8809 -0.298979C29.8809 -0.298979 29.8809 -0.298979 29.8809 -0.298979C29.8809 -0.298979 29.8809 -0.298979 29.8809 -0.298979C29.8808 -0.298979 29.8808 -0.298979 29.8808 -0.298979C29.8808 -0.298979 29.8808 -0.298979 29.8808 -0.298979C29.8808 -0.298979 29.8808 -0.298979 29.8808 -0.298979C29.8808 -0.298979 29.8808 -0.298979 29.8808 -0.298979C29.8808 -0.298979 29.8808 -0.298979 29.8808 -0.298979C29.8808 -0.298979 29.8808 -0.298979 29.8808 -0.298979C29.8808 -0.298979 29.8808 -0.298979 29.8808 -0.298979C29.8808 -0.298979 29.8808 -0.298979 29.8808 -0.298979C29.8808 -0.298979 29.8808 -0.298979 29.8808 -0.298979C29.8808 -0.298979 29.8808 -0.298979 29.8808 -0.298979C29.8808 -0.298979 29.8808 -0.298979 29.8808 -0.298979C29.8808 -0.298979 29.8808 -0.298979 29.8808 -0.298979C29.8808 -0.298979 29.8808 -0.298979 29.8808 -0.298979C29.8808 -0.298979 29.8808 -0.298979 29.8808 -0.298979C29.8808 -0.298979 29.8808 -0.298979 29.8808 -0.298979C29.8808 -0.298979 29.8808 -0.298979 29.8808 -0.298979C29.8808 -0.298979 29.8808 -0.298979 29.8808 -0.298979C29.8808 -0.298979 29.8808 -0.298979 29.8808 -0.298979C29.8808 -0.298979 29.8808 -0.298979 29.8808 -0.298979C29.8808 -0.298979 29.8808 -0.298979 29.8808 -0.298979C29.8807 -0.298979 29.8807 -0.298979 29.8807 -0.298979C29.8807 -0.298979 29.8807 -0.298979 29.8807 -0.298979C29.8807 -0.298979 29.8807 -0.298979 29.8807 -0.298979C29.8807 -0.298979 29.8807 -0.298979 29.8807 -0.298979C29.8807 -0.298979 29.8807 -0.298979 29.8807 -0.298979C29.8807 -0.298979 29.8807 -0.298979 29.8807 -0.298979C29.8807 -0.298979 29.8807 -0.298979 29.8807 -0.298979C29.8807 -0.298979 29.8807 -0.298979 29.8807 -0.298979C29.8807 -0.298979 29.8807 -0.298979 29.8807 -0.298979C29.8807 -0.298979 29.8807 -0.298979 29.8807 -0.298979C29.8807 -0.298979 29.8807 -0.298979 29.8807 -0.298979C29.8807 -0.298979 29.8807 -0.298979 29.8807 -0.298979C29.8807 -0.298979 29.8807 -0.298979 29.8807 -0.298979C29.8807 -0.298979 29.8807 -0.298979 29.8807 -0.298979C29.8807 -0.298979 29.8807 -0.298979 29.8807 -0.298979C29.8807 -0.298979 29.8807 -0.298979 29.8807 -0.298979C29.8807 -0.298979 29.8807 -0.298979 29.8807 -0.298979C29.8807 -0.298979 29.8807 -0.298979 29.8807 -0.298979C29.8807 -0.298979 29.8807 -0.298979 29.8807 -0.298979C29.8807 -0.298979 29.8806 -0.298979 29.8806 -0.298979C29.8806 -0.298979 29.8806 -0.298979 29.8806 -0.298979C29.8806 -0.298979 29.8806 -0.298979 29.8806 -0.298979C29.8806 -0.298979 29.8806 -0.298979 29.8806 -0.298979C29.8806 -0.298979 29.8806 -0.298979 29.8806 -0.298979C29.8806 -0.298979 29.8806 -0.298979 29.8806 -0.298979C29.8806 -0.298979 29.8806 -0.298979 29.8806 -0.298979C29.8806 -0.298979 29.8806 -0.298979 29.8806 -0.298979C29.8806 -0.298979 29.8806 -0.298979 29.8806 -0.298979C29.8806 -0.298979 29.8806 -0.298979 29.8806 -0.298979C29.8806 -0.298979 29.8806 -0.298979 29.8806 -0.298979C29.8806 -0.298979 29.8806 -0.298979 29.8806 -0.298979C29.8806 -0.298979 29.8806 -0.298979 29.8806 -0.298979C29.8806 -0.298979 29.8806 -0.298979 29.8806 -0.298979C29.8806 -0.298979 29.8806 -0.298979 29.8806 -0.298979C29.8806 -0.298979 29.8806 -0.298979 29.8806 -0.298979C29.8806 -0.298979 29.8806 -0.298979 29.8806 -0.298979C29.8806 -0.298979 29.8806 -0.298979 29.8806 -0.298979C29.8806 -0.298979 29.8806 -0.298979 29.8806 -0.298979C29.8806 -0.298979 29.8806 -0.298979 29.8806 -0.298979C29.8806 -0.298979 29.8805 -0.298979 29.8805 -0.298979C29.8805 -0.298979 29.8805 -0.298979 29.8805 -0.298979C29.8805 -0.298979 29.8805 -0.298979 29.8805 -0.298979C29.8805 -0.298979 29.8805 -0.298979 29.8805 -0.298979C29.8805 -0.298979 29.8805 -0.298979 29.8805 -0.298979C29.8805 -0.298979 29.8805 -0.298979 29.8805 -0.298979C29.8805 -0.298979 29.8805 -0.298979 29.8805 -0.298979C29.8805 -0.298979 29.8805 -0.298979 29.8805 -0.298979C29.8805 -0.298979 29.8805 -0.298979 29.8805 -0.298979C29.8805 -0.298979 29.8805 -0.298979 29.8805 -0.298979C29.8805 -0.298979 29.8805 -0.298979 29.8805 -0.298979C29.8805 -0.298979 29.8805 -0.298979 29.8805 -0.298979C29.8805 -0.298979 29.8805 -0.298979 29.8805 -0.298979C29.8805 -0.298979 29.8805 -0.298979 29.8805 -0.298979C29.8805 -0.298979 29.8805 -0.298979 29.8805 -0.298979C29.8805 -0.298979 29.8805 -0.298979 29.8805 -0.298979C29.8805 -0.298979 29.8805 -0.298979 29.8805 -0.298979C29.8805 -0.298979 29.8805 -0.298979 29.8805 -0.298979C29.8805 -0.298979 29.8805 -0.298979 29.8805 -0.298979C29.8805 -0.298979 29.8805 -0.298979 29.8804 -0.298979C29.8804 -0.298979 29.8804 -0.298979 29.8804 -0.298979C29.8804 -0.298979 29.8804 -0.298979 29.8804 -0.298979C29.8804 -0.298979 29.8804 -0.298979 29.8804 -0.298979C29.8804 -0.298979 29.8804 -0.298979 29.8804 -0.298979C29.8804 -0.298979 29.8804 -0.298979 29.8804 -0.298979C29.8804 -0.298979 29.8804 -0.298979 29.8804 -0.298979C29.8804 -0.298979 29.8804 -0.298979 29.8804 -0.298979C29.8804 -0.298979 29.8804 -0.298979 29.8804 -0.298979C29.8804 -0.298979 29.8804 -0.298979 29.8804 -0.298979C29.8804 -0.298979 29.8804 -0.298979 29.8804 -0.298979C29.8804 -0.298979 29.8804 -0.298979 29.8804 -0.298979C29.8804 -0.298979 29.8804 -0.298979 29.8804 -0.298979C29.8804 -0.298979 29.8804 -0.298979 29.8804 -0.298979C29.8804 -0.298979 29.8804 -0.298979 29.8804 -0.298979C29.8804 -0.298979 29.8804 -0.298979 29.8804 -0.298979C29.8804 -0.298979 29.8804 -0.298979 29.8804 -0.298979C29.8804 -0.298979 29.8804 -0.298979 29.8804 -0.298979C29.8804 -0.298979 29.8804 -0.298979 29.8804 -0.298979C29.8804 -0.298979 29.8804 -0.298979 29.8804 -0.298979C29.8804 -0.298979 29.8803 -0.298979 29.8803 -0.298979C29.8803 -0.298979 29.8803 -0.298979 29.8803 -0.298979C29.8803 -0.298979 29.8803 -0.298979 29.8803 -0.298979C29.8803 -0.298979 29.8803 -0.298979 29.8803 -0.298979C29.8803 -0.298979 29.8803 -0.298979 29.8803 -0.298979C29.8803 -0.298979 29.8803 -0.298979 29.8803 -0.298979C29.8803 -0.298979 29.8803 -0.298979 29.8803 -0.298979C29.8803 -0.298979 29.8803 -0.298979 29.8803 -0.298979C29.8803 -0.298979 29.8803 -0.298979 29.8803 -0.298979C29.8803 -0.298979 29.8803 -0.298979 29.8803 -0.298979C29.8803 -0.298979 29.8803 -0.298979 29.8803 -0.298979C29.8803 -0.298979 29.8803 -0.298979 29.8803 -0.298979C29.8803 -0.298979 29.8803 -0.298979 29.8803 -0.298979C29.8803 -0.298979 29.8803 -0.298979 29.8803 -0.298979C29.8803 -0.298979 29.8803 -0.298979 29.8803 -0.298979C29.8803 -0.298979 29.8803 -0.298979 29.8803 -0.298979C29.8803 -0.298979 29.8803 -0.298979 29.8803 -0.298979C29.8803 -0.298979 29.8803 -0.298979 29.8803 -0.298979C29.8803 -0.298979 29.8803 -0.298979 29.8803 -0.298979C29.8803 -0.298979 29.8803 -0.298979 29.8802 -0.298979C29.8802 -0.298979 29.8802 -0.298979 29.8802 -0.298979C29.8802 -0.298979 29.8802 -0.298979 29.8802 -0.298979C29.8802 -0.298979 29.8802 -0.298979 29.8802 -0.298979C29.8802 -0.298979 29.8802 -0.298979 29.8802 -0.298979C29.8802 -0.298979 29.8802 -0.298979 29.8802 -0.298979C29.8802 -0.298979 29.8802 -0.298979 29.8802 -0.298979C29.8802 -0.298979 29.8802 -0.298979 29.8802 -0.298979C29.8802 -0.298979 29.8802 -0.298979 29.8802 -0.298979C29.8802 -0.298979 29.8802 -0.298979 29.8802 -0.298979C29.8802 -0.298979 29.8802 -0.298979 29.8802 -0.298979C29.8802 -0.298979 29.8802 -0.298979 29.8802 -0.298979C29.8802 -0.298979 29.8802 -0.298979 29.8802 -0.298979C29.8802 -0.298979 29.8802 -0.298979 29.8802 -0.298979C29.8802 -0.298979 29.8802 -0.298979 29.8802 -0.298979C29.8802 -0.298979 29.8802 -0.298979 29.8802 -0.298979C29.8802 -0.298979 29.8802 -0.298979 29.8802 -0.298979C29.8802 -0.298979 29.8802 -0.298979 29.8802 -0.298979C29.8802 -0.298979 29.8802 -0.298979 29.8802 -0.298979C29.8802 -0.298979 29.8802 -0.298979 29.8802 -0.298979C29.8801 -0.298979 29.8801 -0.298979 29.8801 -0.298979C29.8801 -0.298979 29.8801 -0.298979 29.8801 -0.298979C29.8801 -0.298979 29.8801 -0.298979 29.8801 -0.298979C29.8801 -0.298979 29.8801 -0.298979 29.8801 -0.298979C29.8801 -0.298979 29.8801 -0.298979 29.8801 -0.298979C29.8801 -0.298979 29.8801 -0.298979 29.8801 -0.298979C29.8801 -0.298979 29.8801 -0.298979 29.8801 -0.298979C29.8801 -0.298979 29.8801 -0.298979 29.8801 -0.298979C29.8801 -0.298979 29.8801 -0.298979 29.8801 -0.298979C29.8801 -0.298979 29.8801 -0.298979 29.8801 -0.298979C29.8801 -0.298979 29.8801 -0.298979 29.8801 -0.298979C29.8801 -0.298979 29.8801 -0.298979 29.8801 -0.298979C29.8801 -0.298979 29.8801 -0.298979 29.8801 -0.298979C29.8801 -0.298979 29.8801 -0.298979 29.8801 -0.298979C29.8801 -0.298979 29.8801 -0.298979 29.8801 -0.298979C29.8801 -0.298979 29.8801 -0.298979 29.8801 -0.298979C29.8801 -0.298979 29.8801 -0.298979 29.8801 -0.298979C29.8801 -0.298979 29.8801 -0.298979 29.8801 -0.298979C29.8801 -0.298979 29.8801 -0.298979 29.8801 -0.298979C29.8801 -0.298979 29.88 -0.298979 29.88 -0.298979C29.88 -0.298979 29.88 -0.298979 29.88 -0.298979C29.88 -0.298979 29.88 -0.298979 29.88 -0.298979C29.88 -0.298979 29.88 -0.298979 29.88 -0.298979C29.88 -0.298979 29.88 -0.298979 29.88 -0.298979C29.88 -0.298979 29.88 -0.298979 29.88 -0.298979C29.88 -0.298979 29.88 -0.298979 29.88 -0.298979C29.88 -0.298979 29.88 -0.298979 29.88 -0.298979C29.88 -0.298979 29.88 -0.298979 29.88 -0.298979C29.88 -0.298979 29.88 -0.298979 29.88 -0.298979C29.88 -0.298979 29.88 -0.298979 29.88 -0.298979C29.88 -0.298979 29.88 -0.298979 29.88 -0.298979C29.88 -0.298979 29.88 -0.298979 29.88 -0.298979C29.88 -0.298979 29.88 -0.298979 29.88 -0.298979C29.88 -0.298979 29.88 -0.298979 29.88 -0.298979C29.88 -0.298979 29.88 -0.298979 29.88 -0.298979C29.88 -0.298979 29.88 -0.298979 29.88 -0.298979C29.88 -0.298979 29.88 -0.298979 29.88 -0.298979C29.88 -0.298979 29.88 -0.298979 29.88 -0.298979C29.88 -0.298979 29.8799 -0.298979 29.8799 -0.298979C29.8799 -0.298979 29.8799 -0.298979 29.8799 -0.298979C29.8799 -0.298979 29.8799 -0.298979 29.8799 -0.298979C29.8799 -0.298979 29.8799 -0.298979 29.8799 -0.298979C29.8799 -0.298979 29.8799 -0.298979 29.8799 -0.298979C29.8799 -0.298979 29.8799 -0.298979 29.8799 -0.298979C29.8799 -0.298979 29.8799 -0.298979 29.8799 -0.298979C29.8799 -0.298979 29.8799 -0.298979 29.8799 -0.298979C29.8799 -0.298979 29.8799 -0.298979 29.8799 -0.298979C29.8799 -0.298979 29.8799 -0.298979 29.8799 -0.298979C29.8799 -0.298979 29.8799 -0.298979 29.8799 -0.298979C29.8799 -0.298979 29.8799 -0.298979 29.8799 -0.298979C29.8799 -0.298979 29.8799 -0.298979 29.8799 -0.298979C29.8799 -0.298979 29.8799 -0.298979 29.8799 -0.298979C29.8799 -0.298979 29.8799 -0.298979 29.8799 -0.298979C29.8799 -0.298979 29.8799 -0.298979 29.8799 -0.298979C29.8799 -0.298979 29.8799 -0.298979 29.8799 -0.298979C29.8799 -0.298979 29.8799 -0.298979 29.8799 -0.298979C29.8799 -0.298979 29.8799 -0.298979 29.8799 -0.298979C29.8799 -0.298979 29.8799 -0.298979 29.8798 -0.298979C29.8798 -0.298979 29.8798 -0.298979 29.8798 -0.298979C29.8798 -0.298979 29.8798 -0.298979 29.8798 -0.298979C29.8798 -0.298979 29.8798 -0.298979 29.8798 -0.298979C29.8798 -0.298979 29.8798 -0.298979 29.8798 -0.298979C29.8798 -0.298979 29.8798 -0.298979 29.8798 -0.298979C29.8798 -0.298979 29.8798 -0.298979 29.8798 -0.298979C29.8798 -0.298979 29.8798 -0.298979 29.8798 -0.298979C29.8798 -0.298979 29.8798 -0.298979 29.8798 -0.298979C29.8798 -0.298979 29.8798 -0.298979 29.8798 -0.298979C29.8798 -0.298979 29.8798 -0.298979 29.8798 -0.298979C29.8798 -0.298979 29.8798 -0.298979 29.8798 -0.298979C29.8798 -0.298979 29.8798 -0.298979 29.8798 -0.298979C29.8798 -0.298979 29.8798 -0.298979 29.8798 -0.298979C29.8798 -0.298979 29.8798 -0.298979 29.8798 -0.298979C29.8798 -0.298979 29.8798 -0.298979 29.8798 -0.298979C29.8798 -0.298979 29.8798 -0.298979 29.8798 -0.298979C29.8798 -0.298979 29.8798 -0.298979 29.8798 -0.298979C29.8798 -0.298979 29.8798 -0.298979 29.8798 -0.298979C29.8798 -0.298979 29.8797 -0.298979 29.8797 -0.298979C29.8797 -0.298979 29.8797 -0.298979 29.8797 -0.298979C29.8797 -0.298979 29.8797 -0.298979 29.8797 -0.298979C29.8797 -0.298979 29.8797 -0.298979 29.8797 -0.298979C29.8797 -0.298979 29.8797 -0.298979 29.8797 -0.298979C29.8797 -0.298979 29.8797 -0.298979 29.8797 -0.298979C29.8797 -0.298979 29.8797 -0.298979 29.8797 -0.298979C29.8797 -0.298979 29.8797 -0.298979 29.8797 -0.298979C29.8797 -0.298979 29.8797 -0.298979 29.8797 -0.298979C29.8797 -0.298979 29.8797 -0.298979 29.8797 -0.298979C29.8797 -0.298979 29.8797 -0.298979 29.8797 -0.298979C29.8797 -0.298979 29.8797 -0.298979 29.8797 -0.298979C29.8797 -0.298979 29.8797 -0.298979 29.8797 -0.298979C29.8797 -0.298979 29.8797 -0.298979 29.8797 -0.298979C29.8797 -0.298979 29.8797 -0.298979 29.8797 -0.298979C29.8797 -0.298979 29.8797 -0.298979 29.8797 -0.298979C29.8797 -0.298979 29.8797 -0.298979 29.8797 -0.298979C29.8797 -0.298979 29.8797 -0.298979 29.8797 -0.298979C29.8797 -0.298979 29.8797 -0.298979 29.8797 -0.298979C29.8797 -0.298979 29.8796 -0.298979 29.8796 -0.298979C29.8796 -0.298979 29.8796 -0.298979 29.8796 -0.298979C29.8796 -0.298979 29.8796 -0.298979 29.8796 -0.298979C29.8796 -0.298979 29.8796 -0.298979 29.8796 -0.298979C29.8796 -0.298979 29.8796 -0.298979 29.8796 -0.298979C29.8796 -0.298979 29.8796 -0.298979 29.8796 -0.298979C29.8796 -0.298979 29.8796 -0.298979 29.8796 -0.298979C29.8796 -0.298979 29.8796 -0.298979 29.8796 -0.298979C29.8796 -0.298979 29.8796 -0.298979 29.8796 -0.298979C29.8796 -0.298979 29.8796 -0.298979 29.8796 -0.298979C29.8796 -0.298979 29.8796 -0.298979 29.8796 -0.298979C29.8796 -0.298979 29.8796 -0.298979 29.8796 -0.298979C29.8796 -0.298979 29.8796 -0.298979 29.8796 -0.298979C29.8796 -0.298979 29.8796 -0.298979 29.8796 -0.298979V0.301021C29.8796 0.301021 29.8796 0.301021 29.8796 0.301021C29.8796 0.301021 29.8796 0.301021 29.8796 0.301021C29.8796 0.301021 29.8796 0.301021 29.8796 0.301021C29.8796 0.301021 29.8796 0.301021 29.8796 0.301021C29.8796 0.301021 29.8796 0.301021 29.8796 0.301021C29.8796 0.301021 29.8796 0.301021 29.8796 0.301021C29.8796 0.301021 29.8796 0.301021 29.8796 0.301021C29.8796 0.301021 29.8796 0.301021 29.8796 0.301021C29.8796 0.301021 29.8796 0.301021 29.8796 0.301021C29.8796 0.301021 29.8796 0.301021 29.8796 0.301021C29.8796 0.301021 29.8796 0.301021 29.8796 0.301021C29.8796 0.301021 29.8796 0.301021 29.8796 0.301021C29.8796 0.301021 29.8796 0.301021 29.8796 0.301021C29.8796 0.301021 29.8797 0.301021 29.8797 0.301021C29.8797 0.301021 29.8797 0.301021 29.8797 0.301021C29.8797 0.301021 29.8797 0.301021 29.8797 0.301021C29.8797 0.301021 29.8797 0.301021 29.8797 0.301021C29.8797 0.301021 29.8797 0.301021 29.8797 0.301021C29.8797 0.301021 29.8797 0.301021 29.8797 0.301021C29.8797 0.301021 29.8797 0.301021 29.8797 0.301021C29.8797 0.301021 29.8797 0.301021 29.8797 0.301021C29.8797 0.301021 29.8797 0.301021 29.8797 0.301021C29.8797 0.301021 29.8797 0.301021 29.8797 0.301021C29.8797 0.301021 29.8797 0.301021 29.8797 0.301021C29.8797 0.301021 29.8797 0.301021 29.8797 0.301021C29.8797 0.301021 29.8797 0.301021 29.8797 0.301021C29.8797 0.301021 29.8797 0.301021 29.8797 0.301021C29.8797 0.301021 29.8797 0.301021 29.8797 0.301021C29.8797 0.301021 29.8797 0.301021 29.8797 0.301021C29.8797 0.301021 29.8797 0.301021 29.8797 0.301021C29.8797 0.301021 29.8797 0.301021 29.8797 0.301021C29.8797 0.301021 29.8797 0.301021 29.8797 0.301021C29.8797 0.301021 29.8798 0.301021 29.8798 0.301021C29.8798 0.301021 29.8798 0.301021 29.8798 0.301021C29.8798 0.301021 29.8798 0.301021 29.8798 0.301021C29.8798 0.301021 29.8798 0.301021 29.8798 0.301021C29.8798 0.301021 29.8798 0.301021 29.8798 0.301021C29.8798 0.301021 29.8798 0.301021 29.8798 0.301021C29.8798 0.301021 29.8798 0.301021 29.8798 0.301021C29.8798 0.301021 29.8798 0.301021 29.8798 0.301021C29.8798 0.301021 29.8798 0.301021 29.8798 0.301021C29.8798 0.301021 29.8798 0.301021 29.8798 0.301021C29.8798 0.301021 29.8798 0.301021 29.8798 0.301021C29.8798 0.301021 29.8798 0.301021 29.8798 0.301021C29.8798 0.301021 29.8798 0.301021 29.8798 0.301021C29.8798 0.301021 29.8798 0.301021 29.8798 0.301021C29.8798 0.301021 29.8798 0.301021 29.8798 0.301021C29.8798 0.301021 29.8798 0.301021 29.8798 0.301021C29.8798 0.301021 29.8798 0.301021 29.8798 0.301021C29.8798 0.301021 29.8798 0.301021 29.8798 0.301021C29.8798 0.301021 29.8798 0.301021 29.8798 0.301021C29.8799 0.301021 29.8799 0.301021 29.8799 0.301021C29.8799 0.301021 29.8799 0.301021 29.8799 0.301021C29.8799 0.301021 29.8799 0.301021 29.8799 0.301021C29.8799 0.301021 29.8799 0.301021 29.8799 0.301021C29.8799 0.301021 29.8799 0.301021 29.8799 0.301021C29.8799 0.301021 29.8799 0.301021 29.8799 0.301021C29.8799 0.301021 29.8799 0.301021 29.8799 0.301021C29.8799 0.301021 29.8799 0.301021 29.8799 0.301021C29.8799 0.301021 29.8799 0.301021 29.8799 0.301021C29.8799 0.301021 29.8799 0.301021 29.8799 0.301021C29.8799 0.301021 29.8799 0.301021 29.8799 0.301021C29.8799 0.301021 29.8799 0.301021 29.8799 0.301021C29.8799 0.301021 29.8799 0.301021 29.8799 0.301021C29.8799 0.301021 29.8799 0.301021 29.8799 0.301021C29.8799 0.301021 29.8799 0.301021 29.8799 0.301021C29.8799 0.301021 29.8799 0.301021 29.8799 0.301021C29.8799 0.301021 29.8799 0.301021 29.8799 0.301021C29.8799 0.301021 29.8799 0.301021 29.8799 0.301021C29.8799 0.301021 29.8799 0.301021 29.8799 0.301021C29.8799 0.301021 29.88 0.301021 29.88 0.301021C29.88 0.301021 29.88 0.301021 29.88 0.301021C29.88 0.301021 29.88 0.301021 29.88 0.301021C29.88 0.301021 29.88 0.301021 29.88 0.301021C29.88 0.301021 29.88 0.301021 29.88 0.301021C29.88 0.301021 29.88 0.301021 29.88 0.301021C29.88 0.301021 29.88 0.301021 29.88 0.301021C29.88 0.301021 29.88 0.301021 29.88 0.301021C29.88 0.301021 29.88 0.301021 29.88 0.301021C29.88 0.301021 29.88 0.301021 29.88 0.301021C29.88 0.301021 29.88 0.301021 29.88 0.301021C29.88 0.301021 29.88 0.301021 29.88 0.301021C29.88 0.301021 29.88 0.301021 29.88 0.301021C29.88 0.301021 29.88 0.301021 29.88 0.301021C29.88 0.301021 29.88 0.301021 29.88 0.301021C29.88 0.301021 29.88 0.301021 29.88 0.301021C29.88 0.301021 29.88 0.301021 29.88 0.301021C29.88 0.301021 29.88 0.301021 29.88 0.301021C29.88 0.301021 29.88 0.301021 29.88 0.301021C29.88 0.301021 29.8801 0.301021 29.8801 0.301021C29.8801 0.301021 29.8801 0.301021 29.8801 0.301021C29.8801 0.301021 29.8801 0.301021 29.8801 0.301021C29.8801 0.301021 29.8801 0.301021 29.8801 0.301021C29.8801 0.301021 29.8801 0.301021 29.8801 0.301021C29.8801 0.301021 29.8801 0.301021 29.8801 0.301021C29.8801 0.301021 29.8801 0.301021 29.8801 0.301021C29.8801 0.301021 29.8801 0.301021 29.8801 0.301021C29.8801 0.301021 29.8801 0.301021 29.8801 0.301021C29.8801 0.301021 29.8801 0.301021 29.8801 0.301021C29.8801 0.301021 29.8801 0.301021 29.8801 0.301021C29.8801 0.301021 29.8801 0.301021 29.8801 0.301021C29.8801 0.301021 29.8801 0.301021 29.8801 0.301021C29.8801 0.301021 29.8801 0.301021 29.8801 0.301021C29.8801 0.301021 29.8801 0.301021 29.8801 0.301021C29.8801 0.301021 29.8801 0.301021 29.8801 0.301021C29.8801 0.301021 29.8801 0.301021 29.8801 0.301021C29.8801 0.301021 29.8801 0.301021 29.8801 0.301021C29.8801 0.301021 29.8801 0.301021 29.8801 0.301021C29.8801 0.301021 29.8801 0.301021 29.8802 0.301021C29.8802 0.301021 29.8802 0.301021 29.8802 0.301021C29.8802 0.301021 29.8802 0.301021 29.8802 0.301021C29.8802 0.301021 29.8802 0.301021 29.8802 0.301021C29.8802 0.301021 29.8802 0.301021 29.8802 0.301021C29.8802 0.301021 29.8802 0.301021 29.8802 0.301021C29.8802 0.301021 29.8802 0.301021 29.8802 0.301021C29.8802 0.301021 29.8802 0.301021 29.8802 0.301021C29.8802 0.301021 29.8802 0.301021 29.8802 0.301021C29.8802 0.301021 29.8802 0.301021 29.8802 0.301021C29.8802 0.301021 29.8802 0.301021 29.8802 0.301021C29.8802 0.301021 29.8802 0.301021 29.8802 0.301021C29.8802 0.301021 29.8802 0.301021 29.8802 0.301021C29.8802 0.301021 29.8802 0.301021 29.8802 0.301021C29.8802 0.301021 29.8802 0.301021 29.8802 0.301021C29.8802 0.301021 29.8802 0.301021 29.8802 0.301021C29.8802 0.301021 29.8802 0.301021 29.8802 0.301021C29.8802 0.301021 29.8802 0.301021 29.8802 0.301021C29.8802 0.301021 29.8802 0.301021 29.8802 0.301021C29.8802 0.301021 29.8802 0.301021 29.8802 0.301021C29.8803 0.301021 29.8803 0.301021 29.8803 0.301021C29.8803 0.301021 29.8803 0.301021 29.8803 0.301021C29.8803 0.301021 29.8803 0.301021 29.8803 0.301021C29.8803 0.301021 29.8803 0.301021 29.8803 0.301021C29.8803 0.301021 29.8803 0.301021 29.8803 0.301021C29.8803 0.301021 29.8803 0.301021 29.8803 0.301021C29.8803 0.301021 29.8803 0.301021 29.8803 0.301021C29.8803 0.301021 29.8803 0.301021 29.8803 0.301021C29.8803 0.301021 29.8803 0.301021 29.8803 0.301021C29.8803 0.301021 29.8803 0.301021 29.8803 0.301021C29.8803 0.301021 29.8803 0.301021 29.8803 0.301021C29.8803 0.301021 29.8803 0.301021 29.8803 0.301021C29.8803 0.301021 29.8803 0.301021 29.8803 0.301021C29.8803 0.301021 29.8803 0.301021 29.8803 0.301021C29.8803 0.301021 29.8803 0.301021 29.8803 0.301021C29.8803 0.301021 29.8803 0.301021 29.8803 0.301021C29.8803 0.301021 29.8803 0.301021 29.8803 0.301021C29.8803 0.301021 29.8803 0.301021 29.8803 0.301021C29.8803 0.301021 29.8803 0.301021 29.8803 0.301021C29.8803 0.301021 29.8804 0.301021 29.8804 0.301021C29.8804 0.301021 29.8804 0.301021 29.8804 0.301021C29.8804 0.301021 29.8804 0.301021 29.8804 0.301021C29.8804 0.301021 29.8804 0.301021 29.8804 0.301021C29.8804 0.301021 29.8804 0.301021 29.8804 0.301021C29.8804 0.301021 29.8804 0.301021 29.8804 0.301021C29.8804 0.301021 29.8804 0.301021 29.8804 0.301021C29.8804 0.301021 29.8804 0.301021 29.8804 0.301021C29.8804 0.301021 29.8804 0.301021 29.8804 0.301021C29.8804 0.301021 29.8804 0.301021 29.8804 0.301021C29.8804 0.301021 29.8804 0.301021 29.8804 0.301021C29.8804 0.301021 29.8804 0.301021 29.8804 0.301021C29.8804 0.301021 29.8804 0.301021 29.8804 0.301021C29.8804 0.301021 29.8804 0.301021 29.8804 0.301021C29.8804 0.301021 29.8804 0.301021 29.8804 0.301021C29.8804 0.301021 29.8804 0.301021 29.8804 0.301021C29.8804 0.301021 29.8804 0.301021 29.8804 0.301021C29.8804 0.301021 29.8804 0.301021 29.8804 0.301021C29.8804 0.301021 29.8804 0.301021 29.8804 0.301021C29.8804 0.301021 29.8804 0.301021 29.8804 0.301021C29.8805 0.301021 29.8805 0.301021 29.8805 0.301021C29.8805 0.301021 29.8805 0.301021 29.8805 0.301021C29.8805 0.301021 29.8805 0.301021 29.8805 0.301021C29.8805 0.301021 29.8805 0.301021 29.8805 0.301021C29.8805 0.301021 29.8805 0.301021 29.8805 0.301021C29.8805 0.301021 29.8805 0.301021 29.8805 0.301021C29.8805 0.301021 29.8805 0.301021 29.8805 0.301021C29.8805 0.301021 29.8805 0.301021 29.8805 0.301021C29.8805 0.301021 29.8805 0.301021 29.8805 0.301021C29.8805 0.301021 29.8805 0.301021 29.8805 0.301021C29.8805 0.301021 29.8805 0.301021 29.8805 0.301021C29.8805 0.301021 29.8805 0.301021 29.8805 0.301021C29.8805 0.301021 29.8805 0.301021 29.8805 0.301021C29.8805 0.301021 29.8805 0.301021 29.8805 0.301021C29.8805 0.301021 29.8805 0.301021 29.8805 0.301021C29.8805 0.301021 29.8805 0.301021 29.8805 0.301021C29.8805 0.301021 29.8805 0.301021 29.8805 0.301021C29.8805 0.301021 29.8805 0.301021 29.8805 0.301021C29.8805 0.301021 29.8805 0.301021 29.8805 0.301021C29.8805 0.301021 29.8806 0.301021 29.8806 0.301021C29.8806 0.301021 29.8806 0.301021 29.8806 0.301021C29.8806 0.301021 29.8806 0.301021 29.8806 0.301021C29.8806 0.301021 29.8806 0.301021 29.8806 0.301021C29.8806 0.301021 29.8806 0.301021 29.8806 0.301021C29.8806 0.301021 29.8806 0.301021 29.8806 0.301021C29.8806 0.301021 29.8806 0.301021 29.8806 0.301021C29.8806 0.301021 29.8806 0.301021 29.8806 0.301021C29.8806 0.301021 29.8806 0.301021 29.8806 0.301021C29.8806 0.301021 29.8806 0.301021 29.8806 0.301021C29.8806 0.301021 29.8806 0.301021 29.8806 0.301021C29.8806 0.301021 29.8806 0.301021 29.8806 0.301021C29.8806 0.301021 29.8806 0.301021 29.8806 0.301021C29.8806 0.301021 29.8806 0.301021 29.8806 0.301021C29.8806 0.301021 29.8806 0.301021 29.8806 0.301021C29.8806 0.301021 29.8806 0.301021 29.8806 0.301021C29.8806 0.301021 29.8806 0.301021 29.8806 0.301021C29.8806 0.301021 29.8806 0.301021 29.8806 0.301021C29.8806 0.301021 29.8806 0.301021 29.8806 0.301021C29.8806 0.301021 29.8806 0.301021 29.8806 0.301021C29.8806 0.301021 29.8807 0.301021 29.8807 0.301021C29.8807 0.301021 29.8807 0.301021 29.8807 0.301021C29.8807 0.301021 29.8807 0.301021 29.8807 0.301021C29.8807 0.301021 29.8807 0.301021 29.8807 0.301021C29.8807 0.301021 29.8807 0.301021 29.8807 0.301021C29.8807 0.301021 29.8807 0.301021 29.8807 0.301021C29.8807 0.301021 29.8807 0.301021 29.8807 0.301021C29.8807 0.301021 29.8807 0.301021 29.8807 0.301021C29.8807 0.301021 29.8807 0.301021 29.8807 0.301021C29.8807 0.301021 29.8807 0.301021 29.8807 0.301021C29.8807 0.301021 29.8807 0.301021 29.8807 0.301021C29.8807 0.301021 29.8807 0.301021 29.8807 0.301021C29.8807 0.301021 29.8807 0.301021 29.8807 0.301021C29.8807 0.301021 29.8807 0.301021 29.8807 0.301021C29.8807 0.301021 29.8807 0.301021 29.8807 0.301021C29.8807 0.301021 29.8807 0.301021 29.8807 0.301021C29.8807 0.301021 29.8807 0.301021 29.8807 0.301021C29.8807 0.301021 29.8807 0.301021 29.8807 0.301021C29.8807 0.301021 29.8807 0.301021 29.8807 0.301021C29.8807 0.301021 29.8807 0.301021 29.8808 0.301021C29.8808 0.301021 29.8808 0.301021 29.8808 0.301021C29.8808 0.301021 29.8808 0.301021 29.8808 0.301021C29.8808 0.301021 29.8808 0.301021 29.8808 0.301021C29.8808 0.301021 29.8808 0.301021 29.8808 0.301021C29.8808 0.301021 29.8808 0.301021 29.8808 0.301021C29.8808 0.301021 29.8808 0.301021 29.8808 0.301021C29.8808 0.301021 29.8808 0.301021 29.8808 0.301021C29.8808 0.301021 29.8808 0.301021 29.8808 0.301021C29.8808 0.301021 29.8808 0.301021 29.8808 0.301021C29.8808 0.301021 29.8808 0.301021 29.8808 0.301021C29.8808 0.301021 29.8808 0.301021 29.8808 0.301021C29.8808 0.301021 29.8808 0.301021 29.8808 0.301021C29.8808 0.301021 29.8808 0.301021 29.8808 0.301021C29.8808 0.301021 29.8808 0.301021 29.8808 0.301021C29.8808 0.301021 29.8808 0.301021 29.8808 0.301021C29.8808 0.301021 29.8808 0.301021 29.8808 0.301021C29.8808 0.301021 29.8808 0.301021 29.8808 0.301021C29.8808 0.301021 29.8808 0.301021 29.8808 0.301021C29.8808 0.301021 29.8808 0.301021 29.8808 0.301021C29.8808 0.301021 29.8808 0.301021 29.8809 0.301021C29.8809 0.301021 29.8809 0.301021 29.8809 0.301021C29.8809 0.301021 29.8809 0.301021 29.8809 0.301021C29.8809 0.301021 29.8809 0.301021 29.8809 0.301021C29.8809 0.301021 29.8809 0.301021 29.8809 0.301021C29.8809 0.301021 29.8809 0.301021 29.8809 0.301021C29.8809 0.301021 29.8809 0.301021 29.8809 0.301021C29.8809 0.301021 29.8809 0.301021 29.8809 0.301021C29.8809 0.301021 29.8809 0.301021 29.8809 0.301021C29.8809 0.301021 29.8809 0.301021 29.8809 0.301021C29.8809 0.301021 29.8809 0.301021 29.8809 0.301021C29.8809 0.301021 29.8809 0.301021 29.8809 0.301021C29.8809 0.301021 29.8809 0.301021 29.8809 0.301021C29.8809 0.301021 29.8809 0.301021 29.8809 0.301021C29.8809 0.301021 29.8809 0.301021 29.8809 0.301021C29.8809 0.301021 29.8809 0.301021 29.8809 0.301021C29.8809 0.301021 29.8809 0.301021 29.8809 0.301021C29.8809 0.301021 29.8809 0.301021 29.8809 0.301021C29.8809 0.301021 29.8809 0.301021 29.8809 0.301021C29.8809 0.301021 29.8809 0.301021 29.8809 0.301021C29.881 0.301021 29.881 0.301021 29.881 0.301021C29.881 0.301021 29.881 0.301021 29.881 0.301021C29.881 0.301021 29.881 0.301021 29.881 0.301021C29.881 0.301021 29.881 0.301021 29.881 0.301021C29.881 0.301021 29.881 0.301021 29.881 0.301021C29.881 0.301021 29.881 0.301021 29.881 0.301021C29.881 0.301021 29.881 0.301021 29.881 0.301021C29.881 0.301021 29.881 0.301021 29.881 0.301021C29.881 0.301021 29.881 0.301021 29.881 0.301021C29.881 0.301021 29.881 0.301021 29.881 0.301021C29.881 0.301021 29.881 0.301021 29.881 0.301021C29.881 0.301021 29.881 0.301021 29.881 0.301021C29.881 0.301021 29.881 0.301021 29.881 0.301021C29.881 0.301021 29.881 0.301021 29.881 0.301021C29.881 0.301021 29.881 0.301021 29.881 0.301021C29.881 0.301021 29.881 0.301021 29.881 0.301021C29.881 0.301021 29.881 0.301021 29.881 0.301021C29.881 0.301021 29.881 0.301021 29.881 0.301021C29.881 0.301021 29.881 0.301021 29.881 0.301021C29.881 0.301021 29.881 0.301021 29.8811 0.301021C29.8811 0.301021 29.8811 0.301021 29.8811 0.301021C29.8811 0.301021 29.8811 0.301021 29.8811 0.301021C29.8811 0.301021 29.8811 0.301021 29.8811 0.301021C29.8811 0.301021 29.8811 0.301021 29.8811 0.301021C29.8811 0.301021 29.8811 0.301021 29.8811 0.301021C29.8811 0.301021 29.8811 0.301021 29.8811 0.301021C29.8811 0.301021 29.8811 0.301021 29.8811 0.301021C29.8811 0.301021 29.8811 0.301021 29.8811 0.301021C29.8811 0.301021 29.8811 0.301021 29.8811 0.301021C29.8811 0.301021 29.8811 0.301021 29.8811 0.301021C29.8811 0.301021 29.8811 0.301021 29.8811 0.301021C29.8811 0.301021 29.8811 0.301021 29.8811 0.301021C29.8811 0.301021 29.8811 0.301021 29.8811 0.301021C29.8811 0.301021 29.8811 0.301021 29.8811 0.301021C29.8811 0.301021 29.8811 0.301021 29.8811 0.301021C29.8811 0.301021 29.8811 0.301021 29.8811 0.301021C29.8811 0.301021 29.8811 0.301021 29.8811 0.301021C29.8811 0.301021 29.8811 0.301021 29.8811 0.301021C29.8811 0.301021 29.8811 0.301021 29.8811 0.301021C29.8811 0.301021 29.8811 0.301021 29.8812 0.301021C29.8812 0.301021 29.8812 0.301021 29.8812 0.301021C29.8812 0.301021 29.8812 0.301021 29.8812 0.301021C29.8812 0.301021 29.8812 0.301021 29.8812 0.301021C29.8812 0.301021 29.8812 0.301021 29.8812 0.301021C29.8812 0.301021 29.8812 0.301021 29.8812 0.301021C29.8812 0.301021 29.8812 0.301021 29.8812 0.301021C29.8812 0.301021 29.8812 0.301021 29.8812 0.301021C29.8812 0.301021 29.8812 0.301021 29.8812 0.301021C29.8812 0.301021 29.8812 0.301021 29.8812 0.301021C29.8812 0.301021 29.8812 0.301021 29.8812 0.301021C29.8812 0.301021 29.8812 0.301021 29.8812 0.301021C29.8812 0.301021 29.8812 0.301021 29.8812 0.301021C29.8812 0.301021 29.8812 0.301021 29.8812 0.301021C29.8812 0.301021 29.8812 0.301021 29.8812 0.301021C29.8812 0.301021 29.8812 0.301021 29.8812 0.301021C29.8812 0.301021 29.8812 0.301021 29.8812 0.301021C29.8812 0.301021 29.8812 0.301021 29.8812 0.301021C29.8812 0.301021 29.8812 0.301021 29.8812 0.301021C29.8812 0.301021 29.8812 0.301021 29.8812 0.301021C29.8813 0.301021 29.8813 0.301021 29.8813 0.301021C29.8813 0.301021 29.8813 0.301021 29.8813 0.301021C29.8813 0.301021 29.8813 0.301021 29.8813 0.301021C29.8813 0.301021 29.8813 0.301021 29.8813 0.301021C29.8813 0.301021 29.8813 0.301021 29.8813 0.301021C29.8813 0.301021 29.8813 0.301021 29.8813 0.301021C29.8813 0.301021 29.8813 0.301021 29.8813 0.301021C29.8813 0.301021 29.8813 0.301021 29.8813 0.301021C29.8813 0.301021 29.8813 0.301021 29.8813 0.301021C29.8813 0.301021 29.8813 0.301021 29.8813 0.301021C29.8813 0.301021 29.8813 0.301021 29.8813 0.301021C29.8813 0.301021 29.8813 0.301021 29.8813 0.301021C29.8813 0.301021 29.8813 0.301021 29.8813 0.301021C29.8813 0.301021 29.8813 0.301021 29.8813 0.301021C29.8813 0.301021 29.8813 0.301021 29.8813 0.301021C29.8813 0.301021 29.8813 0.301021 29.8813 0.301021C29.8813 0.301021 29.8813 0.301021 29.8813 0.301021C29.8813 0.301021 29.8813 0.301021 29.8813 0.301021C29.8813 0.301021 29.8813 0.301021 29.8813 0.301021C29.8813 0.301021 29.8813 0.301021 29.8813 0.301021C29.8814 0.301021 29.8814 0.301021 29.8814 0.301021C29.8814 0.301021 29.8814 0.301021 29.8814 0.301021C29.8814 0.301021 29.8814 0.301021 29.8814 0.301021C29.8814 0.301021 29.8814 0.301021 29.8814 0.301021C29.8814 0.301021 29.8814 0.301021 29.8814 0.301021C29.8814 0.301021 29.8814 0.301021 29.8814 0.301021C29.8814 0.301021 29.8814 0.301021 29.8814 0.301021C29.8814 0.301021 29.8814 0.301021 29.8814 0.301021C29.8814 0.301021 29.8814 0.301021 29.8814 0.301021C29.8814 0.301021 29.8814 0.301021 29.8814 0.301021C29.8814 0.301021 29.8814 0.301021 29.8814 0.301021C29.8814 0.301021 29.8814 0.301021 29.8814 0.301021C29.8814 0.301021 29.8814 0.301021 29.8814 0.301021C29.8814 0.301021 29.8814 0.301021 29.8814 0.301021C29.8814 0.301021 29.8814 0.301021 29.8814 0.301021C29.8814 0.301021 29.8814 0.301021 29.8814 0.301021C29.8814 0.301021 29.8814 0.301021 29.8814 0.301021C29.8814 0.301021 29.8814 0.301021 29.8814 0.301021C29.8814 0.301021 29.8814 0.301021 29.8814 0.301021C29.8814 0.301021 29.8815 0.301021 29.8815 0.301021C29.8815 0.301021 29.8815 0.301021 29.8815 0.301021C29.8815 0.301021 29.8815 0.301021 29.8815 0.301021C29.8815 0.301021 29.8815 0.301021 29.8815 0.301021C29.8815 0.301021 29.8815 0.301021 29.8815 0.301021C29.8815 0.301021 29.8815 0.301021 29.8815 0.301021C29.8815 0.301021 29.8815 0.301021 29.8815 0.301021C29.8815 0.301021 29.8815 0.301021 29.8815 0.301021C29.8815 0.301021 29.8815 0.301021 29.8815 0.301021C29.8815 0.301021 29.8815 0.301021 29.8815 0.301021C29.8815 0.301021 29.8815 0.301021 29.8815 0.301021C29.8815 0.301021 29.8815 0.301021 29.8815 0.301021C29.8815 0.301021 29.8815 0.301021 29.8815 0.301021C29.8815 0.301021 29.8815 0.301021 29.8815 0.301021C29.8815 0.301021 29.8815 0.301021 29.8815 0.301021C29.8815 0.301021 29.8815 0.301021 29.8815 0.301021C29.8815 0.301021 29.8815 0.301021 29.8815 0.301021C29.8815 0.301021 29.8815 0.301021 29.8815 0.301021C29.8815 0.301021 29.8815 0.301021 29.8815 0.301021C29.8815 0.301021 29.8815 0.301021 29.8815 0.301021C29.8816 0.301021 29.8816 0.301021 29.8816 0.301021C29.8816 0.301021 29.8816 0.301021 29.8816 0.301021C29.8816 0.301021 29.8816 0.301021 29.8816 0.301021C29.8816 0.301021 29.8816 0.301021 29.8816 0.301021C29.8816 0.301021 29.8816 0.301021 29.8816 0.301021C29.8816 0.301021 29.8816 0.301021 29.8816 0.301021C29.8816 0.301021 29.8816 0.301021 29.8816 0.301021C29.8816 0.301021 29.8816 0.301021 29.8816 0.301021C29.8816 0.301021 29.8816 0.301021 29.8816 0.301021C29.8816 0.301021 29.8816 0.301021 29.8816 0.301021C29.8816 0.301021 29.8816 0.301021 29.8816 0.301021C29.8816 0.301021 29.8816 0.301021 29.8816 0.301021C29.8816 0.301021 29.8816 0.301021 29.8816 0.301021C29.8816 0.301021 29.8816 0.301021 29.8816 0.301021C29.8816 0.301021 29.8816 0.301021 29.8816 0.301021C29.8816 0.301021 29.8816 0.301021 29.8816 0.301021C29.8816 0.301021 29.8816 0.301021 29.8816 0.301021C29.8816 0.301021 29.8816 0.301021 29.8816 0.301021C29.8816 0.301021 29.8816 0.301021 29.8816 0.301021C29.8817 0.301021 29.8817 0.301021 29.8817 0.301021C29.8817 0.301021 29.8817 0.301021 29.8817 0.301021C29.8817 0.301021 29.8817 0.301021 29.8817 0.301021C29.8817 0.301021 29.8817 0.301021 29.8817 0.301021C29.8817 0.301021 29.8817 0.301021 29.8817 0.301021C29.8817 0.301021 29.8817 0.301021 29.8817 0.301021C29.8817 0.301021 29.8817 0.301021 29.8817 0.301021C29.8817 0.301021 29.8817 0.301021 29.8817 0.301021C29.8817 0.301021 29.8817 0.301021 29.8817 0.301021C29.8817 0.301021 29.8817 0.301021 29.8817 0.301021C29.8817 0.301021 29.8817 0.301021 29.8817 0.301021C29.8817 0.301021 29.8817 0.301021 29.8817 0.301021C29.8817 0.301021 29.8817 0.301021 29.8817 0.301021C29.8817 0.301021 29.8817 0.301021 29.8817 0.301021C29.8817 0.301021 29.8817 0.301021 29.8817 0.301021C29.8817 0.301021 29.8817 0.301021 29.8817 0.301021C29.8817 0.301021 29.8817 0.301021 29.8817 0.301021C29.8817 0.301021 29.8817 0.301021 29.8817 0.301021C29.8817 0.301021 29.8817 0.301021 29.8817 0.301021C29.8818 0.301021 29.8818 0.301021 29.8818 0.301021C29.8818 0.301021 29.8818 0.301021 29.8818 0.301021C29.8818 0.301021 29.8818 0.301021 29.8818 0.301021C29.8818 0.301021 29.8818 0.301021 29.8818 0.301021C29.8818 0.301021 29.8818 0.301021 29.8818 0.301021C29.8818 0.301021 29.8818 0.301021 29.8818 0.301021C29.8818 0.301021 29.8818 0.301021 29.8818 0.301021C29.8818 0.301021 29.8818 0.301021 29.8818 0.301021C29.8818 0.301021 29.8818 0.301021 29.8818 0.301021C29.8818 0.301021 29.8818 0.301021 29.8818 0.301021C29.8818 0.301021 29.8818 0.301021 29.8818 0.301021C29.8818 0.301021 29.8818 0.301021 29.8818 0.301021C29.8818 0.301021 29.8818 0.301021 29.8818 0.301021C29.8818 0.301021 29.8818 0.301021 29.8818 0.301021C29.8818 0.301021 29.8818 0.301021 29.8818 0.301021C29.8818 0.301021 29.8818 0.301021 29.8818 0.301021C29.8818 0.301021 29.8818 0.301021 29.8818 0.301021C29.8818 0.301021 29.8818 0.301021 29.8818 0.301021C29.8818 0.301021 29.8818 0.301021 29.8818 0.301021C29.8818 0.301021 29.8818 0.301021 29.8819 0.301021C29.8819 0.301021 29.8819 0.301021 29.8819 0.301021C29.8819 0.301021 29.8819 0.301021 29.8819 0.301021C29.8819 0.301021 29.8819 0.301021 29.8819 0.301021C29.8819 0.301021 29.8819 0.301021 29.8819 0.301021C29.8819 0.301021 29.8819 0.301021 29.8819 0.301021C29.8819 0.301021 29.8819 0.301021 29.8819 0.301021C29.8819 0.301021 29.8819 0.301021 29.8819 0.301021C29.8819 0.301021 29.8819 0.301021 29.8819 0.301021C29.8819 0.301021 29.8819 0.301021 29.8819 0.301021C29.8819 0.301021 29.8819 0.301021 29.8819 0.301021C29.8819 0.301021 29.8819 0.301021 29.8819 0.301021C29.8819 0.301021 29.8819 0.301021 29.8819 0.301021C29.8819 0.301021 29.8819 0.301021 29.8819 0.301021C29.8819 0.301021 29.8819 0.301021 29.8819 0.301021C29.8819 0.301021 29.8819 0.301021 29.8819 0.301021C29.8819 0.301021 29.8819 0.301021 29.8819 0.301021C29.8819 0.301021 29.8819 0.301021 29.8819 0.301021C29.8819 0.301021 29.8819 0.301021 29.8819 0.301021C29.8819 0.301021 29.882 0.301021 29.882 0.301021C29.882 0.301021 29.882 0.301021 29.882 0.301021C29.882 0.301021 29.882 0.301021 29.882 0.301021C29.882 0.301021 29.882 0.301021 29.882 0.301021C29.882 0.301021 29.882 0.301021 29.882 0.301021C29.882 0.301021 29.882 0.301021 29.882 0.301021C29.882 0.301021 29.882 0.301021 29.882 0.301021C29.882 0.301021 29.882 0.301021 29.882 0.301021C29.882 0.301021 29.882 0.301021 29.882 0.301021C29.882 0.301021 29.882 0.301021 29.882 0.301021C29.882 0.301021 29.882 0.301021 29.882 0.301021C29.882 0.301021 29.882 0.301021 29.882 0.301021C29.882 0.301021 29.882 0.301021 29.882 0.301021C29.882 0.301021 29.882 0.301021 29.882 0.301021C29.882 0.301021 29.882 0.301021 29.882 0.301021C29.882 0.301021 29.882 0.301021 29.882 0.301021C29.882 0.301021 29.882 0.301021 29.882 0.301021C29.882 0.301021 29.882 0.301021 29.882 0.301021C29.882 0.301021 29.882 0.301021 29.882 0.301021C29.882 0.301021 29.882 0.301021 29.8821 0.301021C29.8821 0.301021 29.8821 0.301021 29.8821 0.301021C29.8821 0.301021 29.8821 0.301021 29.8821 0.301021C29.8821 0.301021 29.8821 0.301021 29.8821 0.301021C29.8821 0.301021 29.8821 0.301021 29.8821 0.301021C29.8821 0.301021 29.8821 0.301021 29.8821 0.301021C29.8821 0.301021 29.8821 0.301021 29.8821 0.301021C29.8821 0.301021 29.8821 0.301021 29.8821 0.301021C29.8821 0.301021 29.8821 0.301021 29.8821 0.301021C29.8821 0.301021 29.8821 0.301021 29.8821 0.301021C29.8821 0.301021 29.8821 0.301021 29.8821 0.301021C29.8821 0.301021 29.8821 0.301021 29.8821 0.301021C29.8821 0.301021 29.8821 0.301021 29.8821 0.301021C29.8821 0.301021 29.8821 0.301021 29.8821 0.301021C29.8821 0.301021 29.8821 0.301021 29.8821 0.301021C29.8821 0.301021 29.8821 0.301021 29.8821 0.301021C29.8821 0.301021 29.8821 0.301021 29.8821 0.301021C29.8821 0.301021 29.8821 0.301021 29.8821 0.301021C29.8821 0.301021 29.8821 0.301021 29.8821 0.301021C29.8822 0.301021 29.8822 0.301021 29.8822 0.301021C29.8822 0.301021 29.8822 0.301021 29.8822 0.301021C29.8822 0.301021 29.8822 0.301021 29.8822 0.301021C29.8822 0.301021 29.8822 0.301021 29.8822 0.301021C29.8822 0.301021 29.8822 0.301021 29.8822 0.301021C29.8822 0.301021 29.8822 0.301021 29.8822 0.301021C29.8822 0.301021 29.8822 0.301021 29.8822 0.301021C29.8822 0.301021 29.8822 0.301021 29.8822 0.301021C29.8822 0.301021 29.8822 0.301021 29.8822 0.301021C29.8822 0.301021 29.8822 0.301021 29.8822 0.301021C29.8822 0.301021 29.8822 0.301021 29.8822 0.301021C29.8822 0.301021 29.8822 0.301021 29.8822 0.301021C29.8822 0.301021 29.8822 0.301021 29.8822 0.301021C29.8822 0.301021 29.8822 0.301021 29.8822 0.301021C29.8822 0.301021 29.8822 0.301021 29.8822 0.301021V-0.298979ZM29.8796 -0.298979C28.8438 -0.298979 27.9058 0.313608 27.4896 1.26214L28.0391 1.50323C28.3596 0.772811 29.0819 0.301021 29.8796 0.301021V-0.298979ZM27.4896 1.26212L27.0262 2.31811L27.5756 2.55924L28.039 1.50325L27.4896 1.26212ZM27.0262 2.31811C25.8573 4.98152 24.2619 7.40977 22.2825 9.53899L22.7219 9.94751C24.7471 7.76905 26.3797 5.28421 27.5756 2.55923L27.0262 2.31811ZM22.8022 9.74325V2.03405H22.2022V9.74325H22.8022ZM22.8022 2.03405C22.8022 0.746823 21.7554 -0.3 20.4682 -0.3V0.3C21.424 0.3 22.2022 1.07817 22.2022 2.03405H22.8022ZM20.4682 -0.3H14.2711V0.3H20.4682V-0.3ZM14.2711 -0.3C13.0878 -0.3 12.1258 0.662173 12.1258 1.84542H12.7258C12.7258 0.993499 13.4192 0.3 14.2711 0.3V-0.3ZM12.1258 1.84542C12.1258 2.29676 12.2653 2.73023 12.5284 3.09664L13.0158 2.74661C12.8259 2.48229 12.7258 2.17126 12.7258 1.84542H12.1258ZM12.5284 3.09657L12.962 3.70065L13.4494 3.35076L13.0158 2.74668L12.5284 3.09657ZM12.9621 3.70069C13.3506 4.2417 13.5556 4.87873 13.5556 5.54494H14.1556C14.1556 4.7532 13.9112 3.99375 13.4494 3.35071L12.9621 3.70069ZM13.5556 5.54494V11.1781H14.1556V5.54494H13.5556ZM14.0829 10.9824C13.3269 10.1043 12.4092 8.91504 11.634 7.55125L11.1124 7.84775C11.9126 9.25546 12.8558 10.4768 13.6282 11.3739L14.0829 10.9824ZM11.634 7.55126C10.4435 5.45668 9.58638 3.00585 9.18033 1.72571L8.60841 1.90712C9.01836 3.19954 9.89047 5.69796 11.1124 7.84774L11.634 7.55126ZM9.18033 1.7257C8.79613 0.514709 7.68332 -0.3 6.41291 -0.3V0.3C7.42175 0.3 8.30326 0.945286 8.60842 1.90714L9.18033 1.7257ZM6.41291 -0.3H1.98125V0.3H6.41291V-0.3ZM1.98125 -0.3C1.26186 -0.3 0.598231 0.0299735 0.163692 0.60333L0.641876 0.965739C0.963071 0.541935 1.44979 0.3 1.98125 0.3V-0.3ZM0.163603 0.603447C-0.270644 1.177 -0.408398 1.90546 -0.213295 2.59813L0.364233 2.43546C0.220073 1.92366 0.321091 1.38943 0.641964 0.965622L0.163603 0.603447ZM-0.213288 2.59816L0.613424 5.53224L1.19094 5.36952L0.364226 2.43544L-0.213288 2.59816ZM0.61342 5.53223C1.12571 7.35081 1.82993 9.12107 2.70654 10.7942L3.23801 10.5157C2.38073 8.87949 1.69194 7.14804 1.19094 5.36954L0.61342 5.53223ZM2.70653 10.7941C3.04507 11.4404 3.84341 11.69 4.48996 11.3514L4.2116 10.8198C3.85854 11.0047 3.42279 10.8684 3.23803 10.5157L2.70653 10.7941ZM4.48998 11.3513C5.13652 11.0127 5.3858 10.2141 5.04718 9.56777L4.51571 9.84622C4.70059 10.1991 4.56445 10.635 4.21158 10.8198L4.48998 11.3513ZM5.04719 9.56778C4.25567 8.05688 3.61968 6.45798 3.15697 4.8157L2.57945 4.97841C3.05345 6.66075 3.70486 8.29843 4.5157 9.84621L5.04719 9.56778ZM3.15697 4.8157L2.35273 1.96117L1.77521 2.12388L2.57945 4.97841L3.15697 4.8157ZM2.06397 2.34252H6.41301V1.74252H2.06397V2.34252ZM6.41301 2.34252C6.52753 2.34252 6.6267 2.41498 6.66147 2.52464L7.23341 2.34331C7.11969 1.98461 6.78931 1.74252 6.41301 1.74252V2.34252ZM6.66149 2.52469C7.09585 3.89387 8.02248 6.54488 9.33681 8.85697L9.85842 8.56045C8.57527 6.30321 7.66363 3.69942 7.2334 2.34326L6.66149 2.52469ZM9.33681 8.85696C10.4173 10.7579 11.7259 12.338 12.6318 13.3276L13.0744 12.9225C12.1861 11.9521 10.9091 10.4088 9.85843 8.56046L9.33681 8.85696ZM12.6318 13.3276C13.2068 13.9558 14.094 14.1632 14.8881 13.8544L14.6707 13.2952C14.1074 13.5142 13.4823 13.3681 13.0744 12.9225L12.6318 13.3276ZM14.888 13.8545C15.6829 13.5457 16.1981 12.793 16.1981 11.9403H15.5981C15.5981 12.5454 15.235 13.076 14.6708 13.2952L14.888 13.8545ZM16.1981 11.9403V5.54494H15.5981V11.9403H16.1981ZM16.1981 5.54494C16.1981 4.32313 15.8211 3.15173 15.1087 2.15945L14.6213 2.50936C15.2604 3.39967 15.5981 4.44869 15.5981 5.54494H16.1981ZM15.1086 2.15938L14.899 1.8675L14.4117 2.21755L14.6213 2.50942L15.1086 2.15938ZM14.6553 2.34252H20.4597V1.74252H14.6553V2.34252ZM20.1597 2.04252V10.2325H20.7597V2.04252H20.1597ZM20.1597 10.2325C20.1597 10.9338 20.5124 11.5799 21.1023 11.959L21.4267 11.4543C21.0086 11.1855 20.7597 10.7296 20.7597 10.2325H20.1597ZM21.1022 11.959C21.6921 12.3383 22.4263 12.3908 23.0643 12.0995L22.8151 11.5537C22.3628 11.7602 21.8447 11.7231 21.4268 11.4543L21.1022 11.959ZM23.0643 12.0995L23.4853 11.9073L23.2362 11.3615L22.8151 11.5537L23.0643 12.0995ZM23.4852 11.9074C23.7147 11.8028 23.9188 11.6565 24.0916 11.4731L23.6549 11.0617C23.5353 11.1885 23.3949 11.2892 23.2363 11.3614L23.4852 11.9074ZM24.0916 11.4731C26.3315 9.09451 28.133 6.37143 29.446 3.37993L28.8966 3.13879C27.6111 6.06754 25.8477 8.73306 23.6548 11.0617L24.0916 11.4731ZM29.446 3.37992L29.9095 2.32394L29.3601 2.08281L28.8966 3.13879L29.446 3.37992ZM29.9096 2.32374C29.9043 2.33584 29.8924 2.34344 29.8796 2.34344V1.74344C29.6545 1.74344 29.4505 1.87646 29.36 2.08301L29.9096 2.32374ZM29.8796 2.34344H29.8799V1.74344H29.8796V2.34344ZM29.8795 2.34344L34.2551 2.34845L34.2558 1.74845L29.8802 1.74344L29.8795 2.34344ZM34.2555 2.34845C34.2638 2.34845 34.2192 2.35078 34.1691 2.33035C34.1108 2.30662 34.0739 2.26661 34.0548 2.23473L34.5696 1.92651C34.5313 1.86255 34.4735 1.80647 34.3954 1.77466C34.3254 1.74616 34.2621 1.74845 34.2555 1.74845V2.34845ZM34.0549 2.23497C34.0358 2.20308 34.0178 2.15138 34.0245 2.0884C34.0303 2.03482 34.0535 1.99618 34.0484 2.00588L34.5792 2.28567C34.581 2.28219 34.6131 2.22706 34.6211 2.15223C34.6301 2.06801 34.6078 1.99032 34.5694 1.92627L34.0549 2.23497ZM34.0492 2.00437L32.0277 5.78671L32.5569 6.06953L34.5784 2.28718L34.0492 2.00437ZM32.0277 5.7867C31.7923 6.22709 31.5273 6.65786 31.2403 7.06691L31.7315 7.41152C32.0323 6.98273 32.31 6.53133 32.5569 6.06954L32.0277 5.7867ZM31.2404 7.06689L28.8747 10.4379L29.3658 10.7825L31.7315 7.41155L31.2404 7.06689ZM28.8747 10.4379C28.0733 11.5799 28.2253 13.11 29.2355 14.072L29.6493 13.6375C28.8541 12.8803 28.735 11.6814 29.3658 10.7825L28.8747 10.4379ZM29.2355 14.072L30.968 15.7218L31.3817 15.2872L29.6493 13.6375L29.2355 14.072ZM30.968 15.7218C32.225 16.9188 33.3221 18.2765 34.2285 19.7568L34.7402 19.4435C33.8065 17.9187 32.6766 16.5202 31.3817 15.2872L30.968 15.7218ZM34.2285 19.7568L34.7467 20.6033L35.2584 20.2901L34.7402 19.4435L34.2285 19.7568ZM34.7468 20.6035C34.7497 20.6083 34.7365 20.5888 34.7312 20.559C34.7283 20.5431 34.7277 20.5253 34.7307 20.507C34.7336 20.4885 34.7394 20.4749 34.7439 20.4667L35.2675 20.7598C35.3265 20.6545 35.3386 20.547 35.3218 20.453C35.3062 20.3661 35.2678 20.3054 35.2583 20.2899L34.7468 20.6035ZM34.7439 20.4667C34.7486 20.4585 34.7573 20.4464 34.7715 20.4342C34.7856 20.4221 34.8012 20.4133 34.8162 20.4074C34.8444 20.3965 34.8679 20.3975 34.862 20.3975V20.9975C34.8799 20.9975 34.9517 20.9986 35.0339 20.9665C35.1229 20.9319 35.2084 20.8653 35.2675 20.7598L34.7439 20.4667ZM34.862 20.3975H31.0845V20.9975H34.862V20.3975ZM31.0845 20.3975C30.6801 20.3975 30.2852 20.2307 30.0034 19.9409L29.5732 20.3592C29.968 20.7652 30.518 20.9975 31.0845 20.9975V20.3975ZM30.0033 19.9409L26.2261 16.057L25.796 16.4753L29.5732 20.3592L30.0033 19.9409ZM26.2261 16.057C25.295 15.0996 24.113 14.4419 22.8085 14.1556L22.6799 14.7416C23.8696 15.0027 24.9468 15.6022 25.796 16.4753L26.2261 16.057ZM22.8086 14.1556C22.1609 14.0132 21.4911 14.1703 20.974 14.5863L21.35 15.0538C21.7255 14.7518 22.2097 14.6383 22.6798 14.7416L22.8086 14.1556ZM20.974 14.5863C20.4569 15.0022 20.1598 15.6224 20.1598 16.2859H20.7598C20.7598 15.8041 20.9745 15.3559 21.35 15.0538L20.974 14.5863ZM20.1598 16.2859V20.1019H20.7598V16.2859H20.1598ZM20.1598 20.1019C20.1598 20.2647 20.0269 20.3976 19.8641 20.3976V20.9976C20.3583 20.9976 20.7598 20.596 20.7598 20.1019H20.1598ZM19.8641 20.3976C17.0028 20.3976 14.1743 19.4399 11.9015 17.7016L11.537 18.1782C13.9145 19.9965 16.871 20.9976 19.8641 20.9976V20.3976ZM11.9015 17.7016C10.9762 16.9938 10.0934 16.2131 9.27812 15.3816L8.84969 15.8016C9.68494 16.6535 10.589 17.4531 11.537 18.1782L11.9015 17.7016ZM9.27809 15.3816C8.76734 14.8608 7.93088 14.8521 7.40963 15.3631L7.82964 15.7916C8.11416 15.5127 8.57083 15.5173 8.84972 15.8017L9.27809 15.3816ZM7.40961 15.3631C6.88852 15.874 6.88031 16.7106 7.39112 17.2316L7.81955 16.8116C7.54073 16.5272 7.54518 16.0705 7.82967 15.7915L7.40961 15.3631ZM7.39111 17.2316C8.29398 18.1525 9.27129 19.0168 10.2961 19.8006L10.6606 19.324C9.65841 18.5575 8.70247 17.7121 7.81956 16.8116L7.39111 17.2316ZM10.2961 19.8006C13.0277 21.8899 16.4249 23.0401 19.864 23.0401V22.4401C16.5567 22.4401 13.2876 21.3332 10.6606 19.324L10.2961 19.8006ZM19.864 23.0401C21.4843 23.0401 22.8022 21.7223 22.8022 20.1019H22.2022C22.2022 21.3909 21.153 22.4401 19.864 22.4401V23.0401ZM22.8022 20.1019V16.4913H22.2022V20.1019H22.8022ZM22.4248 16.7812C23.1501 16.9748 23.8059 17.3588 24.3317 17.8995L24.7618 17.4811C24.1605 16.8629 23.4096 16.4231 22.5796 16.2015L22.4248 16.7812ZM24.3317 17.8995L28.1089 21.7833L28.5391 21.365L24.7618 17.4811L24.3317 17.8995ZM28.1089 21.7833C28.886 22.5823 29.9697 23.0401 31.0845 23.0401V22.4401C30.1318 22.4401 29.2032 22.0479 28.539 21.365L28.1089 21.7833ZM31.0845 23.0401H34.862V22.4401H31.0845V23.0401ZM34.862 23.0401C35.7685 23.0401 36.6065 22.5491 37.0494 21.7582L36.5258 21.4651C36.1891 22.0664 35.5514 22.4401 34.862 22.4401V23.0401ZM37.0493 21.7583C37.4923 20.9676 37.4735 19.9965 37.0002 19.2235L36.4885 19.5368C36.8484 20.1246 36.8627 20.8637 36.5259 21.465L37.0493 21.7583Z" fill="#152F3C" mask="url(#path-1-inside-1)"/>
<path d="M6.56348 12.7787L6.56345 12.7787L6.55216 12.7629L6.56348 12.7787ZM6.56348 12.7787C6.85993 13.1921 6.76507 13.7676 6.35161 14.0642L6.56348 12.7787ZM5.05472 13.8365L5.05476 13.8366L5.06606 13.8523C5.06607 13.8524 5.06608 13.8524 5.06609 13.8524C5.24597 14.1032 5.52853 14.2369 5.81569 14.2369C6.00134 14.2369 6.18885 14.1809 6.35158 14.0642L5.05472 13.8365ZM5.05472 13.8365C4.75827 13.4231 4.85313 12.8476 5.26662 12.551C5.68014 12.2545 6.25552 12.3494 6.55211 12.7628L5.05472 13.8365Z" fill="white" stroke="#152F3C" stroke-width="0.2"/>
</svg>
