<svg width="191" height="171" viewBox="0 0 191 171" fill="none" xmlns="http://www.w3.org/2000/svg">
<path d="M190.769 135.056L190.041 131.127C189.577 128.616 187.384 126.793 184.828 126.793C184.507 126.793 184.183 126.823 183.865 126.881L169.043 129.604L175.755 125.117C177.515 123.941 178.404 121.838 178.02 119.752C177.913 119.18 177.714 118.632 177.424 118.118L175.393 114.522C174.697 113.286 173.51 112.368 172.14 112.004C171.469 111.825 170.768 111.785 170.083 111.874C170.831 107.749 171.216 103.536 171.216 99.2474C171.216 97.3444 170.072 95.7068 168.437 94.9795C170.573 89.8994 170.719 84.0835 168.608 78.7573C168.436 78.3242 168.182 77.9376 167.853 77.6081C167.527 77.2815 167.144 77.0292 166.711 76.8551C164.181 75.8475 161.522 75.3368 158.808 75.3368C158.461 75.3368 158.115 75.3457 157.771 75.3621C157.383 67.559 150.925 61.3296 143.041 61.3296C142.003 61.3296 140.991 61.4399 140.013 61.6457C140.692 57.5825 140.292 53.3318 138.71 49.3409C138.54 48.9022 138.284 48.5086 137.937 48.1559C137.603 47.8219 137.211 47.5643 136.777 47.3917C134.051 46.3062 131.187 45.756 128.263 45.756C123.858 45.756 119.645 46.9944 116.007 49.2966C114.679 45.447 112.487 41.833 109.425 38.764C108.528 37.8656 107.335 37.3706 106.066 37.3706C104.797 37.3706 103.604 37.8656 102.706 38.7647L89.1695 52.3321C86.6645 50.0977 83.3681 48.762 79.7903 48.762C78.9784 48.762 78.1587 48.8332 77.3539 48.9734C74.4377 49.4811 71.7541 50.9084 69.6968 52.9989C67.0587 51.7259 64.0367 51.2917 61.1324 51.7971C60.4935 51.9082 59.8736 52.0648 59.2719 52.2556V41.8009C59.2719 34.6012 53.4854 28.7335 46.3275 28.6097V22.6804C48.5186 22.3013 50.1916 20.3916 50.1916 18.0939V4.65962C50.1916 2.09049 48.1015 0 45.532 0H22.7964C20.2269 0 18.1367 2.09049 18.1367 4.65962V18.0939C18.1367 20.3916 19.8097 22.3013 22.0009 22.6804V28.609C14.843 28.7324 9.05682 34.6001 9.05682 41.8002V123.398C3.47496 128.439 0 135.473 0 143.251C0 158.552 13.429 171 29.936 171L141.837 170.967C145.656 170.966 149.248 169.287 151.691 166.362C154.071 163.515 155.082 159.817 154.5 156.17L176.85 160.186C177.159 160.242 177.476 160.27 177.79 160.27C178.905 160.27 179.973 159.928 180.877 159.282C182.04 158.451 182.827 157.165 183.037 155.755L183.642 151.693C183.729 151.111 183.72 150.525 183.613 149.951C183.229 147.874 181.647 146.226 179.584 145.753L171.706 143.946L186.513 141.226C187.909 140.969 189.121 140.185 189.924 139.018C190.727 137.854 191.026 136.447 190.769 135.056ZM158.808 80.9276C160.491 80.9276 162.146 81.1941 163.737 81.7194C165.158 86.0487 164.626 90.7184 162.4 94.5758H154.868L157.272 92.167C158.362 91.074 158.36 89.3037 157.267 88.213C156.173 87.1223 154.403 87.1242 153.313 88.2175L152.042 89.492C151.446 87.5294 150.405 85.7721 149.037 84.3306C151.812 82.1272 155.218 80.9276 158.808 80.9276ZM143.041 66.9204C148.09 66.9204 152.198 71.0403 152.198 76.1043C152.198 76.1983 152.193 76.2911 152.191 76.3843C149.244 77.3427 146.527 78.9437 144.211 81.1181C143.842 80.9783 143.468 80.8486 143.084 80.7423C142.266 76.3243 139.289 72.783 135.356 71.129C136.988 68.6001 139.82 66.9204 143.041 66.9204ZM128.263 51.3468C130.162 51.3468 132.028 51.654 133.826 52.2616C135.271 56.5589 134.976 61.1749 133.134 65.1732C131.621 66.5521 130.392 68.2408 129.553 70.1389C129.054 70.168 128.555 70.2231 128.061 70.3089C125.871 70.6902 123.828 71.6408 122.118 73.0193C121.535 71.9532 120.821 70.9694 120.004 70.0837L126.415 63.6579C127.506 62.565 127.503 60.7947 126.41 59.7043C125.317 58.6136 123.547 58.6155 122.456 59.7088L115.449 66.7322C114.115 66.1018 112.674 65.6634 111.16 65.4584C111.814 62.1221 113.433 58.9785 115.937 56.4683C119.232 53.1656 123.609 51.3468 128.263 51.3468ZM106.84 94.5758H104.416C104.008 93.5373 102.999 92.8011 101.815 92.8011C100.632 92.8011 99.6228 93.5377 99.2146 94.5758H96.3636C97.0257 93.4978 96.8918 92.0693 95.9573 91.1367C94.8643 90.0459 93.0941 90.0478 92.0033 91.1408L89.3682 93.7815C89.1315 94.0185 88.9496 94.2888 88.8158 94.5758H83.1255C80.9943 91.3055 79.6937 87.4455 79.5398 83.2928H123.894C123.74 87.4455 122.44 91.3055 120.309 94.5758H114.387C114.254 94.2888 114.071 94.0182 113.835 93.7811L111.2 91.1404C110.109 90.0478 108.339 90.0448 107.246 91.1359C106.311 92.0686 106.177 93.4974 106.84 94.5758ZM100.337 77.7013C101.391 73.7958 104.954 70.9139 109.176 70.9139C113.398 70.9139 116.961 73.7961 118.014 77.7013H100.337ZM106.055 43.3241C108.714 46.1981 110.472 49.6105 111.334 53.1973C109.907 54.7483 108.721 56.4623 107.786 58.2863C107.361 58.0261 106.864 57.8736 106.33 57.8736H102.604C101.06 57.8736 99.8084 59.1254 99.8084 60.6694C99.8084 62.2134 101.06 63.4652 102.604 63.4652H105.872C105.688 64.2372 105.546 65.0185 105.442 65.8058C104.332 66.0973 103.272 66.5126 102.279 67.0412C100.416 63.8253 97.3302 61.4288 93.6741 60.4674C93.673 60.4596 93.6715 60.4517 93.67 60.4439C93.4508 59.1787 93.0683 57.9784 92.5468 56.8627L106.055 43.3241ZM55.5151 68.5516C55.3511 68.0931 55.227 67.6227 55.1453 67.1508C54.3435 62.528 57.4599 58.1115 62.0908 57.3052C62.5791 57.2202 63.0753 57.1769 63.5651 57.1769C65.407 57.1769 67.1672 57.7644 68.6549 58.8757C69.2703 59.3357 70.0487 59.5217 70.8062 59.3904C71.5636 59.2589 72.2335 58.8216 72.6584 58.1808C73.971 56.201 75.9791 54.8874 78.3126 54.4811C78.8021 54.3957 79.2993 54.3528 79.7903 54.3528C83.9325 54.3528 87.4529 57.3164 88.1605 61.4001C88.2417 61.8679 88.2835 62.3555 88.2842 62.8494C88.2868 64.2965 89.3936 65.5028 90.8354 65.6295C93.9611 65.9042 96.622 67.8713 97.8555 70.6425C96.2041 72.6245 95.0593 75.0446 94.6247 77.7013H78.6805C76.6982 77.7013 74.9972 78.9251 74.2878 80.657C70.7801 78.2679 66.646 76.9807 62.3137 76.9807C59.5996 76.9807 56.9406 77.4918 54.4087 78.4998C53.9793 78.6712 53.5954 78.9243 53.2681 79.2516C52.9363 79.5834 52.6817 79.9722 52.5147 80.3986C51.8713 82.0213 51.4422 83.6895 51.2104 85.368C50.2084 84.2274 49.5024 82.809 49.2265 81.2172C48.5689 77.4239 50.5547 73.647 54.0539 72.0322C55.369 71.4253 56.0031 69.9149 55.5151 68.5516ZM63.8495 93.8113L64.6122 94.5758H57.8975C56.39 91.0785 56.1611 87.0977 57.3849 83.364C58.9782 82.8381 60.6321 82.5719 62.3137 82.5719C66.5264 82.5719 70.4893 84.2184 73.4718 87.2077C73.8685 87.6054 74.2379 88.0222 74.5849 88.4527C75.0587 90.5976 75.7867 92.6467 76.7246 94.5754H72.5112L67.808 89.8614C66.7169 88.7688 64.9466 88.7658 63.8544 89.8569C62.761 90.948 62.7588 92.7183 63.8495 93.8113ZM51.9432 94.5758H41.9765C42.4208 91.8677 44.0498 89.5591 46.3111 88.1977C47.6497 89.9911 49.3969 91.4412 51.4098 92.4235C51.5522 93.1489 51.727 93.8679 51.9432 94.5758ZM23.7283 5.59155H44.6001V17.162H23.7283V5.59155ZM40.7359 22.7535V28.6034H27.5928V22.7535H40.7359ZM14.6487 53.1384H32.8038C34.3481 53.1384 35.5995 51.8866 35.5995 50.3426C35.5995 48.7986 34.3481 47.5468 32.8038 47.5468H14.6487V41.8002C14.6487 37.6065 18.0499 34.1949 22.2305 34.1949H46.0982C50.2792 34.1949 53.6804 37.6065 53.6804 41.8002V47.5468H48.4601C46.9157 47.5468 45.6643 48.7986 45.6643 50.3426C45.6643 51.8866 46.9157 53.1384 48.4601 53.1384H53.6804V55.6199C50.4771 58.7605 48.8135 63.366 49.6351 68.1036C49.6366 68.1129 49.6384 68.1226 49.6399 68.1323C45.1547 71.2095 42.7649 76.6803 43.7166 82.1723C43.7721 82.4929 43.8418 82.8082 43.9179 83.1202C42.5211 83.8904 41.2667 84.8849 40.1917 86.0487H14.6487V53.1384ZM14.6484 91.6399H36.9452C36.6485 92.5823 36.439 93.563 36.3369 94.5758H35.8657C33.2925 94.5758 31.1986 96.6712 31.1986 99.2466C31.1986 103.686 31.6113 108.044 32.4109 112.308C31.6075 112.243 30.7837 112.209 29.9457 112.209C26.5647 112.209 23.3432 112.745 20.8759 113.719C17.1016 115.21 16.0582 117.326 15.8304 118.79C15.4304 118.989 15.0375 119.2 14.6484 119.415V91.6399ZM50.0507 125.985C51.0575 126.791 51.673 127.475 52.0297 127.969C51.9962 127.97 51.9611 127.97 51.9257 127.97C50.3433 127.97 47.5002 127.332 44.2672 125.543C43.0635 124.876 41.9545 124.122 41.0599 123.364C40.0169 122.481 38.4874 122.481 37.4451 123.365C36.5505 124.123 35.4418 124.876 34.2393 125.542C31.0055 127.332 28.1624 127.97 26.5804 127.97C26.5442 127.97 26.5095 127.97 26.4756 127.969C26.832 127.475 27.4474 126.79 28.4546 125.984C29.3348 125.28 29.7057 124.115 29.3951 123.032C29.0843 121.948 28.1531 121.156 27.0329 121.025C24.3046 120.705 22.5794 120.011 21.7716 119.505C22.7837 118.875 25.3424 117.8 29.9468 117.8C33.7603 117.8 36.5475 118.602 37.8842 119.353C38.7345 119.83 39.7712 119.83 40.6215 119.353C41.959 118.602 44.7466 117.801 48.56 117.801C53.1648 117.801 55.7231 118.876 56.7348 119.506C55.9274 120.011 54.2019 120.706 51.4728 121.025C50.3526 121.157 49.4211 121.948 49.1106 123.032C48.7989 124.116 49.1698 125.281 50.0507 125.985ZM44.458 160.014L44.5542 160.532C44.8867 162.327 45.5879 163.976 46.5675 165.408H29.936C16.5126 165.408 5.59155 155.469 5.59155 143.251C5.59155 134.901 10.694 127.619 18.2076 123.843C19.0705 124.487 20.1464 125.042 21.4227 125.49C20.9165 126.355 20.5639 127.285 20.4807 128.254C20.3704 129.543 20.7648 130.767 21.5923 131.701C22.6857 132.936 24.3639 133.562 26.5804 133.562C29.5342 133.562 33.4099 132.393 36.9475 130.434C37.762 129.983 38.5321 129.507 39.253 129.01C39.9736 129.507 40.7438 129.983 41.5586 130.434C45.0962 132.393 48.9719 133.562 51.9257 133.562C54.1415 133.562 55.8201 132.936 56.913 131.702C57.7409 130.768 58.1357 129.544 58.025 128.254C57.9419 127.285 57.5892 126.355 57.083 125.49C58.3594 125.042 59.4356 124.487 60.2985 123.843C66.2572 126.838 70.6973 132.038 72.2805 138.227L52.5069 145.739C46.7189 147.938 43.3338 153.941 44.458 160.014ZM147.4 162.777C146.021 164.428 143.992 165.375 141.834 165.376L138.9 165.377L137.066 155.478C136.785 153.96 135.327 152.956 133.808 153.238C132.29 153.519 131.287 154.978 131.568 156.496L133.213 165.379L123.594 165.382L122.354 158.689C122.073 157.17 120.615 156.167 119.096 156.449C117.578 156.73 116.575 158.188 116.856 159.707L117.907 165.385L95.5316 165.393L93.8474 156.302C93.5656 154.784 92.1081 153.781 90.5891 154.062C89.0708 154.344 88.068 155.803 88.3491 157.321L89.845 165.395L57.174 165.408C57.1732 165.408 57.1725 165.408 57.1717 165.408C53.6781 165.408 50.684 162.929 50.0511 159.512L49.9549 158.994C49.323 155.581 51.2309 152.205 54.4915 150.966L65.4796 146.792L66.2982 151.21C66.5476 152.556 67.7226 153.497 69.0437 153.497C69.2129 153.497 69.3844 153.481 69.5566 153.449C71.0745 153.168 72.0773 151.709 71.7959 150.191L70.792 144.773L87.1025 138.577C88.5459 138.029 89.2717 136.414 88.7233 134.971C88.175 133.527 86.5583 132.802 85.1172 133.35L77.5272 136.233C75.3979 128.695 69.9279 122.398 62.6742 118.79C62.4464 117.326 61.403 115.209 57.6291 113.719C55.1617 112.745 51.9403 112.208 48.5592 112.208C46.2324 112.208 44.0103 112.465 42.0488 112.933V111.244C42.0488 109.7 40.7974 108.448 39.253 108.448C38.6003 108.448 38.0017 108.674 37.5256 109.049C37.0846 106.132 36.8379 103.17 36.7969 100.167H127.86C129.404 100.167 130.656 98.9149 130.656 97.3709C130.656 95.8269 129.404 94.5751 127.86 94.5751H126.716C128.496 90.9085 129.502 86.7976 129.502 82.453C129.502 79.9864 127.615 77.9544 125.21 77.7236C126.257 76.7362 127.564 76.0704 129.021 75.8166C129.447 75.7424 129.88 75.7047 130.308 75.7047C133.918 75.7047 136.985 78.2869 137.601 81.8439C137.673 82.2558 137.709 82.6807 137.709 83.1076C137.711 84.5554 138.818 85.7624 140.261 85.8892C143.602 86.1825 146.335 88.6954 146.908 91.9996C147.06 92.8782 147.041 93.7453 146.889 94.5751H143.889C142.345 94.5751 141.093 95.8269 141.093 97.3709C141.093 98.9149 142.345 100.167 143.889 100.167H165.619C165.549 105.295 164.889 110.305 163.657 115.165L148.505 124.11C147.578 120.884 145.425 118.149 142.457 116.488C139.129 114.625 135.173 114.334 131.606 115.689L100.401 127.544C98.957 128.092 98.2316 129.707 98.7799 131.15C99.3283 132.594 100.945 133.319 102.386 132.771L106.497 131.209L107.773 138.101C108.023 139.447 109.198 140.388 110.519 140.388C110.688 140.388 110.86 140.372 111.032 140.341C112.55 140.06 113.553 138.601 113.272 137.083L111.81 129.191L133.591 120.917C135.609 120.15 137.845 120.315 139.726 121.368C141.604 122.419 142.905 124.23 143.296 126.337L148.952 156.873C149.342 158.979 148.776 161.131 147.4 162.777ZM157.375 140.894C156.071 141.133 155.115 142.256 155.085 143.582C155.056 144.908 155.963 146.072 157.255 146.368L178.071 151.143L177.551 154.631L153.42 150.295L149.648 129.929L170.666 117.522L172.417 120.622L154.689 132.473C153.586 133.21 153.153 134.62 153.652 135.848C154.15 137.077 155.444 137.787 156.748 137.547L184.596 132.431L185.216 135.779L157.375 140.894Z" fill="#152F3C"/>
</svg>
