<svg width="239" height="227" viewBox="0 0 239 227" fill="none" xmlns="http://www.w3.org/2000/svg">
<path d="M225.217 38.8094C225.046 38.438 224.787 38.1141 224.463 37.8658C224.138 37.6176 223.758 37.4526 223.355 37.3853C222.952 37.318 222.539 37.3504 222.151 37.4797C221.763 37.6091 221.413 37.8313 221.131 38.127C220.731 38.5474 211.293 48.4633 208.648 52.2871C207.144 54.4608 205.494 57.0692 204.919 60.5179C204.291 64.28 205.184 68.1372 207.401 71.241C209.618 74.3447 212.977 76.4407 216.739 77.0679C220.501 77.695 224.358 76.802 227.462 74.5853C230.566 72.3686 232.662 69.0097 233.289 65.2475C233.87 61.759 233.243 59.1065 232.429 56.2448C231.146 51.7414 225.458 39.3351 225.217 38.8094ZM217.563 72.1234C215.113 71.7128 212.925 70.3471 211.48 68.3257C210.035 66.3044 209.45 63.7925 209.855 61.3408C210.26 58.9099 211.514 56.9411 212.764 55.1334C214.39 52.783 219.19 47.5284 222.201 44.2959C223.997 48.3229 226.824 54.8407 227.615 57.6151C228.415 60.4254 228.729 62.161 228.352 64.4245C227.939 66.8746 226.572 69.061 224.549 70.5042C222.527 71.9475 220.014 72.5298 217.563 72.1234Z" fill="#152F3C"/>
<path d="M24.3044 193.371C24.8861 194.208 25.6282 194.921 26.4876 195.469C27.347 196.016 28.3067 196.388 29.3109 196.562C30.3151 196.736 31.3439 196.709 32.3375 196.482C33.3312 196.256 34.2699 195.834 35.0993 195.242C35.9287 194.649 36.6322 193.898 37.1689 193.032C37.7057 192.165 38.0651 191.201 38.2263 190.195C38.3874 189.188 38.3471 188.16 38.1077 187.169C37.8683 186.179 37.4346 185.245 36.8317 184.424L32.2483 178.002L51.3612 164.351L61.1655 178.078C61.7898 178.953 62.5803 179.695 63.4916 180.264C64.403 180.832 65.4174 181.216 66.477 181.393C67.5366 181.569 68.6206 181.536 69.6672 181.293C70.7137 181.051 71.7023 180.605 72.5764 179.98C73.4506 179.356 74.1932 178.566 74.7619 177.654C75.3305 176.743 75.7141 175.729 75.8908 174.669C76.0674 173.609 76.0336 172.525 75.7913 171.479C75.549 170.432 75.1029 169.444 74.4785 168.57L73.7333 167.526L157.393 107.774C159.173 106.506 160.435 104.637 160.948 102.511C161.46 100.386 161.188 98.1471 160.181 96.2065L171.066 88.4317C172.356 87.5072 173.321 86.1992 173.824 84.694C174.327 83.1888 174.342 81.5633 173.866 80.0492L187.717 70.1572C189.58 68.8212 190.944 66.902 191.594 64.7032C192.244 62.5044 192.142 60.1517 191.305 58.0174L222.1 36.0226C222.368 35.8316 222.595 35.5898 222.769 35.3109C222.943 35.0321 223.06 34.7218 223.114 34.3976C223.168 34.0735 223.158 33.7418 223.084 33.4217C223.01 33.1015 222.873 32.7991 222.682 32.5317C222.491 32.2643 222.249 32.0371 221.97 31.8632C221.692 31.6892 221.381 31.5719 221.057 31.5178C220.733 31.4638 220.401 31.4742 220.081 31.5483C219.761 31.6225 219.459 31.7589 219.191 31.9499L188.41 53.9353C186.661 52.449 184.465 51.5892 182.172 51.4922C179.879 51.3952 177.619 52.0666 175.75 53.3998L161.899 63.2917C160.621 62.3505 159.078 61.8369 157.491 61.8241C155.904 61.8114 154.353 62.3 153.059 63.2205L142.174 70.9958C140.664 69.4139 138.635 68.4299 136.458 68.2249C134.282 68.0199 132.104 68.6076 130.326 69.8799L46.6672 129.631L45.922 128.587C44.661 126.822 42.7503 125.629 40.6101 125.272C38.47 124.915 36.2757 125.423 34.5099 126.684C32.7442 127.945 31.5518 129.856 31.1949 131.996C30.8379 134.136 31.3458 136.33 32.6068 138.096L42.4111 151.823L23.3002 165.474L18.7151 159.055C17.5143 157.431 15.7234 156.344 13.7285 156.028C11.7336 155.713 9.69458 156.194 8.05104 157.367C6.4075 158.541 5.29109 160.314 4.94255 162.303C4.594 164.293 5.04123 166.34 6.1878 168.002L24.3044 193.371ZM178.658 57.4727C179.8 56.6571 181.219 56.3285 182.603 56.5593C183.987 56.79 185.223 57.5612 186.039 58.7031C186.854 59.845 187.183 61.2642 186.952 62.6483C186.721 64.0325 185.95 65.2683 184.808 66.0838L171.262 75.7585L165.112 67.1474L178.658 57.4727ZM155.968 67.2935C156.512 66.9056 157.188 66.7495 157.848 66.8594C158.507 66.9694 159.096 67.3363 159.485 67.8798L168.745 80.8443C169.132 81.3887 169.289 82.0646 169.179 82.7238C169.069 83.3831 168.702 83.9719 168.158 84.3609L157.356 92.0761L145.166 75.0108L155.968 67.2935ZM133.235 73.952C133.672 73.6397 134.166 73.4166 134.689 73.2954C135.213 73.1742 135.755 73.1573 136.285 73.2456C136.814 73.3339 137.322 73.5258 137.777 73.8102C138.233 74.0946 138.628 74.466 138.94 74.9032L155.435 97.9971C155.747 98.4341 155.97 98.9284 156.091 99.4517C156.212 99.975 156.229 100.517 156.141 101.047C156.053 101.577 155.861 102.084 155.576 102.54C155.292 102.995 154.921 103.391 154.483 103.703L146.989 109.056L139.384 98.4083C138.996 97.8742 138.413 97.5151 137.761 97.4091C137.11 97.3031 136.443 97.4589 135.905 97.8425C135.368 98.2261 135.004 98.8065 134.893 99.4572C134.782 100.108 134.932 100.776 135.311 101.317L142.916 111.964L136.7 116.403L133.625 112.098C133.434 111.83 133.193 111.603 132.914 111.429C132.635 111.255 132.325 111.138 132.001 111.084C131.676 111.03 131.345 111.04 131.025 111.114C130.704 111.188 130.402 111.325 130.135 111.516C129.867 111.707 129.64 111.948 129.466 112.227C129.292 112.506 129.175 112.816 129.121 113.141C129.067 113.465 129.077 113.796 129.151 114.116C129.225 114.437 129.361 114.739 129.552 115.007L132.628 119.312L126.412 123.753L118.808 113.105C118.616 112.838 118.375 112.611 118.096 112.437C117.817 112.263 117.507 112.145 117.183 112.091C116.858 112.037 116.527 112.048 116.207 112.122C115.886 112.196 115.584 112.332 115.317 112.524C115.049 112.715 114.822 112.956 114.648 113.235C114.474 113.514 114.357 113.824 114.303 114.148C114.249 114.473 114.259 114.804 114.333 115.124C114.407 115.445 114.544 115.747 114.735 116.014L122.339 126.662L116.124 131.101L113.049 126.795C112.664 126.255 112.079 125.89 111.424 125.781C110.77 125.672 110.099 125.827 109.558 126.213C109.018 126.599 108.654 127.183 108.544 127.838C108.435 128.493 108.591 129.164 108.976 129.704L112.051 134.01L105.836 138.449L98.2316 127.801C97.8458 127.261 97.2613 126.896 96.6066 126.787C95.9519 126.678 95.2806 126.833 94.7405 127.219C94.2004 127.605 93.8356 128.189 93.7265 128.844C93.6173 129.499 93.7728 130.17 94.1585 130.71L101.763 141.357L95.5498 145.797L92.4745 141.491C92.0887 140.951 91.5042 140.587 90.8495 140.477C90.1949 140.368 89.5237 140.524 88.9836 140.909C88.4435 141.295 88.0789 141.88 87.9698 142.534C87.8607 143.189 88.0161 143.86 88.4019 144.4L91.4768 148.706L85.2604 153.145L77.6556 142.497C77.2698 141.957 76.6853 141.592 76.0307 141.483C75.376 141.374 74.7048 141.529 74.1647 141.915C73.6247 142.301 73.26 142.885 73.1509 143.54C73.0418 144.195 73.1972 144.866 73.583 145.406L81.1875 156.055L70.824 163.457L49.5756 133.703L133.235 73.952ZM36.6807 135.19C36.1912 134.505 35.994 133.653 36.1324 132.822C36.2709 131.992 36.7336 131.25 37.4189 130.76C38.1041 130.271 38.9557 130.074 39.7864 130.212C40.617 130.351 41.3587 130.813 41.8481 131.499L70.406 171.481C70.8954 172.166 71.0926 173.018 70.9541 173.848C70.8156 174.679 70.3528 175.421 69.6675 175.91C68.9822 176.4 68.1306 176.597 67.2999 176.458C66.4692 176.32 65.7276 175.857 65.2381 175.172L36.6807 135.19ZM45.321 155.899L48.4515 160.282L29.3389 173.931L26.2084 169.548L45.321 155.899ZM10.8841 161.34C11.4656 160.925 12.1877 160.759 12.892 160.876C13.5962 160.993 14.2252 161.385 14.6409 161.966L32.7593 187.334C32.9713 187.621 33.1241 187.948 33.2086 188.295C33.2932 188.642 33.3079 189.002 33.2519 189.355C33.1959 189.707 33.0703 190.045 32.8824 190.349C32.6946 190.653 32.4481 190.916 32.1575 191.124C31.8669 191.331 31.5379 191.479 31.1897 191.558C30.8415 191.637 30.481 191.647 30.1292 191.585C29.7773 191.524 29.4413 191.393 29.1405 191.2C28.8397 191.008 28.5802 190.758 28.3771 190.464L10.2589 165.095C9.84388 164.513 9.67669 163.791 9.79414 163.086C9.91159 162.382 10.3041 161.753 10.8852 161.338L10.8841 161.34Z" fill="#152F3C"/>
<path d="M133.737 83.8256C134.177 83.8989 134.628 83.8626 135.05 83.7198C135.473 83.5771 135.853 83.3324 136.159 83.0074C136.464 82.6823 136.684 82.287 136.8 81.8565C136.916 81.4259 136.924 80.9734 136.823 80.5391C136.722 80.1047 136.516 79.7019 136.222 79.3664C135.929 79.0308 135.557 78.7728 135.14 78.6154C134.723 78.4579 134.273 78.4057 133.831 78.4635C133.389 78.5213 132.968 78.6872 132.605 78.9466C132.169 79.2585 131.835 79.6926 131.646 80.194C131.457 80.6955 131.42 81.2419 131.542 81.7641C131.663 82.2862 131.936 82.7608 132.327 83.1277C132.717 83.4947 133.208 83.7375 133.737 83.8256Z" fill="#152F3C"/>
<path d="M94.7671 111.734C95.0913 111.788 95.423 111.778 95.7432 111.704C96.0634 111.63 96.3659 111.493 96.6332 111.302L129.818 87.5999C130.358 87.2142 130.723 86.6297 130.832 85.975C130.941 85.3203 130.786 84.6491 130.4 84.1091C130.014 83.569 129.43 83.2043 128.775 83.0952C128.12 82.9861 127.449 83.1415 126.909 83.5273L93.7233 107.229C93.3205 107.517 93.012 107.917 92.8369 108.38C92.6618 108.843 92.628 109.348 92.7396 109.83C92.8513 110.312 93.1034 110.75 93.4642 111.089C93.8249 111.428 94.2781 111.652 94.7663 111.734L94.7671 111.734Z" fill="#152F3C"/>
</svg>
