<svg width="142" height="176" viewBox="0 0 142 176" fill="none" xmlns="http://www.w3.org/2000/svg">
<mask id="path-1-inside-1" fill="white">
<path d="M137.63 52.136C135.738 52.136 134.205 53.6688 134.205 55.5587V60.2668C132.975 59.7933 131.635 59.5325 130.23 59.5325H122.421C121.328 59.5325 120.227 59.479 119.149 59.3734C110.982 58.5762 104.185 52.433 102.236 44.0895C101.88 42.5674 101.313 41.1363 100.572 39.8242C107.759 37.9904 113.089 31.4633 113.089 23.7137C113.089 14.545 105.631 7.087 96.4633 7.087C87.2946 7.087 79.8366 14.545 79.8366 23.7137C79.8366 26.8636 80.718 29.8115 82.2455 32.3247C77.9801 33.5579 74.2912 36.5339 72.2729 40.6441C70.383 44.4908 68.8141 48.4993 67.5662 52.6055C65.8502 51.3629 63.7676 50.5885 61.5166 50.4949L53.5008 50.1618C50.7081 50.0455 47.9488 49.5947 45.2991 48.8203C39.7297 47.1926 34.9962 43.0396 32.3118 37.426C31.3675 35.4518 30.0594 33.713 28.4919 32.2739C33.6012 29.2925 37.044 23.7552 37.044 17.4247C37.0426 7.9497 29.3332 0.240234 19.8582 0.240234C10.3818 0.240234 2.67237 7.9497 2.67237 17.426C2.67237 22.4645 4.85119 27.0027 8.31804 30.1499C3.34246 33.1152 0 38.5482 0 44.7489V90.2781C0 96.7517 1.86049 103.047 5.37951 108.482L8.21639 112.866V172.112C8.21639 174.003 9.74919 175.536 11.6404 175.536H37.3944C39.2857 175.536 40.8185 174.003 40.8185 172.112C40.8185 166.523 38.126 161.552 33.9703 158.426C33.9703 158.422 33.9703 158.419 33.9703 158.417V67.8586C39.8688 70.2527 46.1124 71.5983 52.5993 71.8685L60.809 72.2095C61.9673 72.255 63.1029 72.1199 64.1836 71.8203C64.1127 73.194 64.0712 74.5703 64.0712 75.9452V88.0271C64.0712 93.9483 65.3151 99.7665 67.6424 105.114L63.8586 125.813L48.2885 145.855C48.2872 145.856 48.2872 145.857 48.2858 145.859C48.2256 145.938 48.1681 146.022 48.1133 146.108C48.1026 146.124 48.0905 146.138 48.0812 146.154C48.0798 146.156 48.0799 146.156 48.0785 146.157L41.9941 156.015C41.2959 157.146 41.0806 158.482 41.3856 159.776C41.6919 161.069 42.4837 162.166 43.6152 162.864L63.3182 175.025C63.8786 175.371 64.4993 175.536 65.1132 175.536C66.2608 175.536 67.3816 174.958 68.029 173.909C71.1227 168.898 71.2109 162.867 68.8007 157.929L75.5391 150.341L74.4932 158.54C74.4919 158.553 74.4919 158.565 74.4905 158.577C74.4825 158.645 74.4798 158.714 74.4758 158.783C74.4731 158.835 74.4678 158.888 74.4678 158.94C74.4678 158.95 74.4665 158.961 74.4665 158.973V172.112C74.4665 174.003 75.9993 175.536 77.8892 175.536H102.596C104.487 175.536 106.02 174.003 106.02 172.112C106.02 166.754 103.46 161.983 99.4995 158.954L104.764 126.976C105.814 120.597 105.336 113.968 103.381 107.806L96.9381 87.4974V74.5047C104.729 78.6591 113.428 80.8325 122.421 80.8325H130.403C131.726 80.8325 133.008 80.5918 134.205 80.1357V158.385C134.205 160.276 135.738 161.809 137.628 161.809C139.519 161.809 141.052 160.276 141.052 158.385V55.5587C141.052 53.6688 139.519 52.136 137.63 52.136ZM19.8582 7.08834C25.5587 7.08834 30.1959 11.7255 30.1959 17.426C30.1959 23.1252 25.5587 27.7637 19.8582 27.7637C14.1577 27.7637 9.51913 23.1265 9.51913 17.426C9.51913 11.7255 14.1577 7.08834 19.8582 7.08834ZM15.0645 168.688V161.841H23.6995C28.1628 161.841 31.9708 164.703 33.3845 168.688H15.0645ZM15.0645 154.993V111.854C15.0645 111.194 14.8732 110.548 14.5148 109.993L11.1268 104.761C8.3274 100.437 6.84811 95.4289 6.84811 90.2781V87.888H27.1222V154.993H15.0645ZM61.0926 65.3681L52.8842 65.0271C45.5479 64.7221 38.5687 62.8509 32.142 59.4656C32.1192 59.4536 32.0951 59.4456 32.0724 59.4349C29.7866 58.2258 27.5797 56.824 25.5079 55.2605C23.9991 54.1209 21.8524 54.4205 20.7128 55.9292C19.5733 57.438 19.8729 59.5847 21.3829 60.7243C23.2127 62.1072 25.1374 63.3792 27.1236 64.5241V81.0398H6.84811V44.7489C6.84811 39.1594 11.3957 34.6118 16.9852 34.6118C20.868 34.6118 24.4579 36.8763 26.1352 40.3819C29.6582 47.749 35.9432 53.2208 43.3785 55.3942C46.5604 56.3238 49.8708 56.8655 53.2173 57.0046L61.233 57.3377C63.4787 57.4313 65.2924 59.2463 65.275 61.3836C65.267 62.4858 64.8243 63.5076 64.0284 64.2647C63.2326 65.0217 62.1907 65.4109 61.0926 65.3681ZM96.4633 13.9351C101.855 13.9351 106.242 18.3222 106.242 23.7137C106.242 29.1066 101.855 33.4923 96.4633 33.4923C91.0704 33.4923 86.6847 29.1066 86.6847 23.7137C86.6847 18.3222 91.0704 13.9351 96.4633 13.9351ZM63.4707 167.073L48.8035 158.021L52.1071 152.667L59.0382 156.944C62.5719 159.126 64.2197 163.22 63.4707 167.073ZM64.6317 152.311L56.0421 147.037L69.7798 129.354C70.1168 128.919 70.3442 128.409 70.4432 127.869L72.9537 114.133C74.3595 115.964 75.9137 117.691 77.615 119.285L79.2976 120.861L77.0733 138.3L64.6317 152.311ZM81.3132 168.688V162.397H89.4587C93.6104 162.397 97.1628 165.016 98.5499 168.688H81.3132ZM98.0082 125.864L93.1209 155.55H81.7787L83.7301 140.243C83.7301 140.239 83.7301 140.234 83.7315 140.23L86.3115 119.992C86.4506 118.902 86.0574 117.812 85.2562 117.061L82.2976 114.288C75.903 108.295 71.9225 100.117 71.0852 91.4511H91.0089L96.8552 109.877C98.4843 115.016 98.8842 120.544 98.0082 125.864ZM133.139 72.8221C132.416 73.5711 131.445 73.9844 130.403 73.9844H122.422C112.72 73.9844 103.414 71.0954 95.5123 65.6263C95.499 65.6169 95.4856 65.6115 95.4722 65.6022C93.1316 63.9798 90.9126 62.126 88.8782 60.0903C87.5421 58.7541 85.3739 58.7541 84.0364 60.0903C82.6989 61.4278 82.6989 63.5946 84.0364 64.9321C85.9263 66.8233 87.9594 68.5755 90.0914 70.1631V70.2086V84.6043H70.918V75.9466C70.918 64.8157 73.5115 53.6541 78.4188 43.6642C80.0814 40.2789 83.7234 38.2365 87.4779 38.5816C91.4128 38.9427 94.6644 41.7836 95.5685 45.6491C98.1847 56.8508 107.395 65.106 118.484 66.1894C119.782 66.3164 121.107 66.3806 122.422 66.3806H130.23C132.35 66.3806 134.132 68.0231 134.204 70.0414C134.24 71.086 133.862 72.0731 133.139 72.8221Z"/>
</mask>
<path d="M137.63 52.136C135.738 52.136 134.205 53.6688 134.205 55.5587V60.2668C132.975 59.7933 131.635 59.5325 130.23 59.5325H122.421C121.328 59.5325 120.227 59.479 119.149 59.3734C110.982 58.5762 104.185 52.433 102.236 44.0895C101.88 42.5674 101.313 41.1363 100.572 39.8242C107.759 37.9904 113.089 31.4633 113.089 23.7137C113.089 14.545 105.631 7.087 96.4633 7.087C87.2946 7.087 79.8366 14.545 79.8366 23.7137C79.8366 26.8636 80.718 29.8115 82.2455 32.3247C77.9801 33.5579 74.2912 36.5339 72.2729 40.6441C70.383 44.4908 68.8141 48.4993 67.5662 52.6055C65.8502 51.3629 63.7676 50.5885 61.5166 50.4949L53.5008 50.1618C50.7081 50.0455 47.9488 49.5947 45.2991 48.8203C39.7297 47.1926 34.9962 43.0396 32.3118 37.426C31.3675 35.4518 30.0594 33.713 28.4919 32.2739C33.6012 29.2925 37.044 23.7552 37.044 17.4247C37.0426 7.9497 29.3332 0.240234 19.8582 0.240234C10.3818 0.240234 2.67237 7.9497 2.67237 17.426C2.67237 22.4645 4.85119 27.0027 8.31804 30.1499C3.34246 33.1152 0 38.5482 0 44.7489V90.2781C0 96.7517 1.86049 103.047 5.37951 108.482L8.21639 112.866V172.112C8.21639 174.003 9.74919 175.536 11.6404 175.536H37.3944C39.2857 175.536 40.8185 174.003 40.8185 172.112C40.8185 166.523 38.126 161.552 33.9703 158.426C33.9703 158.422 33.9703 158.419 33.9703 158.417V67.8586C39.8688 70.2527 46.1124 71.5983 52.5993 71.8685L60.809 72.2095C61.9673 72.255 63.1029 72.1199 64.1836 71.8203C64.1127 73.194 64.0712 74.5703 64.0712 75.9452V88.0271C64.0712 93.9483 65.3151 99.7665 67.6424 105.114L63.8586 125.813L48.2885 145.855C48.2872 145.856 48.2872 145.857 48.2858 145.859C48.2256 145.938 48.1681 146.022 48.1133 146.108C48.1026 146.124 48.0905 146.138 48.0812 146.154C48.0798 146.156 48.0799 146.156 48.0785 146.157L41.9941 156.015C41.2959 157.146 41.0806 158.482 41.3856 159.776C41.6919 161.069 42.4837 162.166 43.6152 162.864L63.3182 175.025C63.8786 175.371 64.4993 175.536 65.1132 175.536C66.2608 175.536 67.3816 174.958 68.029 173.909C71.1227 168.898 71.2109 162.867 68.8007 157.929L75.5391 150.341L74.4932 158.54C74.4919 158.553 74.4919 158.565 74.4905 158.577C74.4825 158.645 74.4798 158.714 74.4758 158.783C74.4731 158.835 74.4678 158.888 74.4678 158.94C74.4678 158.95 74.4665 158.961 74.4665 158.973V172.112C74.4665 174.003 75.9993 175.536 77.8892 175.536H102.596C104.487 175.536 106.02 174.003 106.02 172.112C106.02 166.754 103.46 161.983 99.4995 158.954L104.764 126.976C105.814 120.597 105.336 113.968 103.381 107.806L96.9381 87.4974V74.5047C104.729 78.6591 113.428 80.8325 122.421 80.8325H130.403C131.726 80.8325 133.008 80.5918 134.205 80.1357V158.385C134.205 160.276 135.738 161.809 137.628 161.809C139.519 161.809 141.052 160.276 141.052 158.385V55.5587C141.052 53.6688 139.519 52.136 137.63 52.136ZM19.8582 7.08834C25.5587 7.08834 30.1959 11.7255 30.1959 17.426C30.1959 23.1252 25.5587 27.7637 19.8582 27.7637C14.1577 27.7637 9.51913 23.1265 9.51913 17.426C9.51913 11.7255 14.1577 7.08834 19.8582 7.08834ZM15.0645 168.688V161.841H23.6995C28.1628 161.841 31.9708 164.703 33.3845 168.688H15.0645ZM15.0645 154.993V111.854C15.0645 111.194 14.8732 110.548 14.5148 109.993L11.1268 104.761C8.3274 100.437 6.84811 95.4289 6.84811 90.2781V87.888H27.1222V154.993H15.0645ZM61.0926 65.3681L52.8842 65.0271C45.5479 64.7221 38.5687 62.8509 32.142 59.4656C32.1192 59.4536 32.0951 59.4456 32.0724 59.4349C29.7866 58.2258 27.5797 56.824 25.5079 55.2605C23.9991 54.1209 21.8524 54.4205 20.7128 55.9292C19.5733 57.438 19.8729 59.5847 21.3829 60.7243C23.2127 62.1072 25.1374 63.3792 27.1236 64.5241V81.0398H6.84811V44.7489C6.84811 39.1594 11.3957 34.6118 16.9852 34.6118C20.868 34.6118 24.4579 36.8763 26.1352 40.3819C29.6582 47.749 35.9432 53.2208 43.3785 55.3942C46.5604 56.3238 49.8708 56.8655 53.2173 57.0046L61.233 57.3377C63.4787 57.4313 65.2924 59.2463 65.275 61.3836C65.267 62.4858 64.8243 63.5076 64.0284 64.2647C63.2326 65.0217 62.1907 65.4109 61.0926 65.3681ZM96.4633 13.9351C101.855 13.9351 106.242 18.3222 106.242 23.7137C106.242 29.1066 101.855 33.4923 96.4633 33.4923C91.0704 33.4923 86.6847 29.1066 86.6847 23.7137C86.6847 18.3222 91.0704 13.9351 96.4633 13.9351ZM63.4707 167.073L48.8035 158.021L52.1071 152.667L59.0382 156.944C62.5719 159.126 64.2197 163.22 63.4707 167.073ZM64.6317 152.311L56.0421 147.037L69.7798 129.354C70.1168 128.919 70.3442 128.409 70.4432 127.869L72.9537 114.133C74.3595 115.964 75.9137 117.691 77.615 119.285L79.2976 120.861L77.0733 138.3L64.6317 152.311ZM81.3132 168.688V162.397H89.4587C93.6104 162.397 97.1628 165.016 98.5499 168.688H81.3132ZM98.0082 125.864L93.1209 155.55H81.7787L83.7301 140.243C83.7301 140.239 83.7301 140.234 83.7315 140.23L86.3115 119.992C86.4506 118.902 86.0574 117.812 85.2562 117.061L82.2976 114.288C75.903 108.295 71.9225 100.117 71.0852 91.4511H91.0089L96.8552 109.877C98.4843 115.016 98.8842 120.544 98.0082 125.864ZM133.139 72.8221C132.416 73.5711 131.445 73.9844 130.403 73.9844H122.422C112.72 73.9844 103.414 71.0954 95.5123 65.6263C95.499 65.6169 95.4856 65.6115 95.4722 65.6022C93.1316 63.9798 90.9126 62.126 88.8782 60.0903C87.5421 58.7541 85.3739 58.7541 84.0364 60.0903C82.6989 61.4278 82.6989 63.5946 84.0364 64.9321C85.9263 66.8233 87.9594 68.5755 90.0914 70.1631V70.2086V84.6043H70.918V75.9466C70.918 64.8157 73.5115 53.6541 78.4188 43.6642C80.0814 40.2789 83.7234 38.2365 87.4779 38.5816C91.4128 38.9427 94.6644 41.7836 95.5685 45.6491C98.1847 56.8508 107.395 65.106 118.484 66.1894C119.782 66.3164 121.107 66.3806 122.422 66.3806H130.23C132.35 66.3806 134.132 68.0231 134.204 70.0414C134.24 71.086 133.862 72.0731 133.139 72.8221Z" fill="#152F3C" stroke="white" stroke-width="2" mask="url(#path-1-inside-1)"/>
<path d="M134.705 172.112C134.705 170.498 136.015 169.188 137.629 169.188C139.243 169.188 140.552 170.497 140.552 172.112C140.552 173.73 139.24 175.052 137.629 175.052C136.011 175.052 134.705 173.756 134.705 172.144V172.112Z" fill="#152F3C" stroke="white"/>
</svg>
