<svg width="190" height="181" viewBox="0 0 190 181" fill="none" xmlns="http://www.w3.org/2000/svg">
<path d="M127.867 0H16.3149C11.9534 0 7.85505 1.6987 4.77743 4.78187C1.69685 7.86245 0 11.96 0 16.319V41.6564C0 43.1876 1.24103 44.429 2.77263 44.429H27.0883V146.423C27.0883 147.955 28.3293 149.196 29.8609 149.196H91.5143C93.0459 149.196 94.2869 147.955 94.2869 146.423C94.2873 144.892 93.0459 143.65 91.5146 143.65H32.6335V41.6564V16.319C32.6335 16.0487 32.6261 15.7803 32.6132 15.5134C32.6087 15.4251 32.6006 15.3378 32.5947 15.2499C32.5832 15.072 32.5714 14.8942 32.554 14.7179C32.5441 14.614 32.53 14.5108 32.5178 14.4073C32.499 14.2484 32.4805 14.0894 32.4572 13.9319C32.4413 13.8232 32.4221 13.7157 32.4039 13.6077C32.3784 13.4572 32.3529 13.3068 32.3234 13.1578C32.3015 13.048 32.2779 12.939 32.2539 12.8299C32.2221 12.6846 32.1892 12.5397 32.1533 12.3959C32.1263 12.2868 32.0978 12.1781 32.0686 12.0698C32.0302 11.9275 31.9899 11.7863 31.9478 11.6454C31.916 11.5386 31.8834 11.4325 31.849 11.3268C31.8036 11.1859 31.7559 11.0462 31.7067 10.9068C31.6705 10.804 31.6343 10.7013 31.5962 10.5996C31.5433 10.4587 31.4871 10.3194 31.4306 10.1804C31.391 10.0831 31.3522 9.98554 31.3108 9.88906C31.2487 9.74488 31.1832 9.60329 31.1171 9.46133C31.076 9.37261 31.0361 9.28351 30.9936 9.19553C30.9182 9.04063 30.8383 8.88869 30.7585 8.73675C30.7204 8.66466 30.6845 8.59146 30.6457 8.51975C30.4028 8.07576 30.1404 7.64396 29.8587 7.22585C29.8143 7.16005 29.767 7.09609 29.7215 7.03066C29.6232 6.88944 29.5248 6.74822 29.4221 6.60996C29.364 6.53195 29.3034 6.4558 29.2439 6.3789C29.1496 6.25691 29.0557 6.13491 28.9581 6.0155C28.8923 5.93454 28.8243 5.8558 28.7566 5.77632C28.6916 5.69942 28.6284 5.62105 28.5618 5.54527H127.867C133.808 5.54527 138.641 10.3781 138.641 16.319V47.754C138.641 49.2852 139.882 50.5266 141.414 50.5266C142.945 50.5266 144.186 49.2852 144.186 47.754V16.319C144.186 7.32086 136.865 0 127.867 0ZM27.0886 38.8838H5.54527V16.319C5.54527 13.441 6.66504 10.7364 8.70015 8.70126C10.7319 6.66615 13.4358 5.54527 16.3149 5.54527C22.2554 5.54527 27.0886 10.3781 27.0886 16.319V38.8838Z" fill="#152F3C"/>
<path d="M141.413 137.223C139.882 137.223 138.641 138.464 138.641 139.995V143.65H137.635C136.103 143.65 134.862 144.892 134.862 146.423C134.862 147.954 136.103 149.196 137.635 149.196H141.413C142.945 149.196 144.186 147.954 144.186 146.423V139.995C144.186 138.464 142.945 137.223 141.413 137.223Z" fill="#152F3C"/>
<path d="M101.13 73.7565L96.4666 67.6955L91.3923 61.1L101.13 48.4445C102.064 47.2309 101.837 45.49 100.624 44.5562C99.4096 43.6216 97.6691 43.8494 96.7353 45.0627L87.8928 56.5536L79.2988 45.3854C86.2895 44.344 91.6695 38.3023 91.6695 31.0265C91.6695 23.0206 85.1564 16.5071 77.1505 16.5071H65.1857C63.6541 16.5071 62.4131 17.7485 62.4131 19.2798V42.7732V66.324C62.4131 67.8552 63.6541 69.0966 65.1857 69.0966C66.7173 69.0966 67.9584 67.8552 67.9584 66.324V45.5458H72.4241L84.3934 61.1022L74.6559 73.7565C73.7225 74.9701 73.9491 76.711 75.1624 77.6448C75.6663 78.0326 76.2615 78.2204 76.8511 78.2204C77.6825 78.2204 78.5047 77.8481 79.0507 77.1383L87.8932 65.6474L93.3098 72.6862L96.7338 77.1369C96.8702 77.3143 97.0244 77.4707 97.1911 77.6056C97.6921 78.0108 98.3109 78.2204 98.9353 78.2204C99.5253 78.2204 100.12 78.0326 100.624 77.6448C101.837 76.711 102.064 74.9701 101.13 73.7565ZM73.8814 40.0006C73.8796 40.0006 73.8777 40.0006 73.8755 40.0006H67.9576V22.0524H77.1498C82.098 22.0524 86.1235 26.0783 86.1235 31.0265C86.1243 35.9747 82.0984 40.0006 77.1502 40.0006H73.8814Z" fill="#152F3C"/>
<path d="M114.216 92.7149H48.0279C46.4963 92.7149 45.2553 93.9563 45.2553 95.4875C45.2553 97.0188 46.4963 98.2602 48.0279 98.2602H114.216C115.747 98.2602 116.988 97.0188 116.988 95.4875C116.988 93.9563 115.747 92.7149 114.216 92.7149Z" fill="#152F3C"/>
<path d="M104.982 111.616H48.0279C46.4963 111.616 45.2553 112.858 45.2553 114.389C45.2553 115.92 46.4963 117.162 48.0279 117.162H104.982C106.514 117.162 107.755 115.92 107.755 114.389C107.755 112.858 106.514 111.616 104.982 111.616Z" fill="#152F3C"/>
<path d="M187.892 70.1852L181.428 66.4532C184.585 58.3098 181.421 48.8296 173.627 44.3298C165.016 39.3583 153.967 42.3195 148.996 50.9298L112.944 113.374C112.576 114.011 112.477 114.768 112.667 115.478C112.857 116.188 113.322 116.794 113.959 117.162L115.046 117.789L96.0437 154.922C95.9968 155.014 95.9572 155.108 95.921 155.204C95.9103 155.232 95.9014 155.261 95.8914 155.289C95.8663 155.362 95.8445 155.436 95.8256 155.511C95.8182 155.541 95.8101 155.571 95.8034 155.601C95.7812 155.704 95.7631 155.807 95.7528 155.911L93.5624 177.953C93.5491 178.089 93.5454 178.224 93.5517 178.357C93.5887 179.157 93.972 179.904 94.6008 180.401C94.7055 180.484 94.8171 180.56 94.935 180.628C95.3654 180.877 95.8437 181 96.321 181C96.8899 181 97.457 180.825 97.9384 180.479L115.932 167.562C116.058 167.471 116.172 167.367 116.28 167.259C116.306 167.231 116.332 167.204 116.358 167.176C116.461 167.062 116.559 166.944 116.641 166.817C116.641 166.816 116.642 166.816 116.642 166.815L116.643 166.814C116.644 166.813 116.644 166.811 116.645 166.81L139.299 131.793L140.387 132.42C140.824 132.673 141.3 132.792 141.77 132.792C142.729 132.792 143.661 132.295 144.174 131.405L178.84 71.3623L182.717 73.6011L167.199 100.479C166.434 101.805 166.888 103.501 168.214 104.266C168.651 104.519 169.128 104.638 169.598 104.638C170.556 104.638 171.488 104.141 172.002 103.252L188.906 73.9726C189.673 72.6465 189.218 70.9508 187.892 70.1852ZM99.6873 172.398L100.846 160.735L109.208 165.562L99.6873 172.398ZM113.419 161.59L102.181 155.102L119.854 120.566L134.492 129.017L113.419 161.59ZM175.424 66.1889L140.759 126.232L139.812 125.686C139.805 125.681 139.798 125.676 139.791 125.672L120.101 114.304C120.092 114.299 120.082 114.295 120.073 114.29L119.132 113.746L153.798 53.7028C157.24 47.7405 164.892 45.6906 170.854 49.1328C176.816 52.5749 178.867 60.2266 175.424 66.1889Z" fill="#152F3C"/>
</svg>
