<svg width="176" height="176" viewBox="0 0 176 176" fill="none" xmlns="http://www.w3.org/2000/svg">
<path d="M148.433 13.9951L172.747 6.50983C174.291 6.03468 175.157 4.39806 174.682 2.85477C174.206 1.31171 172.57 0.44531 171.026 0.920482L146.712 8.40581C145.169 8.88096 144.303 10.5175 144.778 12.0608L148.433 13.9951ZM148.433 13.9951C148.146 14.0835 147.856 14.1254 147.572 14.1254M148.433 13.9951L147.572 14.1254M147.572 14.1254C146.322 14.1254 145.165 13.3167 144.778 12.0609L147.572 14.1254Z" fill="#152F3C" stroke="white"/>
<path d="M172.747 49.4915L172.747 49.4915C174.291 49.9667 175.157 51.603 174.682 53.1461L174.682 53.1462C174.295 54.4022 173.138 55.2111 171.888 55.2111C171.603 55.2111 171.314 55.1693 171.027 55.0809L171.027 55.0808L143.631 46.6467C142.088 46.1715 141.222 44.5349 141.697 42.9916C142.172 41.4486 143.808 40.5824 145.352 41.0573L172.747 49.4915Z" fill="#152F3C" stroke="white"/>
<path d="M171.887 30.6072H145.611C143.996 30.6072 142.686 29.2978 142.686 27.6831C142.686 26.0685 143.996 24.759 145.611 24.759H171.887C173.502 24.759 174.811 26.0685 174.811 27.6831C174.811 29.2977 173.502 30.6072 171.887 30.6072Z" fill="#152F3C" stroke="white"/>
<mask id="path-4-inside-1" fill="white">
<path d="M123.652 58.8803H103.066C103.118 57.8795 102.965 56.8581 102.579 55.8788C101.616 53.4419 101.129 50.8643 101.129 48.2182V39.8769H111.454C112.971 39.8769 114.367 39.3622 115.49 38.5062L123.431 40.9507C123.766 41.0541 124.105 41.103 124.439 41.103C125.902 41.103 127.257 40.157 127.711 38.6853C128.267 36.8781 127.253 34.9617 125.446 34.4053L118.129 32.1536V23.8476L129.632 20.3064C131.439 19.75 132.453 17.8336 131.897 16.0264C131.34 14.2192 129.424 13.2046 127.617 13.7614L115.646 17.4467C114.499 16.5181 113.041 15.9589 111.454 15.9589H89.4524C87.5617 15.9589 86.0284 17.4922 86.0284 19.383C86.0284 21.2737 87.5617 22.807 89.4524 22.807H96.2944V33.0291H91.3867C90.5567 33.0291 89.7548 33.3308 89.1302 33.8776L81.7477 40.3449H72.9739C70.6928 34.4919 64.3754 31.3092 58.2508 33.0593L57.2548 33.3438C54.998 33.9889 52.7775 34.7384 50.5971 35.5804C52.5039 31.0737 55.9591 27.3271 60.485 25.0436C62.1734 24.192 62.8514 22.1325 61.9995 20.4441C61.1479 18.7557 59.0884 18.077 57.4 18.9296C49.3761 22.9782 43.8853 30.4981 42.4561 39.265C32.0761 44.6966 22.9428 52.4133 15.8739 61.8407H3.42404C1.53294 61.8407 0 63.374 0 65.2648C0 67.1555 1.53294 68.6888 3.42404 68.6888H17.6102C18.7158 68.6888 19.753 68.155 20.396 67.2555C29.8107 54.0832 43.5696 44.3781 59.1373 39.9279L60.1334 39.6434C62.9295 38.8449 65.8176 40.3857 66.7103 43.1527C67.4574 45.468 66.548 48.0011 64.499 49.3132L48.72 59.4213C47.4401 60.2414 46.8539 61.8079 47.2812 63.2669C47.7086 64.7262 49.0467 65.7284 50.5673 65.7284H58.7669C54.1704 79.8409 51.8431 94.5041 51.8431 109.439V118.359C39.8497 117.337 28.6836 112.154 20.1187 103.564C19.4763 102.92 18.6039 102.558 17.6941 102.558H3.42404C1.53294 102.558 0 104.091 0 105.982C0 107.873 1.53294 109.406 3.42404 109.406H16.2974C26.0128 118.684 38.4917 124.227 51.8431 125.23V157.546C51.8431 167.502 59.9427 175.602 69.8984 175.602H76.2928H81.3734H100.074C110.03 175.602 118.129 167.502 118.129 157.546V122.68C120.396 120.684 121.83 117.764 121.83 114.514C121.83 111.629 120.699 109.005 118.861 107.056C120.699 105.106 121.83 102.482 121.83 99.5973C121.83 96.7126 120.699 94.0884 118.861 92.1387C120.699 90.1891 121.83 87.5649 121.83 84.6801C121.83 83.2547 121.551 81.894 121.051 80.6456H123.652C129.653 80.6456 134.535 75.7636 134.535 69.763C134.535 63.7623 129.653 58.8803 123.652 58.8803ZM114.981 99.5973C114.981 101.822 113.171 103.632 110.947 103.632H95.1144C92.8898 103.632 91.0799 101.822 91.0799 99.5973C91.0799 97.3727 92.8898 95.5628 95.1144 95.5628H110.947C113.171 95.5628 114.981 97.3727 114.981 99.5973ZM114.981 114.515C114.981 116.739 113.171 118.549 110.947 118.549H95.1144C92.8898 118.549 91.0799 116.739 91.0799 114.515C91.0799 112.29 92.8898 110.48 95.1144 110.48H110.947C113.171 110.48 114.981 112.29 114.981 114.515ZM73.5758 47.1927H79.6114V54.8745H68.4987C71.1893 53.0348 72.9626 50.249 73.5758 47.1927ZM103.142 22.807H111.281V33.0291H103.142V22.807ZM92.6741 39.8769H94.2807V48.2182C94.2807 51.7289 94.9295 55.1519 96.2084 58.3931C96.2451 58.4859 96.2906 58.6009 96.0896 58.7636C95.8924 58.9238 95.7917 58.8563 95.7106 58.8022C90.9111 55.6217 87.6928 50.7003 86.6882 45.1205L92.6741 39.8769ZM111.281 157.546C111.281 163.726 106.254 168.753 100.074 168.753H81.3734H76.2928H69.8984C63.7187 168.753 58.6912 163.726 58.6912 157.546V109.439C58.6912 93.0533 61.64 77.013 67.4437 61.7226H79.6117V66.7608C79.6117 72.292 81.3447 77.7259 84.5102 82.2436C84.3301 83.0277 84.2318 83.8426 84.2318 84.6801C84.2318 87.5649 85.3621 90.1891 87.2008 92.1387C85.3621 94.0884 84.2318 96.7126 84.2318 99.5973C84.2318 102.482 85.3621 105.106 87.2008 107.056C85.3621 109.006 84.2318 111.63 84.2318 114.515C84.2318 120.515 89.1138 125.397 95.1144 125.397H110.947C111.059 125.397 111.17 125.392 111.282 125.388V157.546H111.281ZM114.981 84.6801C114.981 86.9047 113.171 88.7147 110.947 88.7147H95.1144C92.8898 88.7147 91.0799 86.9047 91.0799 84.6801C91.0799 82.4555 92.8898 80.6456 95.1144 80.6456H110.947C113.171 80.6456 114.981 82.4555 114.981 84.6801ZM123.652 73.7975H95.1141C92.7049 73.7975 90.4769 74.5857 88.6721 75.916C87.2319 73.0952 86.4595 69.9496 86.4595 66.7608V65.7284H123.652C125.877 65.7284 127.687 67.538 127.687 69.7626C127.687 71.9872 125.877 73.7975 123.652 73.7975Z"/>
</mask>
<path d="M123.652 58.8803H103.066C103.118 57.8795 102.965 56.8581 102.579 55.8788C101.616 53.4419 101.129 50.8643 101.129 48.2182V39.8769H111.454C112.971 39.8769 114.367 39.3622 115.49 38.5062L123.431 40.9507C123.766 41.0541 124.105 41.103 124.439 41.103C125.902 41.103 127.257 40.157 127.711 38.6853C128.267 36.8781 127.253 34.9617 125.446 34.4053L118.129 32.1536V23.8476L129.632 20.3064C131.439 19.75 132.453 17.8336 131.897 16.0264C131.34 14.2192 129.424 13.2046 127.617 13.7614L115.646 17.4467C114.499 16.5181 113.041 15.9589 111.454 15.9589H89.4524C87.5617 15.9589 86.0284 17.4922 86.0284 19.383C86.0284 21.2737 87.5617 22.807 89.4524 22.807H96.2944V33.0291H91.3867C90.5567 33.0291 89.7548 33.3308 89.1302 33.8776L81.7477 40.3449H72.9739C70.6928 34.4919 64.3754 31.3092 58.2508 33.0593L57.2548 33.3438C54.998 33.9889 52.7775 34.7384 50.5971 35.5804C52.5039 31.0737 55.9591 27.3271 60.485 25.0436C62.1734 24.192 62.8514 22.1325 61.9995 20.4441C61.1479 18.7557 59.0884 18.077 57.4 18.9296C49.3761 22.9782 43.8853 30.4981 42.4561 39.265C32.0761 44.6966 22.9428 52.4133 15.8739 61.8407H3.42404C1.53294 61.8407 0 63.374 0 65.2648C0 67.1555 1.53294 68.6888 3.42404 68.6888H17.6102C18.7158 68.6888 19.753 68.155 20.396 67.2555C29.8107 54.0832 43.5696 44.3781 59.1373 39.9279L60.1334 39.6434C62.9295 38.8449 65.8176 40.3857 66.7103 43.1527C67.4574 45.468 66.548 48.0011 64.499 49.3132L48.72 59.4213C47.4401 60.2414 46.8539 61.8079 47.2812 63.2669C47.7086 64.7262 49.0467 65.7284 50.5673 65.7284H58.7669C54.1704 79.8409 51.8431 94.5041 51.8431 109.439V118.359C39.8497 117.337 28.6836 112.154 20.1187 103.564C19.4763 102.92 18.6039 102.558 17.6941 102.558H3.42404C1.53294 102.558 0 104.091 0 105.982C0 107.873 1.53294 109.406 3.42404 109.406H16.2974C26.0128 118.684 38.4917 124.227 51.8431 125.23V157.546C51.8431 167.502 59.9427 175.602 69.8984 175.602H76.2928H81.3734H100.074C110.03 175.602 118.129 167.502 118.129 157.546V122.68C120.396 120.684 121.83 117.764 121.83 114.514C121.83 111.629 120.699 109.005 118.861 107.056C120.699 105.106 121.83 102.482 121.83 99.5973C121.83 96.7126 120.699 94.0884 118.861 92.1387C120.699 90.1891 121.83 87.5649 121.83 84.6801C121.83 83.2547 121.551 81.894 121.051 80.6456H123.652C129.653 80.6456 134.535 75.7636 134.535 69.763C134.535 63.7623 129.653 58.8803 123.652 58.8803ZM114.981 99.5973C114.981 101.822 113.171 103.632 110.947 103.632H95.1144C92.8898 103.632 91.0799 101.822 91.0799 99.5973C91.0799 97.3727 92.8898 95.5628 95.1144 95.5628H110.947C113.171 95.5628 114.981 97.3727 114.981 99.5973ZM114.981 114.515C114.981 116.739 113.171 118.549 110.947 118.549H95.1144C92.8898 118.549 91.0799 116.739 91.0799 114.515C91.0799 112.29 92.8898 110.48 95.1144 110.48H110.947C113.171 110.48 114.981 112.29 114.981 114.515ZM73.5758 47.1927H79.6114V54.8745H68.4987C71.1893 53.0348 72.9626 50.249 73.5758 47.1927ZM103.142 22.807H111.281V33.0291H103.142V22.807ZM92.6741 39.8769H94.2807V48.2182C94.2807 51.7289 94.9295 55.1519 96.2084 58.3931C96.2451 58.4859 96.2906 58.6009 96.0896 58.7636C95.8924 58.9238 95.7917 58.8563 95.7106 58.8022C90.9111 55.6217 87.6928 50.7003 86.6882 45.1205L92.6741 39.8769ZM111.281 157.546C111.281 163.726 106.254 168.753 100.074 168.753H81.3734H76.2928H69.8984C63.7187 168.753 58.6912 163.726 58.6912 157.546V109.439C58.6912 93.0533 61.64 77.013 67.4437 61.7226H79.6117V66.7608C79.6117 72.292 81.3447 77.7259 84.5102 82.2436C84.3301 83.0277 84.2318 83.8426 84.2318 84.6801C84.2318 87.5649 85.3621 90.1891 87.2008 92.1387C85.3621 94.0884 84.2318 96.7126 84.2318 99.5973C84.2318 102.482 85.3621 105.106 87.2008 107.056C85.3621 109.006 84.2318 111.63 84.2318 114.515C84.2318 120.515 89.1138 125.397 95.1144 125.397H110.947C111.059 125.397 111.17 125.392 111.282 125.388V157.546H111.281ZM114.981 84.6801C114.981 86.9047 113.171 88.7147 110.947 88.7147H95.1144C92.8898 88.7147 91.0799 86.9047 91.0799 84.6801C91.0799 82.4555 92.8898 80.6456 95.1144 80.6456H110.947C113.171 80.6456 114.981 82.4555 114.981 84.6801ZM123.652 73.7975H95.1141C92.7049 73.7975 90.4769 74.5857 88.6721 75.916C87.2319 73.0952 86.4595 69.9496 86.4595 66.7608V65.7284H123.652C125.877 65.7284 127.687 67.538 127.687 69.7626C127.687 71.9872 125.877 73.7975 123.652 73.7975Z" fill="#152F3C" stroke="white" stroke-width="2" mask="url(#path-4-inside-1)"/>
<path d="M76.1119 21.4506L76.1118 21.4506C75.569 21.9938 74.8127 22.3074 74.045 22.3074C73.2773 22.3074 72.521 21.9935 71.9776 21.4505L71.9768 21.4496C71.4318 20.9076 71.1209 20.1522 71.1209 19.3833C71.1209 18.6144 71.4318 17.859 71.9768 17.317L71.9768 17.317L71.9777 17.316C72.5209 16.7728 73.2772 16.4592 74.045 16.4592C74.8126 16.4592 75.5689 16.7731 76.1119 17.316L76.112 17.3161C76.6555 17.8593 76.969 18.6156 76.969 19.3833C76.969 20.1509 76.6552 20.9072 76.1119 21.4506Z" fill="#152F3C" stroke="white"/>
</svg>
