<svg width="150" height="184" viewBox="0 0 150 184" fill="none" xmlns="http://www.w3.org/2000/svg">
<path d="M71.3985 48.4028H77.8845C84.5661 48.4028 91.0129 50.3664 96.5278 54.081C97.7522 54.9056 99.4158 54.5841 100.242 53.3611C101.069 52.1388 100.746 50.4789 99.521 49.654C93.1185 45.3416 85.6367 43.0622 77.8842 43.0622H71.3982C50.0496 43.0622 32.6811 60.394 32.6811 81.6971V87.6832C29.0899 89.1622 26.5551 92.6927 26.5551 96.8043V101.84C26.5551 107.279 30.989 111.704 36.4389 111.704H39.6188C40.9006 129.869 56.1178 144.258 74.6412 144.258C93.1645 144.258 108.382 129.869 109.664 111.704H112.843C118.293 111.704 122.727 107.279 122.727 101.84V96.8043C122.727 92.6927 120.193 89.1626 116.602 87.6832V81.6971C116.602 73.4583 114.038 65.5961 109.187 58.9602C108.316 57.7685 106.642 57.5072 105.448 58.3763C104.254 59.2454 103.993 60.9159 104.863 62.1076C109.041 67.8235 111.25 74.5976 111.25 81.6971V86.9405H107.077C105.599 86.9405 104.401 88.1357 104.401 89.6108V95.9487L101.25 88.5644C100.829 87.5796 99.86 86.9405 98.7875 86.9405H88.026C90.9272 83.8825 92.7111 79.7581 92.7111 75.2242V68.5C92.7111 67.0249 91.5134 65.8297 90.0353 65.8297C88.5572 65.8297 87.3596 67.0249 87.3596 68.5V75.2242C87.3596 81.6846 82.093 86.9405 75.6194 86.9405H50.4945C49.4185 86.9405 48.4473 87.5835 48.0292 88.573L44.8811 96.0192V89.6108C44.8811 88.1357 43.6831 86.9405 42.2053 86.9405H38.0326V81.6971C38.033 63.3385 53.0008 48.4028 71.3985 48.4028ZM109.753 92.2812H112.843C115.343 92.2812 117.375 94.3099 117.375 96.804V101.839C117.375 104.334 115.343 106.362 112.843 106.362H109.753V92.2812ZM52.2701 92.2812H97.0194L104.393 109.558C104.209 125.778 90.9369 138.917 74.6415 138.917C58.4029 138.917 45.169 125.868 44.8943 109.727L52.2701 92.2812ZM39.53 106.362H36.4393C33.9401 106.362 31.9073 104.334 31.9073 101.839V96.804C31.9073 94.3099 33.9405 92.2812 36.4393 92.2812H39.53V106.362Z" fill="#152F3C"/>
<path d="M17.0278 107.686C15.5514 107.686 14.3544 108.885 14.3544 110.364V115.486C14.3544 125.364 17.4484 134.79 23.3019 142.745C29.153 150.701 37.228 156.452 46.6524 159.376L73.8497 167.822C74.1074 167.903 74.3743 167.943 74.6413 167.943C74.9083 167.943 75.1753 167.903 75.4333 167.822L102.63 159.376C112.055 156.452 120.13 150.701 125.981 142.746C131.834 134.79 134.928 125.364 134.928 115.486V39.1798C134.928 37.7818 133.854 36.6191 132.463 36.5103C114.955 35.1416 99.3253 31.1648 86.0084 24.6913C82.4792 22.9728 79.1475 21.0908 76.1049 19.097C75.2159 18.5148 74.0664 18.5148 73.1774 19.097C70.1369 21.0897 66.8059 22.9721 63.2792 24.6906C49.9567 31.1648 34.3254 35.142 16.8196 36.5103C15.428 36.6191 14.3541 37.7818 14.3541 39.1798V97.7974C14.3541 99.2764 15.551 100.475 17.0274 100.475C18.5038 100.475 19.7008 99.2764 19.7008 97.7974V41.6387C36.8847 40.0455 52.3196 35.9687 65.6161 29.507C68.7906 27.9598 71.8193 26.2845 74.641 24.516C77.4647 26.2859 80.4949 27.9613 83.6715 29.5081C96.962 35.9687 112.395 40.0455 129.581 41.6387V115.486C129.581 124.213 126.847 132.54 121.675 139.569C116.507 146.598 109.373 151.678 101.046 154.261L74.6413 162.462L48.235 154.261C39.9088 151.678 32.7756 146.598 27.6064 139.569C22.4347 132.54 19.7011 124.213 19.7011 115.486V110.364C19.7011 108.885 18.5042 107.686 17.0278 107.686Z" fill="#152F3C"/>
<path d="M147.315 46.7197C148.798 46.7197 150 45.5197 150 44.0388V25.0651C150 23.5841 148.798 22.3842 147.315 22.3842C121.028 22.3842 103.3 16.5299 93.0567 11.6185C81.9893 6.3122 77.0444 0.938304 77.0014 0.890763C76.4939 0.324206 75.7669 0.00250214 75.0055 0C75.0027 0 74.9998 0 74.9973 0C74.2392 0 73.5133 0.323134 73.0043 0.884687C72.9556 0.938304 68.0107 6.31255 56.9433 11.6189C46.6998 16.5299 28.9715 22.3845 2.68454 22.3845C1.20196 22.3845 0 23.5845 0 25.0654V115.369C0 128.369 4.08157 140.771 11.803 151.235C19.5252 161.7 30.1792 169.265 42.6129 173.114L74.2048 182.894C74.4636 182.974 74.7317 183.014 74.9998 183.014C75.2679 183.014 75.5357 182.974 75.7948 182.894L107.387 173.114C119.82 169.265 130.474 161.7 138.197 151.235C145.919 140.771 150 128.369 150 115.369V56.6214C150 55.1405 148.798 53.9405 147.315 53.9405C145.833 53.9405 144.631 55.1405 144.631 56.6214V115.369C144.631 139.655 129.025 160.803 105.797 167.992L74.9998 177.526L44.2025 167.992C20.9748 160.803 5.36907 139.655 5.36907 115.369V27.7263C31.4134 27.337 49.1857 21.3404 59.6174 16.2832C67.5003 12.4614 72.4778 8.61739 74.9998 6.39048C77.5219 8.61739 82.4993 12.4614 90.3822 16.2829C100.814 21.3404 118.586 27.3366 144.631 27.7259V44.0388C144.631 45.5197 145.833 46.7197 147.315 46.7197Z" fill="#152F3C"/>
<path d="M62.8117 125.36C63.179 125.435 70.6331 126.853 75.7181 121.779C78.9282 124.983 83.0817 125.598 85.8012 125.598C87.3893 125.598 88.4889 125.388 88.6241 125.361C89.7137 125.141 90.5605 124.253 90.755 123.125C91.7502 117.357 90.8548 112.708 88.0941 109.308C84.2535 104.578 78.1598 104.067 75.7177 104.067C73.2761 104.067 67.1819 104.578 63.3413 109.308C60.5807 112.708 59.6853 117.357 60.6805 123.125C60.8757 124.253 61.7225 125.141 62.8117 125.36ZM67.4616 112.868C69.8485 109.929 74.0309 109.612 75.7184 109.612C77.4059 109.612 81.5884 109.929 83.975 112.868C85.3646 114.58 85.9511 116.993 85.7258 120.062C83.5255 120.052 79.9549 119.438 78.0754 115.897C77.6037 115.008 76.7 114.456 75.7184 114.456C74.7368 114.456 73.8328 115.008 73.3612 115.897C71.4802 119.441 67.9068 120.052 65.7108 120.062C65.4855 116.994 66.0716 114.58 67.4616 112.868Z" fill="#152F3C"/>
</svg>
