<svg width="164" height="166" viewBox="0 0 164 166" fill="none" xmlns="http://www.w3.org/2000/svg">
<path d="M118.17 126.61H128.259C129.89 126.615 131.506 126.295 133.014 125.671C134.521 125.047 135.89 124.129 137.04 122.973C137.568 122.445 137.865 121.729 137.865 120.983C137.865 120.237 137.568 119.521 137.04 118.993C136.513 118.466 135.797 118.169 135.051 118.169C134.305 118.169 133.589 118.466 133.061 118.993C132.432 119.626 131.684 120.128 130.859 120.469C130.035 120.811 129.151 120.985 128.259 120.983H118.17C117.423 120.983 116.708 121.279 116.18 121.807C115.652 122.335 115.356 123.05 115.356 123.797C115.356 124.543 115.652 125.258 116.18 125.786C116.708 126.314 117.423 126.61 118.17 126.61Z" fill="#152F3C"/>
<path d="M126.61 81.5932C124.384 81.5932 122.208 82.2533 120.358 83.4899C118.507 84.7265 117.064 86.4842 116.213 88.5406C115.361 90.5971 115.138 92.8599 115.572 95.043C116.006 97.2261 117.078 99.2314 118.652 100.805C120.226 102.379 122.231 103.451 124.415 103.885C126.598 104.32 128.861 104.097 130.917 103.245C132.973 102.393 134.731 100.951 135.968 99.1C137.204 97.2492 137.864 95.0733 137.864 92.8474C137.861 89.8637 136.674 87.003 134.564 84.8932C132.455 82.7833 129.594 81.5966 126.61 81.5932ZM126.61 98.4746C125.497 98.4746 124.409 98.1445 123.484 97.5262C122.559 96.9079 121.837 96.0291 121.411 95.0008C120.986 93.9726 120.874 92.8412 121.091 91.7496C121.308 90.6581 121.844 89.6554 122.631 88.8685C123.418 88.0815 124.421 87.5456 125.512 87.3284C126.604 87.1113 127.735 87.2228 128.764 87.6487C129.792 88.0746 130.671 88.7958 131.289 89.7212C131.907 90.6466 132.237 91.7345 132.237 92.8474C132.236 94.3393 131.642 95.7696 130.587 96.8245C129.532 97.8794 128.102 98.4728 126.61 98.4746Z" fill="#152F3C"/>
<path d="M154.746 67.5253C153.076 67.5253 151.445 68.0204 150.056 68.9478C148.668 69.8753 147.587 71.1936 146.948 72.7359C146.309 74.2782 146.142 75.9754 146.467 77.6127C146.793 79.25 147.597 80.754 148.777 81.9345C149.958 83.1149 151.462 83.9188 153.099 84.2445C154.736 84.5702 156.434 84.403 157.976 83.7642C159.518 83.1253 160.837 82.0435 161.764 80.6554C162.691 79.2673 163.187 77.6354 163.187 75.966C163.184 73.7282 162.294 71.5827 160.712 70.0003C159.129 68.4179 156.984 67.5278 154.746 67.5253ZM154.746 78.7796C154.189 78.7796 153.645 78.6146 153.183 78.3054C152.72 77.9962 152.359 77.5568 152.146 77.0427C151.934 76.5286 151.878 75.9629 151.986 75.4171C152.095 74.8713 152.363 74.37 152.756 73.9765C153.15 73.583 153.651 73.3151 154.197 73.2065C154.743 73.0979 155.308 73.1537 155.823 73.3666C156.337 73.5796 156.776 73.9402 157.085 74.4029C157.394 74.8656 157.559 75.4095 157.559 75.966C157.559 76.712 157.262 77.4271 156.734 77.9546C156.207 78.482 155.492 78.7787 154.746 78.7796Z" fill="#152F3C"/>
<path d="M126.61 42.2033C124.384 42.2033 122.208 42.8634 120.358 44.1C118.507 45.3366 117.064 47.0943 116.213 49.1507C115.361 51.2072 115.138 53.47 115.572 55.6531C116.006 57.8362 117.078 59.8416 118.652 61.4155C120.226 62.9894 122.231 64.0613 124.415 64.4955C126.598 64.9298 128.861 64.7069 130.917 63.8551C132.973 63.0033 134.731 61.5608 135.968 59.7101C137.204 57.8593 137.864 55.6834 137.864 53.4575C137.861 50.4738 136.674 47.6132 134.564 45.5033C132.455 43.3934 129.594 42.2067 126.61 42.2033ZM126.61 59.0847C125.497 59.0847 124.409 58.7546 123.484 58.1363C122.559 57.518 121.837 56.6392 121.411 55.611C120.986 54.5827 120.874 53.4513 121.091 52.3597C121.308 51.2682 121.844 50.2655 122.631 49.4786C123.418 48.6916 124.421 48.1557 125.512 47.9385C126.604 47.7214 127.735 47.8329 128.764 48.2588C129.792 48.6847 130.671 49.4059 131.289 50.3313C131.907 51.2567 132.237 52.3446 132.237 53.4575C132.236 54.9494 131.642 56.3797 130.587 57.4346C129.532 58.4895 128.102 59.0829 126.61 59.0847Z" fill="#152F3C"/>
<path d="M13.3644 166H42.9068C44.7882 166.001 46.6483 165.602 48.364 164.83C48.6239 165.192 48.9663 165.487 49.3628 165.691C49.7592 165.894 50.1985 166 50.6441 166H149.119C149.746 166 150.356 165.79 150.85 165.404C151.345 165.018 151.696 164.477 151.848 163.869L154.129 154.746H157.559C158.306 154.746 159.021 154.449 159.549 153.922C160.076 153.394 160.373 152.678 160.373 151.932V140.678C160.373 139.932 160.076 139.216 159.549 138.688C159.021 138.161 158.306 137.864 157.559 137.864H150.434C152.61 135.438 154.037 132.433 154.542 129.212C155.047 125.992 154.608 122.694 153.279 119.718C151.949 116.742 149.786 114.215 147.05 112.442C144.315 110.669 141.124 109.727 137.864 109.729H109.729V55.9195C109.722 51.2181 108.006 46.6795 104.9 43.1503C101.794 39.621 97.51 37.3421 92.8475 36.7384V28.1356C92.8475 27.3894 92.551 26.6738 92.0234 26.1461C91.4958 25.6185 90.7801 25.322 90.0339 25.322V2.81356C90.0339 2.06736 89.7375 1.35172 89.2098 0.824072C88.6822 0.296428 87.9665 0 87.2203 0H59.7881C58.1098 0.00195466 56.5007 0.669545 55.314 1.85632C54.1272 3.0431 53.4596 4.65215 53.4576 6.33051V11.2542C53.4576 12.0004 53.7541 12.7161 54.2817 13.2437C54.8093 13.7714 55.525 14.0678 56.2712 14.0678H67.5254V25.322C66.7792 25.322 66.0636 25.6185 65.5359 26.1461C65.0083 26.6738 64.7119 27.3894 64.7119 28.1356V36.7384C60.0494 37.3421 55.7656 39.621 52.6595 43.1503C49.5534 46.6795 47.837 51.2181 47.8305 55.9195V85.3507C46.264 84.7265 44.5931 84.4062 42.9068 84.4068C41.9743 84.4058 41.0804 84.0349 40.4211 83.3756C39.7617 82.7162 39.3909 81.8223 39.3898 80.8898V78.7797C40.136 78.7797 40.8517 78.4832 41.3793 77.9556C41.907 77.4279 42.2034 76.7123 42.2034 75.9661V64.7119C42.2034 63.9657 41.907 63.25 41.3793 62.7224C40.8517 62.1947 40.136 61.8983 39.3898 61.8983H16.8814C16.1352 61.8983 15.4195 62.1947 14.8919 62.7224C14.3642 63.25 14.0678 63.9657 14.0678 64.7119V75.9661C14.0678 76.7123 14.3642 77.4279 14.8919 77.9556C15.4195 78.4832 16.1352 78.7797 16.8814 78.7797V80.8898C16.8803 81.8223 16.5095 82.7162 15.8501 83.3756C15.1908 84.0349 14.2968 84.4058 13.3644 84.4068C9.82117 84.4108 6.42421 85.8201 3.91877 88.3255C1.41332 90.831 0.00400266 94.228 0 97.7712V152.636C0.00400266 156.179 1.41332 159.576 3.91877 162.081C6.42421 164.587 9.82117 165.996 13.3644 166ZM53.4576 89.583V81.5932H81.5932V120.983H56.2712V97.7712C56.2733 94.8043 55.2829 91.922 53.4576 89.583ZM146.922 160.373H109.729V154.746H148.329L146.922 160.373ZM154.746 149.119H109.729V143.492H154.746V149.119ZM137.864 115.356C140.849 115.356 143.712 116.542 145.822 118.652C147.933 120.763 149.119 123.625 149.119 126.61C149.119 129.595 147.933 132.458 145.822 134.568C143.712 136.679 140.849 137.864 137.864 137.864H109.729V115.356H137.864ZM70.339 30.9492H87.2203V36.5763H70.339V30.9492ZM59.0848 8.44068V6.33051C59.0848 6.14396 59.1589 5.96505 59.2908 5.83314C59.4227 5.70122 59.6016 5.62712 59.7881 5.62712H67.5254V8.44068H59.0848ZM73.1525 5.62712H84.4068V25.322H73.1525V5.62712ZM67.1737 42.2034H90.3856C94.0221 42.2075 97.5084 43.6539 100.08 46.2253C102.651 48.7966 104.098 52.283 104.102 55.9195V160.373H53.7931C55.4068 158.116 56.2734 155.41 56.2712 152.636V126.61H84.4068C85.153 126.61 85.8686 126.314 86.3963 125.786C86.9239 125.258 87.2203 124.543 87.2203 123.797V78.7797C87.2203 78.0335 86.9239 77.3178 86.3963 76.7902C85.8686 76.2625 85.153 75.9661 84.4068 75.9661H53.4576V55.9195C53.4617 52.283 54.9081 48.7966 57.4795 46.2253C60.0509 43.6539 63.5373 42.2075 67.1737 42.2034ZM19.6949 67.5254H36.5763V73.1525H19.6949V67.5254ZM13.3644 90.0339C15.7887 90.0312 18.113 89.0669 19.8273 87.3527C21.5415 85.6384 22.5058 83.3142 22.5085 80.8898V78.7797H33.7627V80.8898C33.7654 83.3142 34.7297 85.6384 36.4439 87.3527C38.1582 89.0669 40.4825 90.0312 42.9068 90.0339C44.9581 90.0362 46.9248 90.8521 48.3753 92.3027C49.8258 93.7532 50.6417 95.7198 50.6441 97.7712V152.636C50.6417 154.687 49.8258 156.654 48.3753 158.104C46.9248 159.555 44.9581 160.371 42.9068 160.373H13.3644C11.3131 160.371 9.34641 159.555 7.89589 158.104C6.44537 156.654 5.62945 154.687 5.62712 152.636V146.305H30.9492C31.6954 146.305 32.411 146.009 32.9386 145.481C33.4663 144.953 33.7627 144.238 33.7627 143.492V104.102C33.7627 103.355 33.4663 102.64 32.9386 102.112C32.411 101.585 31.6954 101.288 30.9492 101.288H5.62712V97.7712C5.62945 95.7198 6.44537 93.7532 7.89589 92.3027C9.34641 90.8521 11.3131 90.0362 13.3644 90.0339ZM5.62712 106.915H28.1356V140.678H5.62712V106.915Z" fill="#152F3C"/>
<path d="M95.6611 129.424C96.4073 129.424 97.1229 129.128 97.6506 128.6C98.1782 128.072 98.4747 127.357 98.4747 126.61V123.797C98.4747 123.051 98.1782 122.335 97.6506 121.807C97.1229 121.28 96.4073 120.983 95.6611 120.983C94.9149 120.983 94.1992 121.28 93.6716 121.807C93.144 122.335 92.8475 123.051 92.8475 123.797V126.61C92.8475 127.357 93.144 128.072 93.6716 128.6C94.1992 129.128 94.9149 129.424 95.6611 129.424Z" fill="#152F3C"/>
<path d="M95.6611 149.118C96.4073 149.118 97.1229 148.822 97.6506 148.294C98.1782 147.767 98.4747 147.051 98.4747 146.305V137.864C98.4747 137.118 98.1782 136.402 97.6506 135.875C97.1229 135.347 96.4073 135.051 95.6611 135.051C94.9149 135.051 94.1992 135.347 93.6716 135.875C93.144 136.402 92.8475 137.118 92.8475 137.864V146.305C92.8475 147.051 93.144 147.767 93.6716 148.294C94.1992 148.822 94.9149 149.118 95.6611 149.118Z" fill="#152F3C"/>
</svg>
