<?xml version="1.0" encoding="utf-8"?>
<!-- Generator: Adobe Illustrator 24.0.2, SVG Export Plug-In . SVG Version: 6.00 Build 0)  -->
<svg version="1.1" id="Capa_1" xmlns="http://www.w3.org/2000/svg" xmlns:xlink="http://www.w3.org/1999/xlink" x="0px" y="0px"
	 viewBox="0 0 512 512" style="enable-background:new 0 0 512 512;" xml:space="preserve">
<style type="text/css">
	.st0{fill:#152F3C;stroke:#FFFFFF;stroke-width:2;}
</style>
<g id="XMLID_1078_">
	<g id="XMLID_304_">
		<path id="XMLID_47_" class="st0" d="M495.6,485.9H152c-12.8,0-24.8-5-33.9-14l-87.2-87.2c-3.1-3.1-4.8-7.2-4.8-11.5
			c0-4.3,1.7-8.4,4.8-11.5c6.3-6.3,16.6-6.2,22.9,0.1l84.7,84.7c1.8,1.8,4.3,2.9,6.9,2.9h124.9c5.4,0,9.7-4.4,9.7-9.7
			c0-5.4-4.4-9.7-9.7-9.7l-113.9,0c-8.9,0-16.1-7.2-16.1-16.1s7.2-16.1,16.1-16.1h72.3c2.6,0,5.1-1.1,7-2.9l15.5-15.8
			c14-14.3,33.6-22.5,53.6-22.5c16.4,0,32.6,5.5,45.7,15.5l31,23.7c1.7,1.3,3.8,2,5.9,2h108.2c5.4,0,9.7-4.4,9.7-9.7
			c0-5.4-4.4-9.7-9.7-9.7H390.7l-28.4-21.7c-16.4-12.6-36.8-19.5-57.5-19.5c-25.2,0-49.8,10.3-67.5,28.3L224.6,378h-27l-49.5-85.8
			c-9.8-17-31.6-22.9-48.6-13.2c-8.3,4.7-14.3,12.4-16.8,21.7c-0.5,2-0.9,4.1-1.1,6.1c-13.9-12.6-35.5-12.2-49,1.2
			c-9.4,9.3-12.6,22.7-9.3,34.9c-2.2,1.4-4.2,3-6.1,4.8c-6.8,6.7-10.6,15.7-10.6,25.3c0,9.6,3.7,18.6,10.5,25.3l87.2,87.2
			c12.7,12.7,29.7,19.7,47.7,19.7h343.7c5.4,0,9.7-4.4,9.7-9.7S501,485.9,495.6,485.9L495.6,485.9z M101.5,305.9
			c1.1-4.2,3.8-7.7,7.6-9.8c7.7-4.4,17.6-1.7,22.1,6l43.9,76.1h-22.3L117,342.2l-13.9-24C100.9,314.4,100.3,310.1,101.5,305.9
			L101.5,305.9z M46.3,321.9c6.3-6.3,16.6-6.2,22.9,0.1l64.4,64.4c-5.1,4.3-9,10-11.1,16.5l-54.9-54.9c-7-7-16.3-10.5-25.6-10.4
			C40.6,332.1,42.1,326.1,46.3,321.9z"/>
		<path id="XMLID_1129_" class="st0" d="M234.6,213.6h42.9c5.4,0,9.7-4.4,9.7-9.7v-23.4h23.4c5.4,0,9.7-4.4,9.7-9.7v-42.9
			c0-5.4-4.4-9.7-9.7-9.7h-23.4V94.8c0-5.4-4.4-9.7-9.7-9.7h-42.9c-5.4,0-9.7,4.4-9.7,9.7v23.4h-23.4c-5.4,0-9.7,4.4-9.7,9.7v42.9
			c0,5.4,4.4,9.7,9.7,9.7h23.4v23.4C224.8,209.3,229.2,213.6,234.6,213.6z M211.2,161v-23.4h23.4c5.4,0,9.7-4.4,9.7-9.7v-23.4h23.4
			v23.4c0,5.4,4.4,9.7,9.7,9.7h23.4V161h-23.4c-5.4,0-9.7,4.4-9.7,9.7v23.4h-23.4v-23.4c0-5.4-4.4-9.7-9.7-9.7H211.2z"/>
		<path id="XMLID_1132_" class="st0" d="M253.7,311.2c0.8,0.2,1.6,0.3,2.4,0.3c0.8,0,1.6-0.1,2.4-0.3C317,296,363.6,250.4,380.1,192
			c1.5-5.2-1.5-10.6-6.7-12c-5.2-1.5-10.6,1.5-12,6.7c-14.4,51-54.7,91-105.3,105c-65.6-18-111.1-77.6-111.1-145.8V62.4L256,26.6
			l111.1,35.8v39.6c0,5.4,4.4,9.7,9.7,9.7c5.4,0,9.7-4.4,9.7-9.7V55.3c0-4.2-2.7-8-6.8-9.3L259,7.1c-1.9-0.6-4-0.6-6,0L132.2,46
			c-4,1.3-6.8,5-6.8,9.3v90.5c0,37.6,12.8,74.7,36.1,104.6C184.7,280.3,217.4,301.8,253.7,311.2L253.7,311.2z"/>
		<path id="XMLID_1133_" class="st0" d="M376.8,136.2c-2.6,0-5.1,1-6.9,2.8c-1.8,1.8-2.9,4.3-2.9,6.9c0,2.6,1,5.1,2.9,6.9
			c1.8,1.8,4.3,2.9,6.9,2.9c2.6,0,5.1-1,6.9-2.9c1.8-1.8,2.9-4.3,2.9-6.9c0-2.6-1-5.1-2.9-6.9C381.9,137.2,379.4,136.2,376.8,136.2z
			"/>
	</g>
</g>
</svg>
